<?xml version="1.0" encoding="utf-8"?>
<!-- Generator: Adobe Illustrator 21.0.0, SVG Export Plug-In . SVG Version: 6.00 Build 0)  -->
<svg version="1.1" id="Capa_1" xmlns="http://www.w3.org/2000/svg" xmlns:xlink="http://www.w3.org/1999/xlink" x="0px" y="0px"
	 viewBox="0 0 400 400" style="enable-background:new 0 0 400 400;" xml:space="preserve">
<style type="text/css">
	.st0{fill:#EC4F39;}
</style>
<g>
	<g>
		<path class="st0" d="M45.3,390.2v-375h113c30,0,59.5,2,79.5,27.5c16,20.5,18.5,42,18.5,67.5c0,32.5-7,64.5-45,78.5v1
			c39.5,5.5,54.5,38.5,54.5,87c0,15.5-1,31-5,46c-15,47.5-42,67.5-92,67.5H45.3z M128.3,166.7c17,0,39,1,50-13
			c6.5-9.5,7.5-22.5,7.5-40.5c0-28-6-42-38-43h-32.5v96.5H128.3z M130.3,335.2c14.5,0,29.5,1.5,42-4c19-8.5,21.5-33,21.5-52
			c0-40.5-8-57.5-51.5-57.5h-27v113.5H130.3z"/>
		<path class="st0" d="M301.3,390.2v-66h66v66H301.3z"/>
	</g>
</g>
<g>
</g>
<g>
</g>
<g>
</g>
<g>
</g>
<g>
</g>
<g>
</g>
<g>
</g>
<g>
</g>
<g>
</g>
<g>
</g>
<g>
</g>
<g>
</g>
<g>
</g>
<g>
</g>
<g>
</g>
</svg>
