<?xml version="1.0" encoding="utf-8"?>
<!-- Generator: Adobe Illustrator 21.0.0, SVG Export Plug-In . SVG Version: 6.00 Build 0)  -->
<svg version="1.1" id="Capa_1" xmlns="http://www.w3.org/2000/svg" xmlns:xlink="http://www.w3.org/1999/xlink" x="0px" y="0px"
	 viewBox="0 0 400 400" style="enable-background:new 0 0 400 400;" xml:space="preserve">
<style type="text/css">
	.st0{fill:#EC018B;}
	.st1{fill:#EC048D;}
	.st2{fill:#ED0B90;}
	.st3{fill:#ED088F;}
	.st4{fill:#EC078F;}
	.st5{fill:#EC038C;}
	.st6{fill:#FDF11A;}
	.st7{fill:#ED0A8F;}
	.st8{fill:#ED098F;}
	.st9{fill:#FDF5A1;}
	.st10{fill:#FDFACB;}
	.st11{fill:#FDF346;}
	.st12{fill:#FDF56C;}
	.st13{fill:#FDF9A2;}
	.st14{fill:#FEF396;}
	.st15{fill:#FDF785;}
</style>
<g>
	<g>
		<path class="st0" d="M252.2,248.8c-2.3-0.8-5-2.6-5.8,2.1c-0.3,2-2.6,3-4.8,4c-4.7,2-9.6,1.1-14.3,1.6c-10.4,1-20.9-6.2-24.7-16
			c-0.4-1.1-2.1-2.4,0.6-3.5c13.2-5.3,25.8-11.8,38.1-19c3.7-2.2,4.5-3,2.6-6.5c-5.1-9.5-13.2-15.3-23.4-18
			c-11-2.9-22.7,4-24.3,14.5c-0.9,5.8-2.7,11.7-1.6,16.7c0,12.4,1.3,18.4,5.3,23.7c10.7,14,23.8,15.8,40,13.5
			c5.4-0.8,10.2-2.8,12.4-8.3C253,252.2,256.2,250.1,252.2,248.8z M200,222.3c-0.4-3.8,0.8-7.6,2.2-11.3c4.1-11.5,9.6-13.5,21.1-8.8
			c4.9,2,9.7,3.9,13,8.3c1.3,1.8,1.9,2.9-1.1,4.3c-8.9,4-17.5,8.8-26.3,13.1C200.9,231.9,200,231.3,200,222.3z"/>
		<path class="st0" d="M150.7,248.8c-2.1-0.9-4.7-2.5-5.5,1.5c-0.5,2.5-2.8,3.2-4.7,4.2c-4.5,2.5-9.6,1.8-14.3,1.8
			c-12.5,0-20-4.1-25-15.5c-0.8-1.9-1.6-3.2,0.8-4.1c13.3-5,25.6-12.2,38.1-18.9c3.8-2,3.6-2.8,2.1-6c-4.7-10-13-15.7-23-18.1
			c-11.4-2.7-22.9,2.4-24.7,16c-0.8,5.7-0.7,11.4-1.2,17.1c-2.2,22.8,16.5,37.1,35.6,35.7c12.8,0,18.6-2.4,22.3-9.2
			C152,251.9,153.7,250,150.7,248.8z M98.5,221.4c0.4-6.1,1.6-13.1,7.3-18.6c3.1-3,6.4-4.6,10.6-2.8c6.3,2.8,13.7,3.7,17.8,10.3
			c1.4,2.2,1.9,3.2-1.3,4.7c-8.8,4-17.1,8.7-25.7,13C99,232,98.6,231.7,98.5,221.4z"/>
		<path class="st0" d="M362.9,213.2c-1.3-3.8-3.8-6.5-7.3-8c-3.3-1.4-3.5-2.9-1.4-5.4c0.7-0.9,2.4-1.5,0.8-4.5c-2.7,7-6.2,6.2-12,4
			c-7.4-2.8-15.9-4.3-23.8-0.4c-17.3,8.6-24.9,22.4-21.7,41.5c1.3,7.5,2.7,16.6,11,19.9c14.2,5.7,28.9,7.4,43.3,0.4
			c6.5-3.2,11.5-8.6,13.2-15.7C367.6,234.3,366.6,223.6,362.9,213.2z M356.2,250.9c-5.8,6.8-14.6,6.4-22.5,7.8c-3,0.6-6.2-0.2-9.3,0
			c-15.9,0.6-21.4-12.6-21.5-24.9c-0.1-13.9,6.1-24.1,18.8-29.6c7.9-3.4,16.3-2.5,25.4,1.5c-7.3,3.8-4.3,6.3-0.1,9.2
			c1.7-2.1-0.7-5.8,2.6-6.3c2.5-0.3,4.3,1.8,5.9,3.6C362.5,220.2,363.2,242.8,356.2,250.9z"/>
		<path class="st0" d="M52,198.7c9.1-0.6,19.5,0.2,28.6,6.7c1.9,1.4,5.4,2.6,3.4,5.7c-2.5,3.9-4.7,0.6-6.8-1.1
			c-4.9-4.1-10.8-5.7-17.1-5.9c-3.1-0.1-6.2,0.1-9.3,0c-9-0.4-16.1,1.9-20.4,11c-4.7,9.8-2.4,17.9,4,25.5c7.5,9,16.7,15.5,28.3,18
			c1.9,0.4,4,0,3.9,3.1c-0.2,3.4-2.5,2.3-4.3,2.4c-15.8,1.2-34.1-9.6-38.4-26.2c-2.8-10.7-3.5-21.8,2.5-32c2.9-4.9,7.8-6.7,13.2-7.1
			C43.2,198.5,46.8,198.7,52,198.7z"/>
		<path class="st0" d="M163.5,209c3.9-2.4,8.3-2.2,12.7-2.4c8.5-0.4,11.4,5.3,11.8,13.2c0.1,2.7-1.7,3.7-3.5,4
			c-2.5,0.4-1.5-2-1.9-3.3c-2.3-8.4-10.5-11-17.6-5.8c-1.6,1.2-1.3,2.3-1.3,3.9c0.5,10.4,2.6,20.4,5.7,30.3c0.5,1.5,2.5,3-0.1,4.5
			c-1.6,0.9-3.2,1.7-5,1.1c-2.4-0.7-1.4-2.9-1.7-4.5c-2.6-12.9-4.7-25.8-6.1-38.9c-0.3-2.6-1.7-5.4,1.9-6.7
			C162.7,202.8,161.8,207.3,163.5,209z"/>
		<path class="st0" d="M278.5,215.3c-5.4-1.9-10.3,1-15.4,0.7c-1.7-0.1-4.2,1.2-4.5-2.2c-0.3-2.9,1.5-3.2,3.6-3.6
			c7-1.5,14.2-0.6,21.3-0.7c4.2,0,1.8,3.4,1.6,4.9c-1.5,10.9-7.1,20.1-12.6,29.2c3.7,2.3,7.7,1.9,11.7,1.9c2.1,0,4-0.1,3.8,3
			c-0.1,2.7-1.9,2.7-3.7,2.5c-5-0.5-10-0.2-15.1-1.2c-5.8-1.2-4.5-3.5-2.8-7.1C270.6,233.5,276.1,225,278.5,215.3z"/>
		<path class="st1" d="M153.4,254.8c-2.2,3.2-0.9,6-0.3,9c0.7,3.3,0.4,5.7-4.4,5.6c-6.4-0.1-9.7,3.9-8.8,9.5
			c0.6,3.6,6.9,7.1,11.4,5.5c1.9-0.7,5.7,1.7,5.8-2.3C157.5,272.8,156.5,263.7,153.4,254.8z M149.9,282.1c-2.5-0.8-7.1-0.2-7-4.4
			c0-4,4-4.6,6.5-5.8c4.5,0.4,4.8,3.3,5.1,6.2C154.8,281.7,151.5,282.6,149.9,282.1z"/>
		<path class="st2" d="M121.6,271.1c0.4,3.8,1.1,7.6,1,11.4c-0.1,3.7,2.4,4.7,4.8,5.2c2.7,0.6,4.5-1.4,5.5-3.8c1.5-3.5,2-7.2,1.8-11
			c-0.1-1.1-0.5-2.9,1.8-2.5c2.2,0.4,1.1,1.7,1,2.9c-0.1,2.7,0.1,5.3-0.1,8c-0.2,2.6,1.1,7-0.7,7.3c-4.5,0.9-9.5,1.9-14.1,0.3
			c-1.1-0.4-2.2-2.4-2.3-3.7c-0.3-4.7-0.1-9.3-0.1-14C120.6,271.1,121.1,271.1,121.6,271.1z"/>
		<path class="st1" d="M172.2,264.4c-5.6,0.6-7.8,4.4-6.9,9.3c0,8,1.7,10.2,7.5,10.3c5.3,0,8.6-3.6,8.5-9.5
			C181.3,269,177,263.9,172.2,264.4z M172.5,281.3c-5.3,0.1-4.4-3.6-4.5-6.9c-0.1-3.3-0.6-6.8,4.6-6.7c4.8,0.1,5.8,3.1,6.1,5.7
			C178.8,278.8,177,281.3,172.5,281.3z"/>
		<path class="st3" d="M360,136.1c1.6,3.5,3.6,6.9,4.8,10.6c5,15.3,2.2,33.9-7.7,45.4c8.1-19.3,13.6-37.1,0-54.4
			C357,135.3,358.1,135.1,360,136.1z"/>
		<path class="st2" d="M114.2,267.4c-7.4,1.7-10.1,9-5.9,16c0.4,0.6,1.3,1.3,2,1.3c1.3,0.1,2.2-3.7,3.8-0.3c0.2,0.4-0.7,1.4-1.3,2
			c-1.7,1.5-3.5,1.6-5.4,0.3c-1.7-1.1-2.1-2.6-2.2-4.5c-0.3-4.9,1.4-10.5-4.7-13.4c-0.9-0.4-0.3-1.9,0.5-1.9c3.7-0.1,3-2.2,2.3-4.5
			c-0.4-1.3,0.4-2.1,1.7-2.2c1.1-0.1,1.8,0.6,1.6,1.5c-1,4.9,1.9,4.4,5.1,4.1C112.6,265.7,113.9,266.1,114.2,267.4z"/>
		<path class="st4" d="M99,266.8c-0.7,1.6-0.7,2.2-1,2.3c-8.2,4.2-8.2,4.2-4.3,11.7c4,7.9,0.6,14.2-7.9,13.7c3.4-1,5.3-3.2,6.8-6.3
			c2.1-4.4-2.3-6.1-3.2-9.3c-0.7-2.5-4.5-4.3-1.3-7.5C90.8,268.5,94.2,267,99,266.8z"/>
		<path class="st5" d="M162.3,290.8c-0.1-9.3-3.2-18.4-2-28C164.4,267,165.6,280.2,162.3,290.8z"/>
		<path class="st6" d="M360,136.1c-1.5-0.3-2.6-0.1-2.9,1.6c-0.4-0.1-0.7-0.2-1-0.4c-1.6-1.7-3-3.5-5-4.9c-1.5-1.4-2.6-2.9-2.8-5
			c0.6-2.6,1.4-4.9,4.8-3.3C355.9,127.8,359.9,130.8,360,136.1z"/>
		<path class="st7" d="M82.6,283.2c-0.1,2.2-1.2,3.3-3.2,3.5c-2.1,0.2-3.4-0.7-3.6-2.8c-0.1-1.9,0.2-3.5,2.6-3.8
			C81,279.7,81.9,281.2,82.6,283.2z"/>
		<path class="st8" d="M191.8,272.7c-0.4,2-1.2,3.3-3.1,3.2c-2.3-0.1-3.9-1.4-3.7-3.6c0.2-1.7,1.6-3,3.7-3
			C191.5,269.3,190.3,272.2,191.8,272.7z"/>
		<path class="st9" d="M349.4,128c0.9,1.3,1.8,2.6,2.7,4c0.7,1,0.8,1.9-0.1,2.8c-3.2-1.8-9.1-1.9-5.1-8.2
			C348.2,126,348.6,127.3,349.4,128z"/>
		<path class="st10" d="M342.5,120.1c-1.1-0.9-3.1-2.1-1.5-3.5c1.4-1.2,2.8-4.5,5.7-2C347.2,118,345.1,119.2,342.5,120.1z"/>
		<path class="st11" d="M349.4,128c-0.8-0.5-1.7-0.9-2.5-1.4c-0.2-0.3-0.3-0.6-0.3-1c-0.7-4.4,1.3-5.4,5.2-4.1
			c0.5,0.9,1,1.7,1.5,2.6C350.6,124.2,349.4,125.5,349.4,128z"/>
		<path class="st12" d="M351.7,121.4c-2.5,0.4-4.8,1.1-5.2,4.1c-1.1-0.6-1.2-1.6-1.3-2.7c-0.5-3.3,1.7-4,4.2-4.4
			C350.6,119.1,351.4,120.1,351.7,121.4z"/>
		<path class="st13" d="M342.5,120.1c1.4-1.8,2.8-3.6,4.2-5.4c1.2,0.5,2.2,1.3,2.6,2.7c-1.7,1.4-3.4,2.9-5.3,4.1
			C343.4,121,343,120.6,342.5,120.1z"/>
		<path class="st14" d="M352,134.8c0-0.9,0-1.9,0.1-2.8c2.3,1.1,4.6,2.1,4,5.3C354.2,137.3,352.9,136.4,352,134.8z"/>
		<path class="st15" d="M343.9,121.5c1.2-2.1,2.6-4,5.3-4.1c0.1,0.4,0.2,0.7,0.2,1.1c-1.4,1.5-2.8,2.9-4.2,4.4
			C344.7,122.4,344.3,121.9,343.9,121.5z"/>
	</g>
</g>
<g>
</g>
<g>
</g>
<g>
</g>
<g>
</g>
<g>
</g>
<g>
</g>
<g>
</g>
<g>
</g>
<g>
</g>
<g>
</g>
<g>
</g>
<g>
</g>
<g>
</g>
<g>
</g>
<g>
</g>
</svg>
