<?xml version="1.0" encoding="utf-8"?>
<!-- Generator: Adobe Illustrator 21.0.0, SVG Export Plug-In . SVG Version: 6.00 Build 0)  -->
<svg version="1.1" id="Capa_1" xmlns="http://www.w3.org/2000/svg" xmlns:xlink="http://www.w3.org/1999/xlink" x="0px" y="0px"
	 viewBox="0 0 400 400" style="enable-background:new 0 0 400 400;" xml:space="preserve">
<g>
	<g>
		<path d="M183.4,200.4c4.1-4.6,7.6-9.7,12.3-13.7c3.4-2.9,6.9-5.5,11.6-5.8c5.6-0.4,12.2,2.6,10.6,11c-1.1,6-3.4,11.6-5.5,17.3
			c-1.6,4.3-3.2,8.6-4.8,13c-1.6,4.4-0.4,6.5,4.2,7.5c7.7,1.6,13.3-2.3,18.4-7.3c0.5-0.5,0.8-1.7,1.7-1.4c0.8,0.2,0.8,1.3,0.9,2.1
			c0.5,3.3,0.4,6.3-2.7,8.7c-6.4,5-13.8,6.1-21.6,6c-4-0.1-8-0.6-11.7-2.8c-3.6-2.1-5.5-5.4-4.8-9.5c1.2-7.2,4-13.8,6.8-20.4
			c1-2.3,2.2-4.6,3.1-6.9c0.5-1.3,1.5-3-0.1-4.2c-1.6-1.2-3,0.1-4.2,1.2c-2.9,2.7-5.1,6-7.4,9.3c-5.6,8-11.1,16.2-15.7,24.8
			c-0.6,1.2-1.3,2.4-1.7,3.7c-0.8,2.6-2.6,4-5.2,4.3c-2.4,0.3-4.9,0.4-7.3-0.1c-2.8-0.7-3.1-1.3-2.1-3.9
			c4.6-11.7,9.2-23.5,13.7-35.2c0.3-0.9,0.6-1.8,0.8-2.7c0.5-2.3-0.9-3.5-3.1-2.7c-2,0.7-3.4,2.1-4.8,3.6
			c-6.5,7.2-12.3,14.9-18.1,22.7c-6.7,8.9-15.3,15.3-26.3,17.8c-7.5,1.7-15.1,1.7-22.3-1.2c-5.6-2.2-7.4-6.3-5.9-12.2
			c2.2-8.6,5.2-16.9,8.2-25.3c0.4-1.3,1.4-2.8,0.2-3.8c-1.3-1.1-2.7,0.1-3.9,0.7c-1.8,0.9-3,2.5-4.2,4c-6.6,8.3-12.8,16.9-19.8,24.9
			c-6.9,7.9-15.6,12.3-26,13.7c-8.1,1.1-16.1,1.2-24.1-0.3c-8.4-1.6-14.1-6.2-16.4-14.7c-0.1-0.4,0-1.1-0.8-0.7c0-4.2,0-8.4,0-12.6
			c1.1,0.7,0.8-0.3,0.9-0.7c0.8-4.4,2.5-8.6,4.5-12.6c4.8-9.4,12.4-14.8,23-15.6c7.4-0.6,13.1,3.8,14.3,11.2
			c1,5.9-0.4,11.3-3.8,16.2c-4.4,6.5-9.9,12-16,16.9c-2.3,1.8-2.2,2.1,0.4,3.4c3.7,1.8,7.6,2,11.6,2.2c10.9,0.4,21.5-8.3,24.3-18.3
			c5.7-20.2,11.6-40.4,18.5-60.2c0.8-2.2,1.7-4.1,3.8-5.3c0.3-0.2,0.6-0.4,0.1-0.8c3.2,0,6.4,0,9.5,0c-0.3,0.2-0.3,0.4,0,0.6
			c3.1,2.2,3.6,3.4,2.3,6.9c-1.6,4.5-3.4,8.9-5.1,13.3c-4.2,10.7-8.4,21.5-12.6,32.2c-0.1,0.2-0.2,0.4-0.2,0.6
			c-0.2,0.7-0.9,1.7,0,2.1c1,0.5,1.2-0.8,1.6-1.3c4.3-5.4,8.5-11,13.9-15.4c3.6-3,7.8-4,12.4-3.3c6.4,0.9,9.3,6.3,7.1,12.9
			c-3.1,8.8-6.2,17.6-8.9,26.6c-1.8,6.3,1.3,9.6,7.9,8.8c10.7-1.2,17-7.3,19.8-17.4c2.6-9.4,5.3-18.7,7.8-28.1
			c0.7-2.6,1.8-4.8,4.7-5.3c3.4-0.6,6.8-0.3,9.6,2.1c1.2,1.1,1,2.5,0.3,3.8c-2,4-3.4,8.2-4.8,12.5c-0.4,1.3-0.9,2.6-0.7,4.1
			c1.2,0.1,1.4-0.9,1.9-1.5c3.4-4.9,6.8-9.7,11.4-13.5c3.2-2.7,6.7-4.8,10.9-5.2c2.5-0.2,4.9,0.2,7.1,1.5c2.9,1.7,3.8,5,2.9,9.7
			c-0.5,2.8-1.8,5.3-2.6,8c-0.3,0.3-0.4,0.7-0.2,0.9C183.1,201,183.3,200.6,183.4,200.4z M19.7,214.9c0,0.3-0.1,0.6,0,0.9
			c0.1,1-0.2,2.2,0.8,2.8c1.1,0.7,2-0.4,2.9-0.9c3.7-2.4,7.1-5.2,9.8-8.7c2.9-3.6,5.5-7.4,6.3-12.1c0.7-4.5-2.1-6.9-6.4-5.3
			c-3,1.1-5.5,3-7.2,5.7C22.4,202.6,20.3,208.5,19.7,214.9z"/>
		<path d="M266.9,264.7c0.8-0.6,0-0.8-0.3-1c-1.6-1.1-1.7-2.5-0.9-4.1c1.7-3.6,3.3-7.2,4.9-10.8c0.4-1,1-1.5,2.1-1.4
			c1.4,0.1,2.7,0,4.4,0c-1.5,3.4-3,6.5-4.5,9.7c-0.4,0.8-0.7,1.6-1,2.4c-0.6,1.7-0.2,2.5,1.6,2.6c1.9,0.1,3.9,0,5.8,0.1
			c1.1,0.1,1.3-0.6,1.7-1.3c1.7-3.8,3.6-7.6,5.1-11.4c0.7-1.6,1.4-2.3,3.2-2.1c1.1,0.2,2.3,0,3.8,0c-2.3,5-4.4,9.7-6.6,14.7
			c3.2,0,6.1,0,8.9,0c1,0,1.1-0.7,1.4-1.4c1.8-3.9,3.6-7.7,5.3-11.6c0.6-1.4,1.3-2,2.9-1.8c1.2,0.1,2.4,0,4,0c-2,4.4-4,8.6-5.8,12.9
			c-0.6,1.4-1.9,2.6-1.6,4.4C289.7,264.7,278.3,264.7,266.9,264.7z"/>
		<path d="M306.3,264.7c-2.3-5.2,1.7-11.2,7.6-11.2c5.2-0.1,10.4,0,15.6,0c1.4,0,2.5,0,2.5-1.8c0-1.7-1.4-1.7-2.5-1.7
			c-4.3-0.1-8.5,0-12.8,0c-1.9,0-3.9,0-5.9,0c0.2-2,1.1-2.7,3.1-2.6c5.9,0.1,11.8,0,17.8,0.1c0.9,0,1.7,0,2.6,0.2
			c3.6,0.7,4.4,2.3,3,5.7c-1.6,3.8-3.8,7.4-4.9,11.4C323.6,264.7,315,264.7,306.3,264.7z M329.9,256c-0.3,0-0.5,0-0.7,0
			c-4,0-8.1,0.1-12.1-0.1c-2.5-0.1-4,0.8-4.9,3.2c-0.8,2.3-0.7,2.6,1.8,2.6c2.7,0,5.3,0,8,0c5.7,0,5.7,0,7.9-5.3
			C330,256.4,330,256.3,329.9,256z"/>
		<path d="M362.2,264.7c-1.3-2.7,0.5-4.8,1.4-7.1c0.5-1.2,1.2-2.3,1.6-3.5c1.7-4.9,5.6-6.6,10.3-6.6c6.7-0.1,13.4-0.1,20.1-0.1
			c0,0.6,0,1.2,0,1.7c-0.5-0.6-0.7-0.1-0.9,0.2c-0.7,1.5-1.5,3-2.1,4.5c-1.2,3.5-3.7,4.8-7.3,4.7c-5.1-0.1-10.2,0-15.4-0.1
			c-1.5,0-2,0.8-2.1,1.9c-0.2,1.5,1.1,1.3,2,1.3c3.5,0.1,6.9,0,10.4,0c3.1,0,6.1,0,9.3,0c-0.4,1.2-0.6,2-0.9,2.9
			C379.9,264.7,371,264.7,362.2,264.7z M370.1,255.9c4.3,0,8.4,0,12.5,0c4,0,5.9-1.8,6.4-6c-3.7,0-7.3,0-11,0
			C372.8,249.9,371.8,250.7,370.1,255.9z"/>
		<path d="M195.3,264.7c0.3-1.2-0.8-0.8-1.3-1c-5.2-1.8-8-7.7-6-12.4c1.3-2.9,4-4.6,7.2-4.5c2.7,0.1,5,1.7,5.9,4.3
			c0.8,2.2,0.3,3.9-1.3,5.1c-0.1-0.9-0.2-1.7-0.4-2.5c-0.4-1.8-1.6-2.9-3.4-3.2c-1.6-0.2-2.8,0.6-3.5,2c-0.8,1.6-0.5,3.2,0.6,4.6
			c2.7,3.3,8.3,2.5,10.4-1.4c1.4-2.6,1.1-5.8-0.9-8.1c-2.3-2.7-5.3-3.4-8.6-2.6c-1.4,0.3-2.8,1-4.2,1.6c0.4-2.7,3.6-5,7-5.3
			c5.8-0.5,10.9,3.3,12.2,9.1c1.2,5.4-2,11.3-7.2,13.3c-0.5,0.2-1.6-0.3-1.3,1C198.8,264.7,197.1,264.7,195.3,264.7z"/>
		<path d="M150.7,264.7c0.4-2.5,1.8-3.1,4.2-3c5.4,0.2,10.8,0,16.2,0.1c2,0,3.4-0.6,4.2-2.6c0.6-1.6,0.4-2.3-1.4-2.2
			c-3.5,0-6.9,0-10.4,0c-3,0-6.1,0-9.1,0c0.9-5.6,4.8-9.2,10.8-9.5c7-0.3,14-0.1,21.2-0.1c-1,1.7-2.1,2.7-4.1,2.6
			c-5.1-0.2-10.2-0.1-15.4,0c-3.1,0-4.5,1.1-5.6,4.4c2.6,0,5.2,0,7.7,0c3.4,0,6.8-0.1,10.2,0c3,0.1,3.5,1.1,2.4,3.9
			c-1,2.3-2.1,4.6-4.7,5.7c-0.5,0.2-0.4,0.5,0.1,0.7C168.3,264.7,159.5,264.7,150.7,264.7z"/>
		<path d="M240.4,264.7c0.7-0.7-0.2-0.8-0.5-1c-1.6-1.1-1.7-2.5-0.9-4.1c1.4-3.1,2.8-6.1,4.3-9.5c-1.7,0-3.1,0-4.5,0
			c0.2-2,1.1-2.8,3-2.6c1.3,0.1,3,0.6,3.5-1.5c0.9-4.4,4.4-4.4,8-4.9c-1,2.2-1.8,4.1-2.8,6.4c4.2,0,8.2,0,12.2,0
			c0.7,0,1.5-0.1,2.2,0c0.7,0.2,2-0.7,2,0.6c0,1.2-0.8,1.9-2.3,1.8c-4.4-0.1-8.8,0-13.2-0.1c-1.5,0-2.3,0.4-2.9,1.8
			c-1,2.5-2.3,5-3.3,7.5c-0.9,2-0.3,2.8,1.9,2.9c4,0,8.1,0.1,12.1,0c2.1-0.1,3.3,0.5,3.6,2.6C255.1,264.7,247.8,264.7,240.4,264.7z"
			/>
		<path d="M214,264.7c2.2-4.8,4.4-9.7,6.6-14.7c-2.5,0-4.8,0-7.1,0c0.1-2,1-2.9,2.9-2.6c0.6,0.1,1.2,0,1.7,0
			c2.2,0.2,3.8-0.1,5.2-2.5c1.7-3,5.3-3.8,8.7-4c3.3-0.2,6.6,0,10,0c-0.2,1.9-1,2.8-3,2.6c-2-0.2-4-0.1-6.1,0
			c-2.5,0.1-3.8,1.1-4.7,3.9c3.1,0,6.1,0,9.2,0c-0.1,2.1-1,2.8-2.9,2.7c-2.5-0.1-5.5-0.8-7.4,0.3c-2,1.1-2.4,4.4-3.5,6.7
			c-1,2.1-2,4.2-2.9,6.3c-0.2,0.4-0.9,0.9-0.1,1.4C218.3,264.7,216.1,264.7,214,264.7z"/>
		<path d="M335.4,264.7c2.2-5.6,5-11,7.4-16.5c0.3-0.8,0.9-0.8,1.6-0.8c5,0,10,0,14.9,0c1.1,0,2.2,0.2,3.1,0.7
			c1.4,0.7,2.5,1.7,1.9,3.4c-0.5,1.6-0.9,3.3-3.3,2.8c-1.1-0.2-2.3,0-3.5,0c1.1-4.3,1.1-3.9-3.4-4.4c-5.1-0.6-7.8,1.2-9.1,6
			c-0.9,3.1-2.9,5.7-3.6,8.9C339.4,264.7,337.4,264.7,335.4,264.7z"/>
		<path d="M183.4,200.4c-0.1,0.2-0.3,0.6-0.6,0.4c-0.3-0.2-0.1-0.6,0.2-0.9C183.2,200.1,183.3,200.2,183.4,200.4z"/>
	</g>
</g>
<g>
</g>
<g>
</g>
<g>
</g>
<g>
</g>
<g>
</g>
<g>
</g>
<g>
</g>
<g>
</g>
<g>
</g>
<g>
</g>
<g>
</g>
<g>
</g>
<g>
</g>
<g>
</g>
<g>
</g>
</svg>
