<?xml version="1.0" encoding="utf-8"?>
<!-- Generator: Adobe Illustrator 21.0.0, SVG Export Plug-In . SVG Version: 6.00 Build 0)  -->
<svg version="1.1" id="Capa_1" xmlns="http://www.w3.org/2000/svg" xmlns:xlink="http://www.w3.org/1999/xlink" x="0px" y="0px"
	 viewBox="0 0 400 400" style="enable-background:new 0 0 400 400;" xml:space="preserve">
<style type="text/css">
	.st0{fill:#40A7DE;}
	.st1{fill:#FAFDFD;}
	.st2{fill:#43A7DC;}
</style>
<g>
	<g>
		<path class="st0" d="M200.3,388.7c-61.5,0-123.1,0-184.6,0.1c-2.5,0-3-0.4-3-3c0.1-123.3,0.1-246.7,0-370c0-2.8,0.8-3.1,3.3-3.1
			c123.2,0.1,246.4,0.1,369.7,0c2.6,0,3.2,0.4,3.2,3.2c-0.1,123.2-0.1,246.4,0,369.7c0,2.9-0.8,3.3-3.4,3.3
			C323.7,388.7,262,388.7,200.3,388.7z M313.7,352.7c5.3-0.2,10.9-0.6,16.3-2.2c13.8-4.1,23.8-12.4,26.1-27.2c2.2-14.1-1-26.7-13-36
			c-7.5-5.7-16-9.4-24.5-13.1c-5-2.2-10.2-4.1-14.6-7.5c-3.9-3-5.3-8-3.8-12.9c1.3-4.1,5.5-7.1,10.3-7.5c7.3-0.6,12.8,2.4,16.7,8.5
			c0.8,1.3,1.4,2.9,3.5,1.4c5.5-3.7,11-7.2,16.7-10.7c1.6-1,1.4-1.9,0.5-3.2c-3.7-5.9-8.3-10.9-14.6-14.1c-9.5-4.9-19.6-5.7-30-3.9
			c-13.7,2.4-24.1,9.6-27.9,23.3c-3.8,13.6-1.6,26.5,9.1,36.8c5.5,5.3,12,8.7,18.9,11.8c6.8,3,13.8,5.5,20.2,9.4
			c4.7,2.9,7.5,6.8,6.8,12.4c-0.7,5.8-4.7,9.1-10,10.4c-12.4,3-23.3,0-31.3-11.8c-1.7-2.5-2.9-2.5-5.1-1.1
			c-4.5,2.8-9.1,5.3-13.6,7.9c-4.8,2.7-4.9,2.7-1.6,7.5C279.5,346.6,295.2,352.1,313.7,352.7z M357,200.7c-1.1-1.8-1.7-2.8-2.4-3.8
			c-6.1-9.2-12.2-18.3-18.4-27.4c-1.3-2-1.4-3,1-4.1c3.9-1.9,7.3-4.5,10.1-7.8c9.8-12.1,10.2-25.9,5.7-39.9
			c-5.3-16.5-20.6-24-38.1-25.5c-11.6-1-23.2-0.4-34.9-0.6c-3.1-0.1-4,1-3.9,4c0.1,15.4,0,30.8,0,46.3c0,18.5,0.1,37-0.1,55.4
			c0,2.7,0.7,3.7,3.5,3.5c5.1-0.2,10.3-0.2,15.4,0c3,0.1,3.7-1.1,3.6-3.8c-0.2-6.4,0.1-12.7-0.1-19.1c-0.1-3.2,0.7-4.8,4.2-4.4
			c2.4,0.3,4.9,0.2,7.3,0c2.3-0.2,3.5,0.8,4.7,2.6c4.7,7.4,9.6,14.8,14.5,22.1c0.7,1.1,1.1,2.5,2.8,2.5
			C340.2,200.7,348.2,200.7,357,200.7z M180.2,146.4c0,17,0,34,0,51c0,2.1,0.1,3.4,2.9,3.4c23.1-0.1,46.2-0.1,69.4,0
			c2,0,2.8-0.6,2.8-2.7c-0.1-4.8-0.1-9.5,0-14.3c0.1-2.4-1-2.9-3.1-2.8c-5.4,0.1-10.8,0-16.1,0c-9.8,0-19.6-0.1-29.4,0
			c-2.5,0-3.9-0.4-3.7-3.4c0.3-2.8,0.3-5.6,0-8.4c-0.3-3.2,1-3.8,4-3.8c12.1,0.2,24.2,0,36.3,0.1c3.1,0,4-0.9,3.8-3.9
			c-0.2-3.9-0.2-7.8,0-11.7c0.2-3.1-0.9-3.9-3.9-3.9c-11.9,0.2-23.7-0.1-35.6,0.1c-3.8,0.1-4.7-1.1-4.6-4.8c0.3-8.4,0.3-16.9,0-25.3
			c-0.2-4,1.3-4.6,4.8-4.6c13.7,0.2,27.4-0.1,41.1,0.1c3.4,0,4.4-1,4.2-4.4c-0.3-3.9-0.3-7.8,0-11.7c0.2-3.1-0.9-3.9-3.9-3.9
			c-21.7,0.1-43.3,0.1-65,0c-3,0-4,0.8-3.9,3.9C180.3,112.4,180.2,129.4,180.2,146.4z M83.3,146c0,17.1,0,34.3,0,51.4
			c0,2.5,0.6,3.5,3.3,3.4c5.4-0.2,10.8-0.2,16.2,0c2.9,0.1,3.5-1,3.4-3.6c-0.2-5.5-0.1-11-0.1-16.5c0-4.8,0-4.8,4.7-4.9
			c5,0,10,0,15-0.8c32.4-4.9,42.8-31.3,34.4-57c-5.3-16.3-20.3-24.4-38.4-25.9c-11.5-1-23-0.3-34.5-0.6c-3.4-0.1-4,1.1-4,4.2
			C83.3,112.5,83.3,129.2,83.3,146z M225.7,272c0,14.3,0.1,28.6,0,42.9c-0.1,10.5-6,15.7-16.2,14.3c-6.2-0.8-9.8-5.1-12.6-10.2
			c-1.3-2.3-2.3-2.9-4.7-1.4c-5,3.3-10.1,6.4-15.4,9.3c-2.9,1.5-2.7,2.9-1.3,5.4c9.2,15.8,24.8,21.3,41.4,20.1
			c10.6-0.7,20.1-4,27.1-12.6c6.1-7.5,7.8-16.5,7.9-25.8c0.2-28.7,0.1-57.5,0.1-86.2c0-2.2-0.8-2.9-3-2.9c-6.2,0.1-12.5,0.3-18.7,0
			c-3.6-0.2-4.8,0.6-4.7,4.5C225.9,243.6,225.7,257.8,225.7,272z M155.2,334.1c-0.1-9.9-8.1-17.8-18.1-17.9
			c-10.1-0.1-18.8,8.5-18.5,18.4c0.3,10.1,8.6,18.1,18.6,17.9C147.3,352.4,155.3,344.2,155.2,334.1z"/>
		<path class="st1" d="M313.7,352.7c-18.4-0.5-34.1-6.1-44.8-21.8c-3.2-4.7-3.2-4.7,1.6-7.5c4.6-2.6,9.2-5.2,13.6-7.9
			c2.2-1.4,3.5-1.4,5.1,1.1c8,11.8,18.8,14.8,31.3,11.8c5.3-1.3,9.3-4.6,10-10.4c0.7-5.6-2.2-9.5-6.8-12.4
			c-6.4-3.9-13.4-6.4-20.2-9.4c-6.8-3.1-13.4-6.5-18.9-11.8c-10.7-10.3-12.9-23.2-9.1-36.8c3.8-13.7,14.2-20.9,27.9-23.3
			c10.3-1.8,20.5-1,30,3.9c6.3,3.2,10.8,8.2,14.6,14.1c0.8,1.3,1.1,2.2-0.5,3.2c-5.6,3.5-11.2,7-16.7,10.7c-2.2,1.5-2.7-0.1-3.5-1.4
			c-3.9-6.1-9.3-9.1-16.7-8.5c-4.8,0.4-9.1,3.4-10.3,7.5c-1.5,4.9,0,9.9,3.8,12.9c4.4,3.4,9.6,5.4,14.6,7.5
			c8.5,3.7,17,7.3,24.5,13.1c12,9.3,15.2,21.9,13,36c-2.3,14.7-12.3,23.1-26.1,27.2C324.6,352,319,352.4,313.7,352.7z"/>
		<path class="st1" d="M357,200.7c-8.7,0-16.8,0-24.8,0c-1.7,0-2.1-1.4-2.8-2.5c-4.9-7.3-9.7-14.7-14.5-22.1
			c-1.2-1.8-2.4-2.8-4.7-2.6c-2.4,0.2-4.9,0.3-7.3,0c-3.5-0.4-4.3,1.1-4.2,4.4c0.2,6.4,0,12.7,0.1,19.1c0.1,2.7-0.6,4-3.6,3.8
			c-5.1-0.2-10.3-0.2-15.4,0c-2.8,0.1-3.5-0.8-3.5-3.5c0.1-18.5,0.1-37,0.1-55.4c0-15.4,0.1-30.8,0-46.3c0-3,0.8-4.1,3.9-4
			c11.6,0.2,23.3-0.4,34.9,0.6c17.5,1.5,32.8,9,38.1,25.5c4.5,14,4.1,27.8-5.7,39.9c-2.7,3.4-6.2,6-10.1,7.8c-2.4,1.1-2.4,2.1-1,4.1
			c6.2,9.1,12.3,18.3,18.4,27.4C355.2,197.9,355.9,198.9,357,200.7z M298.6,132.8c0,6,0.1,12,0,18c-0.1,2.4,0.8,3.2,3.2,3.1
			c3.7-0.2,7.3,0,11-0.2c11-0.6,17.4-5.8,19.1-15.7c0.5-3,0.5-6.1,0.1-9.1c-0.9-7.8-4.8-13.3-12.7-15.7c-5.7-1.7-11.6-1.5-17.4-1.8
			c-2.6-0.1-3.4,1-3.3,3.5C298.7,120.8,298.6,126.8,298.6,132.8z"/>
		<path class="st1" d="M180.2,146.4c0-17,0.1-34-0.1-51c0-3.1,0.9-3.9,3.9-3.9c21.7,0.1,43.3,0.1,65,0c3,0,4.2,0.8,3.9,3.9
			c-0.3,3.9-0.3,7.8,0,11.7c0.2,3.3-0.8,4.4-4.2,4.4c-13.7-0.2-27.4,0-41.1-0.1c-3.5,0-5,0.6-4.8,4.6c0.3,8.4,0.3,16.9,0,25.3
			c-0.1,3.6,0.8,4.8,4.6,4.8c11.9-0.3,23.7,0,35.6-0.1c3,0,4.1,0.8,3.9,3.9c-0.3,3.9-0.2,7.8,0,11.7c0.2,3-0.7,4-3.8,3.9
			c-12.1-0.2-24.2,0-36.3-0.1c-2.9,0-4.3,0.6-4,3.8c0.3,2.8,0.3,5.6,0,8.4c-0.3,3,1.2,3.4,3.7,3.4c9.8-0.1,19.6,0,29.4,0
			c5.4,0,10.8,0.1,16.1,0c2.1,0,3.1,0.4,3.1,2.8c-0.2,4.8-0.1,9.5,0,14.3c0.1,2.1-0.7,2.7-2.8,2.7c-23.1-0.1-46.2-0.1-69.4,0
			c-2.7,0-2.9-1.3-2.9-3.4C180.2,180.4,180.2,163.4,180.2,146.4z"/>
		<path class="st1" d="M83.3,146c0-16.8,0.1-33.5-0.1-50.3c0-3.1,0.6-4.3,4-4.2c11.5,0.3,23-0.4,34.5,0.6c18,1.6,33,9.6,38.4,25.9
			c8.4,25.7-2,52.1-34.4,57c-5,0.8-10,0.7-15,0.8c-4.7,0-4.7,0-4.7,4.9c0,5.5-0.1,11,0.1,16.5c0.1,2.6-0.5,3.7-3.4,3.6
			c-5.4-0.2-10.8-0.2-16.2,0c-2.7,0.1-3.3-0.9-3.3-3.4C83.3,180.3,83.3,163.1,83.3,146z M106,133.4c0,6.5,0.1,13,0,19.5
			c0,2.3,0.6,3.4,3.1,3.2c2.9-0.2,5.9,0.1,8.8-0.1c11.6-0.9,20.8-5.5,21.6-20.1c0.6-11.9-3.5-20.9-16.9-23.5c-4.5-0.9-9-0.8-13.5-1
			c-2.5-0.1-3.1,1-3,3.3C106.1,120.9,106,127.1,106,133.4z"/>
		<path class="st1" d="M225.7,272c0-14.2,0.2-28.4-0.1-42.6c-0.1-3.9,1.2-4.7,4.7-4.5c6.2,0.3,12.5,0.2,18.7,0c2.2,0,3,0.7,3,2.9
			c-0.1,28.7,0.1,57.5-0.1,86.2c-0.1,9.3-1.8,18.3-7.9,25.8c-6.9,8.6-16.5,11.8-27.1,12.6c-16.6,1.2-32.2-4.4-41.4-20.1
			c-1.4-2.5-1.6-3.8,1.3-5.4c5.3-2.8,10.3-6,15.4-9.3c2.4-1.5,3.4-0.9,4.7,1.4c2.8,5.1,6.4,9.3,12.6,10.2
			c10.2,1.4,16.1-3.8,16.2-14.3C225.8,300.6,225.7,286.3,225.7,272z"/>
		<path class="st1" d="M155.2,334.1c0.1,10.1-7.9,18.2-18,18.4c-10,0.2-18.3-7.9-18.6-17.9c-0.3-9.8,8.4-18.5,18.5-18.4
			C147,316.3,155.1,324.2,155.2,334.1z"/>
		<path class="st2" d="M298.6,132.8c0-6,0.1-12,0-18c-0.1-2.5,0.7-3.6,3.3-3.5c5.8,0.3,11.7,0.1,17.4,1.8
			c7.9,2.4,11.8,7.8,12.7,15.7c0.3,3,0.4,6.2-0.1,9.1c-1.7,9.9-8.1,15.1-19.1,15.7c-3.7,0.2-7.3,0-11,0.2c-2.4,0.1-3.3-0.7-3.2-3.1
			C298.7,144.8,298.6,138.8,298.6,132.8z"/>
		<path class="st2" d="M106,133.4c0-6.2,0.1-12.5,0-18.7c0-2.3,0.6-3.3,3-3.3c4.5,0.1,9,0.1,13.5,1c13.4,2.6,17.5,11.6,16.9,23.5
			c-0.7,14.6-9.9,19.2-21.6,20.1c-2.9,0.2-5.9,0-8.8,0.1c-2.5,0.2-3.1-0.9-3.1-3.2C106.1,146.3,106,139.9,106,133.4z"/>
	</g>
</g>
</svg>
