<?xml version="1.0" encoding="utf-8"?>
<!-- Generator: Adobe Illustrator 21.0.0, SVG Export Plug-In . SVG Version: 6.00 Build 0)  -->
<svg version="1.1" id="Capa_1" xmlns="http://www.w3.org/2000/svg" xmlns:xlink="http://www.w3.org/1999/xlink" x="0px" y="0px"
	 viewBox="0 0 400 400" style="enable-background:new 0 0 400 400;" xml:space="preserve">
<style type="text/css">
	.st0{display:none;}
	.st1{display:inline;}
	.st2{fill:#F59425;}
	.st3{fill:#F59628;}
	.st4{fill:#FEFEFD;}
	.st5{fill:#F19937;}
	.st6{fill:#FFFFFF;}
</style>
<g id="Capa_1_1_" class="st0">
	<g class="st1">
		<g>
			<path class="st2" d="M5.8,326c6,0.4,12.1-0.2,18.1,0.7c10,1.4,14.3,6.9,13.5,17.9c-0.5,8.1-6,12.5-15.2,12.6
				c-3.1,0-7.1-1.3-9.2,0.5c-2.2,1.9-0.7,5.8-0.7,8.8c0,2.6-0.8,3.5-3.4,3.2c-1-0.1-2.1,0-3.1,0.1C5.8,355.1,5.8,340.5,5.8,326z
				 M12.2,341.7c0,7.2,0,7.2,7.4,7.2c5.2,0,7.2-1.5,7.6-5.8c0.5-5.2-1.2-7.3-6.4-8.2C12.4,333.4,12.2,333.5,12.2,341.7z"/>
			<path class="st2" d="M398.8,340.5c-4.3,7.9-7.5,16.2-10.6,24.5c-1.9,5.1-5.6,3.2-8.9,3.8c-3.1,0.6-3.2-2-4-3.7
				c-3.6-8.6-7.1-17.3-10.8-25.9c-1.1-2.5-1.1-3.3,2.2-3.6c4.6-0.4,6.8,1.2,8.2,5.4c1.7,5.2,4.2,10.1,6.5,15.8
				c2.4-6.1,4.8-11.4,6.6-17c1.1-3.2,2.7-4.6,6.2-4.1c1.4,0.2,2.9,0.1,4.3,0.2C398.8,337.5,398.8,339,398.8,340.5z"/>
			<path class="st2" d="M238.6,153.4c-16.4,15.2-34.5,20.2-56.4,14.4c12.9-3.6,23.9-8.9,34.9-14.4c15.3-7.7,24.6-24.8,21.7-40.4
				c-3.3-18.2-17.1-31.1-35.3-33.2c-17.9-2-34.7,7.6-41.9,23.8c-7,15.8-2.1,34.2,11.8,45.3c0.7,0.6,1.4,1.1,2.5,2.1
				c-4.5,0.7-8.4-0.4-12.4-0.7c-6-0.5-12-1.4-18-2.1c-1.5-0.2-2.7-0.3-2.9-2.3c-2.6-27-1-53.3,13.3-77.6
				c9.5-16.2,22.3-29.3,38.5-39.2c4.6-2.8,7.6-2.6,12,0.5c30.9,21.6,46.1,51.4,49.4,87.7c1.6,18.1-0.3,35.9-2.9,53.8
				c-0.8,5.6-0.5,11.2-0.4,16.8c0.1,2-0.5,2.9-2.6,2.6c-0.3,0-0.5,0-0.8,0c-4.4-0.3-7.8-0.4-9,5.6c-1.5,6.9-9.5,11.4-16.7,11.1
				c-7.8-0.3-14.8-5.2-16.6-12.5c-0.8-3.3-2.2-4.3-5.3-3.8c-0.5,0.1-1.1,0-1.6,0c-5.2-0.4-9.3-0.6-11.1,6.3
				c-1.8,6.7-10.1,10.6-17,9.9c-7.7-0.7-14-5.6-15.8-12.9c-0.7-2.8-2-3.6-4.6-3.1c-4.2,0.8-5.3-1-5-4.9c0.3-3.4,0-6.9-0.3-10.3
				c-0.1-1.6,0-2.3,1.8-2.6c4-0.6,8-1.4,12-2.1c1.2-0.2,2.5-0.5,2.4,1.4c-0.2,2.4,1.2,2.6,3.2,2.6c22.5-0.2,45-0.3,67.6-0.5
				c1.1,0,2.6,0.4,2.9-1.2C236.9,167,237.6,160.8,238.6,153.4z M224.8,73c0.1,0.2,0.3,0.3,0.4,0.5c0.3-0.3,0.2-0.6-0.2-0.7
				c-5.5-10.9-14.1-19.2-23.6-26.8c-1.7-1.3-2.8-0.6-4.1,0.4c-6,4.4-11.6,9.2-16.4,14.9c-3,3.6-6.1,7.1-8.2,11.4
				c0.4,0.2,0.5,0.3,0.6,0.3c0.7-0.3,1.5-0.5,2.2-0.9c7.4-3.5,15.3-5.1,23.6-5.2C208.2,66.7,216.6,69.4,224.8,73z M223.9,190.4
				c-3,0-6,0.1-9.1,0c-2.5-0.1-2.5,1-1.9,2.8c1.4,4.3,6.4,7.9,11.1,7.7c4.7-0.1,9.6-3.9,10.8-8.2c0.5-1.7,0-2.3-1.8-2.3
				C230,190.5,227,190.4,223.9,190.4z M161.9,190.6c1,6.1,5,9.9,10.6,10.3c4.8,0.3,10-3.3,11.4-7.9c0.4-1.4,0.7-2.4-1.4-2.4
				C175.6,190.6,168.8,190.6,161.9,190.6z"/>
			<path class="st3" d="M164.9,244.3c4.2,2.5,8.4,4.9,12.4,7.4c1.3,0.8,2,0.4,3.1-0.4c6.1-4.6,10.6-4.8,17.3-0.7
				c1.2,0.7,2,0.7,3.1,0.1c4.5-2.7,8.9-5.4,13.5-8c1.3-0.8,1.7-1.5,1.5-3.1c-0.8-5.7,2.2-10.4,7.3-12.1c4.9-1.6,10.5,0.1,13.3,4.1
				c3,4.2,2.5,10.1-1.1,13.8c-3.8,3.9-9.2,4.7-14.4,1.7c-1.7-1-2.8-0.7-4.2,0.2c-2.4,1.5-4.9,2.9-7.4,4.4c-7,4.1-6.9,4.1-6.8,12.1
				c0,1.8,1.2,2.1,2.3,2.7c5.5,3,11.1,5.9,16.6,8.9c1.4,0.7,2.8,1.9,4.1,0.1c1.5-2,5.2-2.4,4.3-6.4c-2-8.5,3-15.3,11.5-16.2
				c7.4-0.8,14.3,4.7,14.3,11.9c0,2.7,1.2,3.8,3.4,4.8c10.8,5.3,21.6,10.5,32.4,15.9c2,1,3.2,1.1,4.9-0.8c6.6-7.3,17.3-8.6,25.4-3.4
				c8.2,5.3,11.1,15.4,6.9,24s-14.1,12.9-23.5,10.1s-15.2-11.6-13.6-21.1c0.4-2.2-0.1-3.1-2.1-4c-11-5.3-21.8-10.7-32.7-16.1
				c-1.9-1-3.1-1.4-5,0.5c-4.2,4.2-10.1,5-15.6,2.1c-2.2-1.2-3.5-0.8-5.1,0.7c-1.7,1.7-3.6,3.4-5.5,4.9c-4.1,3.3-7.1,6.2-5.3,12.6
				c2,7-4.2,14.6-11.7,17c-7.7,2.4-16-0.7-20.1-7.5c-4-6.6-2.8-15,2.8-20.4c5.9-5.5,14.5-6.4,21.5-2.2c1.1,0.7,1.9,2.6,3.6,1.5
				c1.1-0.7,2.4-1.6,2.7-2.7c0.3-1.2-1.5-1.5-2.5-2c-4.8-2.6-9.7-5.2-14.5-7.8c-1.7-1-3-1.2-4.9,0.1c-4.6,3.3-9.6,3.4-14.4,0.6
				c-4.7-2.7-6.9-7-6.3-12.3c0.2-1.7-0.3-2.5-1.8-3.3c-4.7-2.6-9.2-5.5-13.9-8.1c-3.4-1.9-8.5,0.9-8.7,4.7
				c-0.5,8.7-9.8,13.6-17.5,8.9c-1.9-1.2-3.3-1.3-5.3-0.3c-7.7,4-15.3,7.9-23.1,11.6c-2.6,1.3-3.4,2.7-3.3,5.6
				c0.2,7.8-5.9,14-14,14.9c-7.4,0.8-14.7-4.4-16.3-11.7c-1.7-7.4,2.6-14.9,10.2-17.3c6-1.9,11.5-0.7,15.9,3.8
				c1.2,1.2,2,1.8,3.9,0.9c8.1-4.2,16.3-8.3,24.5-12.3c1.8-0.9,2.4-1.9,2.3-3.8c-0.2-4.6,1.9-8.2,6.1-10.3c4.2-2.1,8.5-1.8,12.2,1.1
				c1.7,1.3,3.1,1.4,4.9,0.3c2.3-1.3,4.7-2.4,7.1-3.4c3.6-1.6,6.6-3,7.1-7.9c0.5-5,7.2-7.5,12.3-5.7c5,1.9,7.5,7.6,5.3,12.3
				s-8.3,6.9-13,4.4C168.8,242.5,167,241.9,164.9,244.3z M310.9,283.7c-7.9,0-14.2,5.8-14.2,13.4c-0.1,8,6.2,14.3,14.3,14.2
				c7.6-0.1,14.1-6.4,14.2-13.7C325.3,290,318.9,283.7,310.9,283.7z M203.3,307.7c6.4,0,11.9-5.1,12-11.3c0.1-6.2-5.5-11.7-12-11.7
				s-11.7,5-11.8,11.3C191.4,302.5,196.6,307.6,203.3,307.7z M77.6,278.3c-0.1,5.4,4.2,9.9,9.7,10c5.3,0.2,10.2-4.3,10.3-9.5
				c0.1-5.3-4.3-9.8-9.8-10C82.3,268.6,77.7,272.9,77.6,278.3z M242.4,257.9c-4.3,0.1-8,3.9-7.9,8c0.1,4.2,4,7.8,8.3,7.6
				c4.1-0.2,7.7-3.8,7.8-7.8C250.5,261.6,246.6,257.8,242.4,257.9z M189.4,253c-4.5,0.1-8.1,3.6-7.9,7.8c0.1,4.1,4,7.7,8.3,7.6
				c4.2-0.1,7.6-3.6,7.6-7.7C197.4,256.4,193.9,253,189.4,253z M227.1,243.8c3.1,0,6-2.9,6-5.9c0-3.2-3.1-6.1-6.4-5.9
				c-3.1,0.1-5.9,3.1-5.8,6.1C221,241.2,223.9,243.8,227.1,243.8z M146.8,252.4c0-3.2-2.7-5.9-5.9-6c-3.1-0.1-6.2,2.7-6.2,5.7
				c0,3.2,3,6.3,6.2,6.2C144,258.3,146.7,255.6,146.8,252.4z M175.4,239.6c2.5,0,4.1-1.4,4.2-3.7c0.2-2.5-1.4-4.1-4-4.2
				c-2.7-0.1-4.2,1.7-4.3,4C171.3,238,172.9,239.4,175.4,239.6z"/>
			<path class="st3" d="M100.7,178.8c3.6-6,7.6-11.7,13.4-15.8c1.7-1.2,1.5-1.8,0.2-3.1c-2.5-2.4-3.4-5.6-4.2-8.9
				c-0.7-2.8-0.3-3.8,3.1-3.6c11.3,0.7,22.4,3.2,33.5,5c13.5,2.1,27.1,4,40.8,2c1.5-0.2,3.1-0.7,4.8-1.1c-1.9-2-4.4-1.8-6.5-2.8
				c-3.5-1.7-4.5-10.4-1.4-12.7c2-1.5,2.1-1.5-0.5-3.5c-3.3-2.5-5.2-5.6-5.1-9.9c0.1-4.7-0.1-9.4-0.2-14.2c0-2.6,0.4-5.1-2.6-7
				c-2.5-1.5-0.9-4.6-1.2-7.4c-1.9,5-1.4,7,2.4,9.9c1.3,1,0.4,1.8,0.3,2.7c-0.9,8.9-2.1,17.8,2.5,26.2c0.3,0.6,0.4,1.5,0.4,2.2
				c0,1,0.1,2.2-1.1,2.6c-1.3,0.4-1.9-0.7-2.4-1.5c-3.6-6.1-5.8-12.6-6-19.6c-0.1-5.9,0.5-11.7,0.7-17.6c0.2-5.8,10.9-16.1,17.8-17
				c7.1-1,14.2-0.4,21.3,0.7c6.7,1.1,9,6.5,11.5,11.3c2,3.8-0.4,6.2-4.8,5.4c-4-0.7-7.9-1.9-11.7-3.4c-1.1-0.4-2.2-1.6-3.9-0.7
				c3.8,2.8,8.3,4.1,12.8,4.7c3.3,0.4,3.9,1.7,3.9,4.6c0,5.4,0.5,10.8,1.3,16.3c1.4-3.9,0.8-8,0.6-12c-0.1-1.4-0.4-2.8-0.6-4.2
				c-0.2-1.7-1.4-3.6,2-4c1.7-0.2,2-2.5,1.9-4.2c-0.1-1.9-0.5-3.7-0.8-5.7c1.6,0.3,1.7,1.6,1.8,2.5c1.5,11.7,3.3,23.3-1.3,34.8
				c-0.7,1.7-1.5,3.3-2.3,4.8c-0.5,1-1.2,2.3-2.6,1.9c-1.6-0.5-1.2-2.1-1.1-3.3c0.1-2.3,2.4-4,1.7-6.7c-1.5,4.9-6.5,6.6-9.6,10
				c-0.4,0.1-0.9,0.3-1.3,0.4c0.1,0.1,0.2,0.2,0.3,0.2c0.5,0.1,1,0.1,1.2-0.4c6.9-2.3,6.9-2.3,6.9,5c0,8.4-0.4,9.2-8.6,12.3
				c-14.6,5.5-29.8,9.2-45.4,10.8c-20,2-39.5,5.9-58.2,13.1C103.5,178.4,102.2,179.4,100.7,178.8L100.7,178.8z M196.3,94.4
				c0.3-0.3,0.7-0.6,1-0.9c-0.2-0.1-0.4-0.2-0.5-0.2C196.4,93.6,196.1,93.9,196.3,94.4c-0.7,0.1-1,0.5-1,1.2c0,0.1,0.2,0.2,0.3,0.2
				C196.5,95.7,196.2,95,196.3,94.4z M205.8,110.3c1.1-3.5,0.6-4.6-1.9-5.7c-2-0.8-3.3,0.3-4.6,1.3c-4.9,3.6-10,5.1-15.7,1.9
				c-2.1-1.2-2.1,0.4-2.1,1.7c0.1,5.1,0.5,10.2,0.4,15.3c0,3.3,1.6,5.5,4.1,7.4c10.5,7.8,13.8,7.8,24.3,0c1-0.8,2-1.6,3.1-2.4
				c2.3-1.7,3.3-4.1,3.3-6.7c-0.1-5.4-0.5-10.8-0.8-16.7C212.5,108,209.7,109.9,205.8,110.3z M221.2,95.2c-4.5,3.9-8.2,0.4-12-1
				c-3.9-1.4-8-3-8.5-8.7c-1.3,4-1.1,6,1,7.3c5.1,3.2,10.8,5.3,16.8,6.3C221.4,99.5,222.1,98,221.2,95.2z M176.9,101
				c4.9,2.1,17.8-6.3,17.6-11.7C190.1,95.3,183.1,97.5,176.9,101z M183.2,102.6c4.5-1,8.7-2.7,12.2-6.2c-0.8-0.2-1.1-0.3-1.2-0.3
				C190.6,98.3,186.9,100.4,183.2,102.6z"/>
			<path class="st2" d="M281,347.5c0-6.3,0.1-12.5,0-18.8c0-2,0.6-2.7,2.7-2.7c6,0.2,12.1-0.1,18.1,0.3
				c11.7,0.8,19.9,10.1,19.4,21.9c-0.5,12.7-8.4,20.7-20.8,20.8c-5.4,0-10.8-0.1-16.2,0.1c-2.7,0.1-3.3-0.8-3.2-3.3
				C281.1,359.7,281,353.6,281,347.5z M290.8,347.4c0,1.7,0,3.3,0,5c0,8.7,0,8.7,9.1,7.9c6-0.5,10.4-4.3,11.2-9.6
				c1-6.9-1.9-13.1-7.3-15c-3.2-1.1-6.7-0.7-10.1-1.1c-2.2-0.2-2.8,0.5-2.8,2.5C290.8,340.5,290.8,344,290.8,347.4z"/>
			<path class="st3" d="M221.2,216.5c-7.6-0.2-15.3-4.4-20.4-13c-0.6-1.1-0.8-2.6-2.5-2.6s-1.9,1.6-2.5,2.6
				c-5.7,9.6-16,14.5-27.3,12.7c-10.3-1.6-18.8-9.6-20.8-19.5c-0.6-3-0.2-4.3,3.5-4.3c3,0.1,2.6,1.8,2.9,3.4c2,8.3,9,14,17.7,14.4
				c8.9,0.4,17.4-4.4,19.2-12.2c1.2-5.2,3.7-5.6,8.2-5.6c3.8,0,5.3,0.8,6.1,4.6c1.6,7.9,9.9,13.4,18.9,13.3
				c8.9-0.1,16.3-5.9,18.4-14.1c0.4-1.4-0.5-3.7,2.6-3.7c4.2,0,4.6,0.2,3.8,4.2C246.5,208.5,236.4,216.4,221.2,216.5z"/>
			<path class="st3" d="M238.4,356c0,3.2,0.1,6.4,0,9.6c-0.1,1.3,1,3.6-1.4,3.7c-2.3,0.1-5.5,1.5-6.8-1c-1.1-2.2-1.8-1-2.8-0.5
				c-2.9,1.3-5.9,2.1-9.2,1.7c-5.5-0.6-9.1-3.4-9.9-7.8c-1.1-5.5,1-9.2,6.3-11.9c3.7-1.9,7.6-1.6,11.6-1.7c0.9,0,2.3,0.7,2.7-0.7
				c0.3-1-0.4-2-1.1-2.7c-2.5-2.3-5.5-2.2-8.5-1.5c-1.1,0.3-2.4,0.6-3.2,1.3c-3.5,2.8-4-0.6-5.3-2.3c-1.9-2.4,0.2-3.1,1.8-3.9
				c5.5-2.7,11.3-4.2,17.5-2.5c5.4,1.5,8.5,5.6,8.5,11c0,3.1,0,6.1,0,9.2C238.3,356,238.4,356,238.4,356z M226.2,355.4
				c-1.9,0.1-3.7,0.3-5.5,0.4c-1.4,0.1-2.6,0.6-2.9,2.1c-0.3,1.5,0.4,2.7,1.7,3.5c3,1.9,7.2,0.4,8.6-3.1
				C228.9,356.5,229.4,354.8,226.2,355.4z"/>
			<path class="st2" d="M348.4,355.9c-3.2,0-6.3,0-9.5,0c-2.1,0-2.1,0.9-1.4,2.4c2.2,4.6,8.8,6.3,13.5,2.7c4-2.9,4.4,1,5.8,2.4
				c2.2,2.1-0.8,2.7-1.8,3.4c-6.6,4.2-16.3,3.7-22.1-1c-5.6-4.5-7.5-13.7-4.4-20.7c3.2-7.1,12.5-11,21-8.7c8,2.2,12.3,8.9,11.2,17.4
				c-0.2,1.6-0.8,2.2-2.5,2.2C355,355.8,351.7,355.9,348.4,355.9z M344.5,349c1.4,0,2.9-0.1,4.3,0c2.7,0.2,2.4-1.1,1.5-2.7
				c-2.2-3.7-8.9-4.1-11.5-0.6c-0.6,0.8-1.4,1.7-0.8,2.8c0.6,0.9,1.7,0.4,2.5,0.4C341.9,349,343.2,349,344.5,349z"/>
			<path class="st2" d="M164.2,355.9c-3,0-6.1,0.1-9.1,0s-2.6,1.2-1.5,3c2.5,4.2,8.7,5.5,13.1,2.2c4.1-3.1,4.7,1.1,6,2.5
				c1.9,2.1-1.1,2.6-2.2,3.3c-6.7,4.2-16.2,3.5-22.1-1.3c-5.2-4.3-7.1-12.8-4.4-19.7c2.9-7.6,12-11.8,20.8-9.7
				c8.2,2,12.8,9,11.7,17.5c-0.2,1.8-1,2.3-2.8,2.3C170.5,355.8,167.4,355.9,164.2,355.9z M160.2,349c1.3,0,2.6,0.1,3.9,0
				c0.9,0,2.1,0.5,2.5-0.5c0.5-1-0.3-1.9-0.9-2.8c-2.5-3.2-8.6-3.3-11.1-0.1c-0.6,0.8-1.3,1.7-0.8,2.8c0.5,1,1.6,0.5,2.5,0.5
				C157.5,349,158.9,349,160.2,349z"/>
			<path class="st3" d="M96.9,352.9c0,9.8-7.9,17.4-18,17.4c-9.9,0-17.8-7.8-17.7-17.7c0-9.6,7.9-17.2,17.8-17.2
				C89,335.4,96.9,343.1,96.9,352.9z M78.9,343.7c-4.9,0-9.1,4-9,8.8c0,4.6,4.1,8.6,8.7,8.7c4.7,0.1,9.2-4,9.3-8.6
				C88,348,83.7,343.8,78.9,343.7z"/>
			<path class="st3" d="M104.5,352.4c0-4.5,0.1-8.9,0-13.4c-0.1-2.4,0.9-3.5,3.2-2.9c2,0.5,5.1-2,6,2.1c0.3,1.2,1.7-0.2,2.4-0.7
				c5-3.3,10-2.8,14.8,0.2c3,1.9,4.7,4.7,4.7,8.4c0,6.5-0.1,13,0,19.5c0.1,2.5-0.6,3.3-3.3,3.2c-8.1-0.3-6.6,1-6.8-6.4
				c-0.1-4.6,0-9.2,0-13.8c0-4-1.5-5.6-5.1-5.7c-3.9-0.1-6.9,2.2-7,5.7c-0.1,5.7-0.3,11.5,0.1,17.2c0.2,3.9-2.3,3.1-4.5,3.1
				c-2.3,0-4.8,0.7-4.5-3.2C104.8,361.4,104.5,356.9,104.5,352.4z"/>
			<path class="st3" d="M259.2,369.9c-4.6,0-8.9-1-12.6-3.7c-1.2-0.9-2.6-1.8-0.8-3.3c1.5-1.2,1.6-4.7,4.9-2.9c2.6,1.5,5.2,3,8.4,3
				c1.7,0,3.7,0.1,4.4-1.8c0.8-2.1-1.1-3-2.6-3.7c-2.6-1.3-5.3-2.2-7.9-3.3c-7.4-3.2-8.5-10.7-2.4-15.9c5.2-4.4,16.3-4.1,20.8,0.8
				c2,2.2-1.2,3.7-1.8,5.5c-0.5,1.8-1.7,0.9-2.7,0.2c-2.1-1.5-4.4-2.3-7-2.2c-1.5,0.1-3.1,0.4-3.4,2.1c-0.3,1.5,1,2.3,2.2,2.8
				c1.3,0.5,2.7,0.9,4.1,1.4c7.7,2.4,11,6.1,10.1,11.6C271.9,366.5,266.7,370.1,259.2,369.9z"/>
			<path class="st3" d="M193.3,339.2c1.3,0.2,1.5-0.6,2-0.9c2-1.6,4.7-3.6,6.6-2.4c2,1.3,0.5,4.7,0.8,7.2c0.1,1.4-1,1.1-1.9,1.3
				c-5,1-6.7,2.6-7.1,7.6c-0.4,4.6-0.7,9.2-0.5,13.7c0.1,3.3-1.3,4.2-4.1,3.6c-1.8-0.4-5.1,1.7-5.2-2c-0.2-9.8-0.1-19.6-0.1-29.5
				c0-1.4,0.5-2.1,2.1-2.1c1.2,0,2.4,0,3.6,0C191.9,335.7,194.6,335.4,193.3,339.2z"/>
			<path class="st2" d="M53.2,352.4c0,4.6-0.1,9.2,0,13.8c0.1,2-0.6,2.6-2.7,2.6c-6,0.1-6,0.2-6-5.5c0-7.7,0.2-15.3-0.1-23
				c-0.1-3.4,0.9-4.3,4.3-4.3c3.6,0,4.8,0.9,4.5,4.5C53,344.5,53.2,348.5,53.2,352.4z"/>
			<path class="st3" d="M54.7,328.1c0.1,2.9-2.4,5.4-5.4,5.4s-5.6-2.5-5.4-5.3c0.2-3.1,2-4.9,5.2-5.1
				C52,322.8,54.6,325.3,54.7,328.1z"/>
			<path class="st3" d="M100.6,178.7c0,0.2,0,0.3-0.1,0.5C99.9,178.9,100.6,178.9,100.6,178.7C100.7,178.8,100.6,178.7,100.6,178.7z
				"/>
			<path class="st4" d="M225,72.8c0.4,0.1,0.5,0.4,0.2,0.7c-0.1-0.2-0.3-0.3-0.4-0.5L225,72.8z"/>
			<path class="st4" d="M171.3,235.7"/>
			<path class="st4" d="M179.6,235.9"/>
			<path class="st4" d="M183.2,102.6c3.7-2.2,7.3-4.3,11-6.5c0.1-0.1,0.5,0.1,1.2,0.3C191.9,99.9,187.8,101.5,183.2,102.6z"/>
			<path class="st4" d="M196.4,94.5c-0.3-0.5,0-0.9,0.5-1.2c0.1-0.1,0.3,0.1,0.5,0.2C197,93.8,196.7,94.1,196.4,94.5
				C196.3,94.4,196.4,94.5,196.4,94.5z"/>
			<path class="st4" d="M210,136.8c-0.3,0.5-0.7,0.6-1.2,0.4c-0.1,0-0.2-0.2-0.3-0.2c0.4-0.1,0.9-0.3,1.3-0.4L210,136.8z"/>
		</g>
	</g>
</g>
<g id="Capa_2">
	<g>
		<g>
			<path class="st5" d="M5.8,326c6,0.4,12.1-0.2,18.1,0.7c10,1.4,14.3,6.9,13.5,17.9c-0.5,8.1-6,12.5-15.2,12.6
				c-3.1,0-7.1-1.3-9.2,0.5c-2.2,1.9-0.7,5.8-0.7,8.8c0,2.6-0.8,3.5-3.4,3.2c-1-0.1-2.1,0-3.1,0.1C5.8,355.1,5.8,340.5,5.8,326z
				 M12.2,341.7c0,7.2,0,7.2,7.4,7.2c5.2,0,7.2-1.5,7.6-5.8c0.5-5.2-1.2-7.3-6.4-8.2C12.4,333.4,12.2,333.5,12.2,341.7z"/>
			<path class="st5" d="M398.8,340.5c-4.3,7.9-7.5,16.2-10.6,24.5c-1.9,5.1-5.6,3.2-8.9,3.8c-3.1,0.6-3.2-2-4-3.7
				c-3.6-8.6-7.1-17.3-10.8-25.9c-1.1-2.5-1.1-3.3,2.2-3.6c4.6-0.4,6.8,1.2,8.2,5.4c1.7,5.2,4.2,10.1,6.5,15.8
				c2.4-6.1,4.8-11.4,6.6-17c1.1-3.2,2.7-4.6,6.2-4.1c1.4,0.2,2.9,0.1,4.3,0.2C398.8,337.5,398.8,339,398.8,340.5z"/>
			<path d="M238.6,153.4c-16.4,15.2-34.5,20.2-56.4,14.4c12.9-3.6,23.9-8.9,34.9-14.4c15.3-7.7,24.6-24.8,21.7-40.4
				c-3.3-18.2-17.1-31.1-35.3-33.2c-17.9-2-34.7,7.6-41.9,23.8c-7,15.8-2.1,34.2,11.8,45.3c0.7,0.6,1.4,1.1,2.5,2.1
				c-4.5,0.7-8.4-0.4-12.4-0.7c-6-0.5-12-1.4-18-2.1c-1.5-0.2-2.7-0.3-2.9-2.3c-2.6-27-1-53.3,13.3-77.6
				c9.5-16.2,22.3-29.3,38.5-39.2c4.6-2.8,7.6-2.6,12,0.5c30.9,21.6,46.1,51.4,49.4,87.7c1.6,18.1-0.3,35.9-2.9,53.8
				c-0.8,5.6-0.5,11.2-0.4,16.8c0.1,2-0.5,2.9-2.6,2.6c-0.3,0-0.5,0-0.8,0c-4.4-0.3-7.8-0.4-9,5.6c-1.5,6.9-9.5,11.4-16.7,11.1
				c-7.8-0.3-14.8-5.2-16.6-12.5c-0.8-3.3-2.2-4.3-5.3-3.8c-0.5,0.1-1.1,0-1.6,0c-5.2-0.4-9.3-0.6-11.1,6.3
				c-1.8,6.7-10.1,10.6-17,9.9c-7.7-0.7-14-5.6-15.8-12.9c-0.7-2.8-2-3.6-4.6-3.1c-4.2,0.8-5.3-1-5-4.9c0.3-3.4,0-6.9-0.3-10.3
				c-0.1-1.6,0-2.3,1.8-2.6c4-0.6,8-1.4,12-2.1c1.2-0.2,2.5-0.5,2.4,1.4c-0.2,2.4,1.2,2.6,3.2,2.6c22.5-0.2,45-0.3,67.6-0.5
				c1.1,0,2.6,0.4,2.9-1.2C236.9,167,237.6,160.8,238.6,153.4z M224.8,73c0.1,0.2,0.3,0.3,0.4,0.5c0.3-0.3,0.2-0.6-0.2-0.7
				c-5.5-10.9-14.1-19.2-23.6-26.8c-1.7-1.3-2.8-0.6-4.1,0.4c-6,4.4-11.6,9.2-16.4,14.9c-3,3.6-6.1,7.1-8.2,11.4
				c0.4,0.2,0.5,0.3,0.6,0.3c0.7-0.3,1.5-0.5,2.2-0.9c7.4-3.5,15.3-5.1,23.6-5.2C208.2,66.7,216.6,69.4,224.8,73z M223.9,190.4
				c-3,0-6,0.1-9.1,0c-2.5-0.1-2.5,1-1.9,2.8c1.4,4.3,6.4,7.9,11.1,7.7c4.7-0.1,9.6-3.9,10.8-8.2c0.5-1.7,0-2.3-1.8-2.3
				C230,190.5,227,190.4,223.9,190.4z M161.9,190.6c1,6.1,5,9.9,10.6,10.3c4.8,0.3,10-3.3,11.4-7.9c0.4-1.4,0.7-2.4-1.4-2.4
				C175.6,190.6,168.8,190.6,161.9,190.6z"/>
			<path d="M164.9,244.3c4.2,2.5,8.4,4.9,12.4,7.4c1.3,0.8,2,0.4,3.1-0.4c6.1-4.6,10.6-4.8,17.3-0.7c1.2,0.7,2,0.7,3.1,0.1
				c4.5-2.7,8.9-5.4,13.5-8c1.3-0.8,1.7-1.5,1.5-3.1c-0.8-5.7,2.2-10.4,7.3-12.1c4.9-1.6,10.5,0.1,13.3,4.1c3,4.2,2.5,10.1-1.1,13.8
				c-3.8,3.9-9.2,4.7-14.4,1.7c-1.7-1-2.8-0.7-4.2,0.2c-2.4,1.5-4.9,2.9-7.4,4.4c-7,4.1-6.9,4.1-6.8,12.1c0,1.8,1.2,2.1,2.3,2.7
				c5.5,3,11.1,5.9,16.6,8.9c1.4,0.7,2.8,1.9,4.1,0.1c1.5-2,5.2-2.4,4.3-6.4c-2-8.5,3-15.3,11.5-16.2c7.4-0.8,14.3,4.7,14.3,11.9
				c0,2.7,1.2,3.8,3.4,4.8c10.8,5.3,21.6,10.5,32.4,15.9c2,1,3.2,1.1,4.9-0.8c6.6-7.3,17.3-8.6,25.4-3.4c8.2,5.3,11.1,15.4,6.9,24
				s-14.1,12.9-23.5,10.1s-15.2-11.6-13.6-21.1c0.4-2.2-0.1-3.1-2.1-4c-11-5.3-21.8-10.7-32.7-16.1c-1.9-1-3.1-1.4-5,0.5
				c-4.2,4.2-10.1,5-15.6,2.1c-2.2-1.2-3.5-0.8-5.1,0.7c-1.7,1.7-3.6,3.4-5.5,4.9c-4.1,3.3-7.1,6.2-5.3,12.6c2,7-4.2,14.6-11.7,17
				c-7.7,2.4-16-0.7-20.1-7.5c-4-6.6-2.8-15,2.8-20.4c5.9-5.5,14.5-6.4,21.5-2.2c1.1,0.7,1.9,2.6,3.6,1.5c1.1-0.7,2.4-1.6,2.7-2.7
				c0.3-1.2-1.5-1.5-2.5-2c-4.8-2.6-9.7-5.2-14.5-7.8c-1.7-1-3-1.2-4.9,0.1c-4.6,3.3-9.6,3.4-14.4,0.6c-4.7-2.7-6.9-7-6.3-12.3
				c0.2-1.7-0.3-2.5-1.8-3.3c-4.7-2.6-9.2-5.5-13.9-8.1c-3.4-1.9-8.5,0.9-8.7,4.7c-0.5,8.7-9.8,13.6-17.5,8.9
				c-1.9-1.2-3.3-1.3-5.3-0.3c-7.7,4-15.3,7.9-23.1,11.6c-2.6,1.3-3.4,2.7-3.3,5.6c0.2,7.8-5.9,14-14,14.9
				c-7.4,0.8-14.7-4.4-16.3-11.7c-1.7-7.4,2.6-14.9,10.2-17.3c6-1.9,11.5-0.7,15.9,3.8c1.2,1.2,2,1.8,3.9,0.9
				c8.1-4.2,16.3-8.3,24.5-12.3c1.8-0.9,2.4-1.9,2.3-3.8c-0.2-4.6,1.9-8.2,6.1-10.3c4.2-2.1,8.5-1.8,12.2,1.1
				c1.7,1.3,3.1,1.4,4.9,0.3c2.3-1.3,4.7-2.4,7.1-3.4c3.6-1.6,6.6-3,7.1-7.9c0.5-5,7.2-7.5,12.3-5.7c5,1.9,7.5,7.6,5.3,12.3
				s-8.3,6.9-13,4.4C168.8,242.5,167,241.9,164.9,244.3z M310.9,283.7c-7.9,0-14.2,5.8-14.2,13.4c-0.1,8,6.2,14.3,14.3,14.2
				c7.6-0.1,14.1-6.4,14.2-13.7C325.3,290,318.9,283.7,310.9,283.7z M203.3,307.7c6.4,0,11.9-5.1,12-11.3c0.1-6.2-5.5-11.7-12-11.7
				s-11.7,5-11.8,11.3C191.4,302.5,196.6,307.6,203.3,307.7z M77.6,278.3c-0.1,5.4,4.2,9.9,9.7,10c5.3,0.2,10.2-4.3,10.3-9.5
				c0.1-5.3-4.3-9.8-9.8-10C82.3,268.6,77.7,272.9,77.6,278.3z M242.4,257.9c-4.3,0.1-8,3.9-7.9,8c0.1,4.2,4,7.8,8.3,7.6
				c4.1-0.2,7.7-3.8,7.8-7.8C250.5,261.6,246.6,257.8,242.4,257.9z M189.4,253c-4.5,0.1-8.1,3.6-7.9,7.8c0.1,4.1,4,7.7,8.3,7.6
				c4.2-0.1,7.6-3.6,7.6-7.7C197.4,256.4,193.9,253,189.4,253z M227.1,243.8c3.1,0,6-2.9,6-5.9c0-3.2-3.1-6.1-6.4-5.9
				c-3.1,0.1-5.9,3.1-5.8,6.1C221,241.2,223.9,243.8,227.1,243.8z M146.8,252.4c0-3.2-2.7-5.9-5.9-6c-3.1-0.1-6.2,2.7-6.2,5.7
				c0,3.2,3,6.3,6.2,6.2C144,258.3,146.7,255.6,146.8,252.4z M175.4,239.6c2.5,0,4.1-1.4,4.2-3.7c0.2-2.5-1.4-4.1-4-4.2
				c-2.7-0.1-4.2,1.7-4.3,4C171.3,238,172.9,239.4,175.4,239.6z"/>
			<path d="M100.7,178.8c3.6-6,7.6-11.7,13.4-15.8c1.7-1.2,1.5-1.8,0.2-3.1c-2.5-2.4-3.4-5.6-4.2-8.9c-0.7-2.8-0.3-3.8,3.1-3.6
				c11.3,0.7,22.4,3.2,33.5,5c13.5,2.1,27.1,4,40.8,2c1.5-0.2,3.1-0.7,4.8-1.1c-1.9-2-4.4-1.8-6.5-2.8c-3.5-1.7-4.5-10.4-1.4-12.7
				c2-1.5,2.1-1.5-0.5-3.5c-3.3-2.5-5.2-5.6-5.1-9.9c0.1-4.7-0.1-9.4-0.2-14.2c0-2.6,0.4-5.1-2.6-7c-2.5-1.5-0.9-4.6-1.2-7.4
				c-1.9,5-1.4,7,2.4,9.9c1.3,1,0.4,1.8,0.3,2.7c-0.9,8.9-2.1,17.8,2.5,26.2c0.3,0.6,0.4,1.5,0.4,2.2c0,1,0.1,2.2-1.1,2.6
				c-1.3,0.4-1.9-0.7-2.4-1.5c-3.6-6.1-5.8-12.6-6-19.6c-0.1-5.9,0.5-11.7,0.7-17.6c0.2-5.8,10.9-16.1,17.8-17
				c7.1-1,14.2-0.4,21.3,0.7c6.7,1.1,9,6.5,11.5,11.3c2,3.8-0.4,6.2-4.8,5.4c-4-0.7-7.9-1.9-11.7-3.4c-1.1-0.4-2.2-1.6-3.9-0.7
				c3.8,2.8,8.3,4.1,12.8,4.7c3.3,0.4,3.9,1.7,3.9,4.6c0,5.4,0.5,10.8,1.3,16.3c1.4-3.9,0.8-8,0.6-12c-0.1-1.4-0.4-2.8-0.6-4.2
				c-0.2-1.7-1.4-3.6,2-4c1.7-0.2,2-2.5,1.9-4.2c-0.1-1.9-0.5-3.7-0.8-5.7c1.6,0.3,1.7,1.6,1.8,2.5c1.5,11.7,3.3,23.3-1.3,34.8
				c-0.7,1.7-1.5,3.3-2.3,4.8c-0.5,1-1.2,2.3-2.6,1.9c-1.6-0.5-1.2-2.1-1.1-3.3c0.1-2.3,2.4-4,1.7-6.7c-1.5,4.9-6.5,6.6-9.6,10
				c-0.4,0.1-0.9,0.3-1.3,0.4c0.1,0.1,0.2,0.2,0.3,0.2c0.5,0.1,1,0.1,1.2-0.4c6.9-2.3,6.9-2.3,6.9,5c0,8.4-0.4,9.2-8.6,12.3
				c-14.6,5.5-29.8,9.2-45.4,10.8c-20,2-39.5,5.9-58.2,13.1C103.5,178.4,102.2,179.4,100.7,178.8L100.7,178.8z M196.3,94.4
				c0.3-0.3,0.7-0.6,1-0.9c-0.2-0.1-0.4-0.2-0.5-0.2C196.4,93.6,196.1,93.9,196.3,94.4c-0.7,0.1-1,0.5-1,1.2c0,0.1,0.2,0.2,0.3,0.2
				C196.5,95.7,196.2,95,196.3,94.4z M205.8,110.3c1.1-3.5,0.6-4.6-1.9-5.7c-2-0.8-3.3,0.3-4.6,1.3c-4.9,3.6-10,5.1-15.7,1.9
				c-2.1-1.2-2.1,0.4-2.1,1.7c0.1,5.1,0.5,10.2,0.4,15.3c0,3.3,1.6,5.5,4.1,7.4c10.5,7.8,13.8,7.8,24.3,0c1-0.8,2-1.6,3.1-2.4
				c2.3-1.7,3.3-4.1,3.3-6.7c-0.1-5.4-0.5-10.8-0.8-16.7C212.5,108,209.7,109.9,205.8,110.3z M221.2,95.2c-4.5,3.9-8.2,0.4-12-1
				c-3.9-1.4-8-3-8.5-8.7c-1.3,4-1.1,6,1,7.3c5.1,3.2,10.8,5.3,16.8,6.3C221.4,99.5,222.1,98,221.2,95.2z M176.9,101
				c4.9,2.1,17.8-6.3,17.6-11.7C190.1,95.3,183.1,97.5,176.9,101z M183.2,102.6c4.5-1,8.7-2.7,12.2-6.2c-0.8-0.2-1.1-0.3-1.2-0.3
				C190.6,98.3,186.9,100.4,183.2,102.6z"/>
			<path class="st5" d="M281,347.5c0-6.3,0.1-12.5,0-18.8c0-2,0.6-2.7,2.7-2.7c6,0.2,12.1-0.1,18.1,0.3
				c11.7,0.8,19.9,10.1,19.4,21.9c-0.5,12.7-8.4,20.7-20.8,20.8c-5.4,0-10.8-0.1-16.2,0.1c-2.7,0.1-3.3-0.8-3.2-3.3
				C281.1,359.7,281,353.6,281,347.5z M290.8,347.4c0,1.7,0,3.3,0,5c0,8.7,0,8.7,9.1,7.9c6-0.5,10.4-4.3,11.2-9.6
				c1-6.9-1.9-13.1-7.3-15c-3.2-1.1-6.7-0.7-10.1-1.1c-2.2-0.2-2.8,0.5-2.8,2.5C290.8,340.5,290.8,344,290.8,347.4z"/>
			<path d="M221.2,216.5c-7.6-0.2-15.3-4.4-20.4-13c-0.6-1.1-0.8-2.6-2.5-2.6s-1.9,1.6-2.5,2.6c-5.7,9.6-16,14.5-27.3,12.7
				c-10.3-1.6-18.8-9.6-20.8-19.5c-0.6-3-0.2-4.3,3.5-4.3c3,0.1,2.6,1.8,2.9,3.4c2,8.3,9,14,17.7,14.4c8.9,0.4,17.4-4.4,19.2-12.2
				c1.2-5.2,3.7-5.6,8.2-5.6c3.8,0,5.3,0.8,6.1,4.6c1.6,7.9,9.9,13.4,18.9,13.3c8.9-0.1,16.3-5.9,18.4-14.1c0.4-1.4-0.5-3.7,2.6-3.7
				c4.2,0,4.6,0.2,3.8,4.2C246.5,208.5,236.4,216.4,221.2,216.5z"/>
			<path class="st5" d="M238.4,356c0,3.2,0.1,6.4,0,9.6c-0.1,1.3,1,3.6-1.4,3.7c-2.3,0.1-5.5,1.5-6.8-1c-1.1-2.2-1.8-1-2.8-0.5
				c-2.9,1.3-5.9,2.1-9.2,1.7c-5.5-0.6-9.1-3.4-9.9-7.8c-1.1-5.5,1-9.2,6.3-11.9c3.7-1.9,7.6-1.6,11.6-1.7c0.9,0,2.3,0.7,2.7-0.7
				c0.3-1-0.4-2-1.1-2.7c-2.5-2.3-5.5-2.2-8.5-1.5c-1.1,0.3-2.4,0.6-3.2,1.3c-3.5,2.8-4-0.6-5.3-2.3c-1.9-2.4,0.2-3.1,1.8-3.9
				c5.5-2.7,11.3-4.2,17.5-2.5c5.4,1.5,8.5,5.6,8.5,11c0,3.1,0,6.1,0,9.2C238.3,356,238.4,356,238.4,356z M226.2,355.4
				c-1.9,0.1-3.7,0.3-5.5,0.4c-1.4,0.1-2.6,0.6-2.9,2.1c-0.3,1.5,0.4,2.7,1.7,3.5c3,1.9,7.2,0.4,8.6-3.1
				C228.9,356.5,229.4,354.8,226.2,355.4z"/>
			<path class="st5" d="M348.4,355.9c-3.2,0-6.3,0-9.5,0c-2.1,0-2.1,0.9-1.4,2.4c2.2,4.6,8.8,6.3,13.5,2.7c4-2.9,4.4,1,5.8,2.4
				c2.2,2.1-0.8,2.7-1.8,3.4c-6.6,4.2-16.3,3.7-22.1-1c-5.6-4.5-7.5-13.7-4.4-20.7c3.2-7.1,12.5-11,21-8.7c8,2.2,12.3,8.9,11.2,17.4
				c-0.2,1.6-0.8,2.2-2.5,2.2C355,355.8,351.7,355.9,348.4,355.9z M344.5,349c1.4,0,2.9-0.1,4.3,0c2.7,0.2,2.4-1.1,1.5-2.7
				c-2.2-3.7-8.9-4.1-11.5-0.6c-0.6,0.8-1.4,1.7-0.8,2.8c0.6,0.9,1.7,0.4,2.5,0.4C341.9,349,343.2,349,344.5,349z"/>
			<path class="st5" d="M164.2,355.9c-3,0-6.1,0.1-9.1,0s-2.6,1.2-1.5,3c2.5,4.2,8.7,5.5,13.1,2.2c4.1-3.1,4.7,1.1,6,2.5
				c1.9,2.1-1.1,2.6-2.2,3.3c-6.7,4.2-16.2,3.5-22.1-1.3c-5.2-4.3-7.1-12.8-4.4-19.7c2.9-7.6,12-11.8,20.8-9.7
				c8.2,2,12.8,9,11.7,17.5c-0.2,1.8-1,2.3-2.8,2.3C170.5,355.8,167.4,355.9,164.2,355.9z M160.2,349c1.3,0,2.6,0.1,3.9,0
				c0.9,0,2.1,0.5,2.5-0.5c0.5-1-0.3-1.9-0.9-2.8c-2.5-3.2-8.6-3.3-11.1-0.1c-0.6,0.8-1.3,1.7-0.8,2.8c0.5,1,1.6,0.5,2.5,0.5
				C157.5,349,158.9,349,160.2,349z"/>
			<path class="st5" d="M96.9,352.9c0,9.8-7.9,17.4-18,17.4c-9.9,0-17.8-7.8-17.7-17.7c0-9.6,7.9-17.2,17.8-17.2
				C89,335.4,96.9,343.1,96.9,352.9z M78.9,343.7c-4.9,0-9.1,4-9,8.8c0,4.6,4.1,8.6,8.7,8.7c4.7,0.1,9.2-4,9.3-8.6
				C88,348,83.7,343.8,78.9,343.7z"/>
			<path class="st5" d="M104.5,352.4c0-4.5,0.1-8.9,0-13.4c-0.1-2.4,0.9-3.5,3.2-2.9c2,0.5,5.1-2,6,2.1c0.3,1.2,1.7-0.2,2.4-0.7
				c5-3.3,10-2.8,14.8,0.2c3,1.9,4.7,4.7,4.7,8.4c0,6.5-0.1,13,0,19.5c0.1,2.5-0.6,3.3-3.3,3.2c-8.1-0.3-6.6,1-6.8-6.4
				c-0.1-4.6,0-9.2,0-13.8c0-4-1.5-5.6-5.1-5.7c-3.9-0.1-6.9,2.2-7,5.7c-0.1,5.7-0.3,11.5,0.1,17.2c0.2,3.9-2.3,3.1-4.5,3.1
				c-2.3,0-4.8,0.7-4.5-3.2C104.8,361.4,104.5,356.9,104.5,352.4z"/>
			<path class="st5" d="M259.2,369.9c-4.6,0-8.9-1-12.6-3.7c-1.2-0.9-2.6-1.8-0.8-3.3c1.5-1.2,1.6-4.7,4.9-2.9c2.6,1.5,5.2,3,8.4,3
				c1.7,0,3.7,0.1,4.4-1.8c0.8-2.1-1.1-3-2.6-3.7c-2.6-1.3-5.3-2.2-7.9-3.3c-7.4-3.2-8.5-10.7-2.4-15.9c5.2-4.4,16.3-4.1,20.8,0.8
				c2,2.2-1.2,3.7-1.8,5.5c-0.5,1.8-1.7,0.9-2.7,0.2c-2.1-1.5-4.4-2.3-7-2.2c-1.5,0.1-3.1,0.4-3.4,2.1c-0.3,1.5,1,2.3,2.2,2.8
				c1.3,0.5,2.7,0.9,4.1,1.4c7.7,2.4,11,6.1,10.1,11.6C271.9,366.5,266.7,370.1,259.2,369.9z"/>
			<path class="st5" d="M193.3,339.2c1.3,0.2,1.5-0.6,2-0.9c2-1.6,4.7-3.6,6.6-2.4c2,1.3,0.5,4.7,0.8,7.2c0.1,1.4-1,1.1-1.9,1.3
				c-5,1-6.7,2.6-7.1,7.6c-0.4,4.6-0.7,9.2-0.5,13.7c0.1,3.3-1.3,4.2-4.1,3.6c-1.8-0.4-5.1,1.7-5.2-2c-0.2-9.8-0.1-19.6-0.1-29.5
				c0-1.4,0.5-2.1,2.1-2.1c1.2,0,2.4,0,3.6,0C191.9,335.7,194.6,335.4,193.3,339.2z"/>
			<path class="st5" d="M53.2,352.4c0,4.6-0.1,9.2,0,13.8c0.1,2-0.6,2.6-2.7,2.6c-6,0.1-6,0.2-6-5.5c0-7.7,0.2-15.3-0.1-23
				c-0.1-3.4,0.9-4.3,4.3-4.3c3.6,0,4.8,0.9,4.5,4.5C53,344.5,53.2,348.5,53.2,352.4z"/>
			<path class="st6" d="M54.7,328.1c0.1,2.9-2.4,5.4-5.4,5.4s-5.6-2.5-5.4-5.3c0.2-3.1,2-4.9,5.2-5.1
				C52,322.8,54.6,325.3,54.7,328.1z"/>
			<path d="M100.6,178.7c0,0.2,0,0.3-0.1,0.5C99.9,178.9,100.6,178.9,100.6,178.7C100.7,178.8,100.6,178.7,100.6,178.7z"/>
			<path d="M225,72.8c0.4,0.1,0.5,0.4,0.2,0.7c-0.1-0.2-0.3-0.3-0.4-0.5L225,72.8z"/>
			<path d="M171.3,235.7"/>
			<path d="M179.6,235.9"/>
			<path d="M183.2,102.6c3.7-2.2,7.3-4.3,11-6.5c0.1-0.1,0.5,0.1,1.2,0.3C191.9,99.9,187.8,101.5,183.2,102.6z"/>
			<path d="M196.4,94.5c-0.3-0.5,0-0.9,0.5-1.2c0.1-0.1,0.3,0.1,0.5,0.2C197,93.8,196.7,94.1,196.4,94.5
				C196.3,94.4,196.4,94.5,196.4,94.5z"/>
			<path d="M210,136.8c-0.3,0.5-0.7,0.6-1.2,0.4c-0.1,0-0.2-0.2-0.3-0.2c0.4-0.1,0.9-0.3,1.3-0.4L210,136.8z"/>
		</g>
	</g>
</g>
</svg>
