<?xml version="1.0" encoding="utf-8"?>
<!-- Generator: Adobe Illustrator 21.0.0, SVG Export Plug-In . SVG Version: 6.00 Build 0)  -->
<svg version="1.1" id="Capa_1" xmlns="http://www.w3.org/2000/svg" xmlns:xlink="http://www.w3.org/1999/xlink" x="0px" y="0px"
	 viewBox="0 0 400 400" style="enable-background:new 0 0 400 400;" xml:space="preserve">
<style type="text/css">
	.st0{fill:#BABD17;}
	.st1{fill:#217FC2;}
	.st2{fill:#E00E17;}
	.st3{fill:#185046;}
	.st4{fill:#189751;}
	.st5{fill:#1E3F6E;}
	.st6{fill:#766D58;}
	.st7{fill:#731636;}
	.st8{fill:#F8B816;}
	.st9{fill:#EE7614;}
	.st10{fill:#1F181A;}
	.st11{fill:#1E1719;}
	.st12{fill:#1F191B;}
	.st13{fill:#20191B;}
	.st14{fill:#241D1F;}
	.st15{fill:#211A1C;}
	.st16{fill:#204A76;}
	.st17{fill:#221B1D;}
	.st18{fill:#231C1E;}
	.st19{fill:#251E20;}
	.st20{fill:#5D4716;}
	.st21{fill:#4F483A;}
	.st22{fill:#1A2E4E;}
	.st23{fill:#7B4115;}
	.st24{fill:#AD5819;}
	.st25{fill:#2C2628;}
	.st26{fill:#261F21;}
	.st27{fill:#282123;}
	.st28{fill:#703C13;}
	.st29{fill:#CAC9C9;}
	.st30{fill:#102E26;}
	.st31{fill:#113129;}
	.st32{fill:#FDFDFD;}
	.st33{fill:#FCFCFC;}
	.st34{fill:#FAFAFA;}
	.st35{fill:#F8F8F8;}
	.st36{fill:#F6F6F6;}
	.st37{fill:#FAF9FA;}
	.st38{fill:#F9F9F9;}
	.st39{fill:#FBFBFB;}
</style>
<g>
	<g>
		<path class="st0" d="M42.5,234.1c-11.4-11.4-22.8-22.7-34.3-34c-1.2-1.2-1.4-2.5-1.4-4c0-28.5,0-56.9,0-85.4c0-1.4,0-2.6,1.2-3.7
			c11.3-11.2,22.4-22.4,33.7-33.6c0.1-0.1,0.5-0.1,1.2-0.3c0,41.8,0,83.4,0,125.1c0.9,1.3,0.8,2.8,0.8,4.3c0,9,0,18,0,27.1
			C43.8,231.2,44,232.9,42.5,234.1z"/>
		<path class="st1" d="M212.6,115.3c0.1,14.2,0.2,28.4,0.2,42.6c0,12.6,0,25.2,0,37.7c0,1.9-0.2,3.6-1.8,5.1
			c-11.3,11.1-22.5,22.3-33.7,33.4c-0.8-0.2-0.5-1-0.5-1.6c0-38.4,0-76.8,0-115.3c0-0.4,0.1-0.8,0.1-1.2c1.5-1.7,3.5-1.9,5.6-2
			c8.6-0.1,17.3-0.1,25.9,0C209.9,114,211.4,114.2,212.6,115.3z"/>
		<path class="st2" d="M353.9,108.2c-32.1,0-64.2,0-96.2,0c-0.6-1.6,0.7-2,1.4-2.7c10.4-10.5,20.9-20.9,31.2-31.3
			c1.6-1.6,3.2-2.1,5.4-2.1c18.4,0.1,36.8,0,55.2,0c1.6,0,3.2-0.1,4.5,1.2c11.4,11.6,22.8,23.1,34.2,34.6c-1,1.1-2.4,1.1-3.8,1.2
			c-9.6,0.2-19.2,0-28.8,0C355.9,109.1,354.9,108.8,353.9,108.2z"/>
		<path class="st3" d="M97,198.9c0.1-28.9,0.1-57.9,0.2-86.8c0-1.4-0.7-3,0.6-4.2c1.7-0.9,3.5-1.3,5.5-1.3c8.2,0,16.5,0,24.7,0
			c1.8,0,3.9-0.3,5.1,1.7c-1.2,2-3.3,1.6-5.1,1.6c-7.4,0.1-14.9,0-22.3,0c-1.5,0-3-0.1-4.4,0.5c8.6-0.3,17.2,1.4,25.8,1.1
			c2.1-0.1,4.4-0.5,6.1,1.4c0.2,27.2,0.1,54.4,0.1,81.6c-1.3,1.9-3.3,1.6-5.1,1.6c-7.3-0.1-14.6,0.5-21.9-0.6
			c-1.8-0.3-3.7-0.4-6.1,0.5c1.7,1.1,3.1,0.9,4.5,0.9c7.6,0,15.2,0,22.7,0c1.6,0,3.3-0.1,4.8,0.6c0.5,0.2,0.7,0.6,0.8,1.1l-0.2,0.3
			c-1.4,1-2.9,1.3-4.6,1.4c-9.1,0-18.1,0.1-27.2,0C99.6,200.3,98.1,200.2,97,198.9z"/>
		<path class="st4" d="M133,198.7c-0.1-0.2-0.2-0.3-0.3-0.5c-0.8-1-0.8-2.1,0-3.1c0-27.4,0-54.9,0-82.3c-1-1.3-0.9-2.6,0-3.9
			c-1.1-1.5-2.8-0.8-4.1-0.8c-10.3-0.1-20.6-0.1-30.9-0.1c11.4-11.5,22.8-23.1,34.2-34.6c0.9-1,2-1.2,3.3-1.2c23.1,0,46.3,0,69.4,0
			c0.3,1.5-1,1.9-1.7,2.6c-10.4,10.5-20.9,20.9-31.2,31.4c-1.6,1.6-3.1,2.2-5.3,2.2c-9.7-0.1-19.5,0.1-29.2-0.1
			c-3.2-0.1-3.8,1-3.8,3.9c0.1,27.5,0.1,55,0,82.4C133.6,195.8,134.2,197.4,133,198.7z"/>
		<path class="st5" d="M177.4,107.9c11.4-11.5,22.8-23,34.2-34.6c0.9-1,2-1.2,3.3-1.2c23.1,0,46.3,0,70.3,1
			c-1.6,1.3-3.3,2.5-4.8,3.9c-9.7,9.6-19.4,19.3-28.9,29c-1.6,1.6-3.1,2.2-5.3,2.2c-9.7-0.1-19.5-0.1-29.2,0c-1.4,0-3-0.5-4.3,0.7
			c-10.5,0.5-21.1,0.3-31.6,0.3C179.8,109.2,178.4,109.1,177.4,107.9z"/>
		<path class="st6" d="M97,198.9c12,0,23.9,0,35.9,0.1c-11.4,11.5-22.8,23.1-34.2,34.6c-0.9,0.9-1.9,1.3-3.2,1.3
			c-16.2-0.1-32.5-0.1-48.7-0.2c-1.2-1.3-1.3-2.9-1.3-4.6c-0.1-8.9-0.1-17.8,0-26.7c0-1.6,0-3.3,1.4-4.5
			C63.5,198.9,80.3,198.9,97,198.9z"/>
		<path class="st7" d="M295.4,180.4c-2.1-0.1-3.4,0.7-3,3.1c0,0.1,0,0.3,0,0.4c2.4,11.4-2.8,19.2-11.1,26.4
			c-8.5,7.4-16.1,15.9-24.1,24c-1.3-1-0.7-2.2-0.7-3.1c0-15.8,0-31.7-0.1-47.5c0-2.2,0.5-3.8,2.1-5.3c10.7-10.5,21.3-21.2,31.8-31.9
			c1.5-1.5,2.9-2.3,5-1.8c1.5,1.3,1.4,3.1,1.5,4.9c0.1,8.6,0,17.3,0,25.9C296.8,177.2,296.8,179,295.4,180.4z"/>
		<path class="st8" d="M295.4,180.4c0-11.9,0-23.8,0-35.7c18.5,0,37.1,0,55.6,0c1.2,1.3,1.1,3,1.1,4.6c0,8.8,0,17.6,0,26.4
			c0,1.6,0,3.3-1.1,4.6C332.4,180.4,313.9,180.4,295.4,180.4z"/>
		<path class="st9" d="M353.9,144.5c0.1-10.6,0.2-21.2,0.3-31.7c3.7-2.1,7.9-1.4,11.8-1.7c6.7-0.6,13.5-0.1,20.2-0.2
			c1.4,0,2.7,0.3,3.8,1.1c0.1,10.3,0.1,20.5,0.2,30.8c0,1.2-0.4,2.1-1.2,2.9c-11.6,11.5-23.2,23-34.8,34.5c-1.2-1.1-1.3-2.6-1.3-4.1
			c-0.1-9.1-0.1-18.2,0-27.4C352.8,147.2,352.9,145.8,353.9,144.5z"/>
		<path class="st10" d="M23.9,261.4c0,3.8,0.2,7.6,0,11.4c-0.3,4.8-3.5,8.1-7.8,8.4c-5.2,0.4-8.2-1.7-9.3-7
			c-1.6-8.2-0.4-16.5-0.7-24.7c-0.1-2.6,2.1-1.4,3.3-1.6c1.9-0.4,2.2,0.7,2.2,2.3c-0.1,6.4-0.1,12.7,0,19.1c0,1.6,0.2,3.2,0.6,4.8
			c0.3,1.4,1.3,2.3,2.9,2.3c1.6,0,2.5-0.6,3.1-2.1c0.6-1.6,0.8-3.1,0.8-4.7c0-6.4,0.1-12.7-0.1-19.1c-0.1-2.2,0.7-2.7,2.8-2.7
			c2.1,0,2.4,0.9,2.4,2.7c-0.1,3.7,0,7.3,0,11C24.1,261.4,24,261.4,23.9,261.4z"/>
		<path class="st10" d="M343.3,278.3c-5.2,2.9-8.5,1.7-10.4-4c-1.5-4.6-1.4-9.3,0.4-13.8c1.9-4.6,5.4-5.7,9.7-3.3
			c0.8,0.5,1,0.8,1.5-0.4c0.8-1.8,2.7-0.9,3.9-0.6c1.4,0.3,0.6,1.8,0.6,2.8c-0.1,7.3-0.5,14.6-0.4,21.9c0.1,7.1-6.8,10.5-13.7,8.4
			c-1.6-0.5-1.2-1.5-1-2.5c0.2-1.5,1-1.7,2.5-1.6C342.5,285.8,343.8,284.4,343.3,278.3z"/>
		<path class="st10" d="M186.8,257.7c0-2.8,0.1-5.5,0-8.1c-0.2-2.3,0.8-2.7,2.8-2.7c2,0,2.8,0.3,2.8,2.6c-0.1,9.6,0,19.2-0.1,28.7
			c0,0.9,0.7,2.4-1,2.6c-1.1,0.1-2.7,0.7-3.3-0.7c-0.7-1.6-1.1-1-2.1-0.3c-3.5,2.4-7.1,1.5-8.9-2.5c-2.5-5.5-2.6-11.3,0.1-16.8
			C178.9,256.6,181.6,255.9,186.8,257.7z"/>
		<path class="st11" d="M129.6,304.8c0-3.1,0.1-5.8,0-8.5c-0.1-2,0.3-2.9,2.6-2.9c2.4,0,2.5,1.1,2.5,2.9c0,9.7,0.1,19.4,0.1,29.2
			c0,0.7,0.5,1.8-0.8,1.9c-1.2,0.1-3.1,0.7-3.3-0.4c-0.6-2.8-1.4-1-2.4-0.4c-3.1,2-6.3,1.3-8.4-1.7c-3.1-4.5-3.1-13.9,0-18.6
			C122.3,303,125,302.4,129.6,304.8z"/>
		<path class="st10" d="M146.8,258.1c0-2.9,0.1-5.5,0-8.1c-0.1-1.9-0.1-3.2,2.6-3.2c2.8,0,2.5,1.5,2.5,3.3c0.1,9.3,0.2,18.6,0.3,28
			c0,0.9,0.7,2.4-0.9,2.7c-1.1,0.2-3,0.7-3.4-0.4c-0.7-1.7-0.8-1.5-2.2-0.6c-3.6,2.5-7.1,1.5-9-2.5c-2.5-5.3-2.3-10.8-0.4-16.1
			C138.2,256.5,141.8,255.5,146.8,258.1z"/>
		<path class="st11" d="M167,311.1c0-4.6,0-9.2,0-13.8c0-1-0.4-2.1,1.3-2.5c4.7-1,9.4-1.3,13,2.1c3.4,3.1,3.6,7.4,1.9,11.6
			c-1.5,3.7-4.4,5.8-8.3,6c-2.4,0.1-3,1-2.8,3.2c0.2,2.4-0.1,4.9,0.1,7.3c0.1,1.9-0.4,2.6-2.4,2.6c-2.1,0-2.8-0.5-2.7-2.7
			C167.1,320.3,167,315.7,167,311.1z"/>
		<path class="st12" d="M261,267.7c0-3,0-5.9,0-8.9c0-0.9-0.7-2.1,0.5-2.5c1.1-0.3,3.3-0.3,3.4,0c0.9,3.1,2.1,0.9,3.2,0.3
			c4.1-2,7.6-0.6,8.8,3.7c1.6,6,0.4,12.1,0.7,18.1c0.1,2.3-1.8,1.4-3,1.5c-1.6,0.2-2.5-0.3-2.5-2.2c0.1-4.3,0-8.6,0-13
			c0-2,0-4.6-2.7-4.5c-2.3,0.1-3.1,2.3-3.1,4.5c-0.1,4.2-0.1,8.4,0,12.6c0,1.8-0.3,2.7-2.4,2.7c-2,0-2.9-0.5-2.8-2.7
			c0.2-3.2,0-6.5,0-9.7C261.1,267.7,261.1,267.7,261,267.7z"/>
		<path class="st10" d="M29.5,268.4c0-3,0-6,0-8.9c0-0.9-0.8-2.4,0.9-2.6c1.1-0.1,2.8-0.9,3.2,0.6c0.7,2.3,1.4,0.6,2.1,0.2
			c5.4-2.8,9.8-0.4,10.1,5.8c0.2,5,0,10,0.1,15c0.1,2.1-0.9,2.4-2.7,2.4c-1.7,0-2.8-0.3-2.8-2.4c0.1-4.3,0.1-8.7-0.1-13
			c-0.1-1.8,0.2-4.4-2.3-4.5c-2.8-0.2-3.4,2.5-3.5,4.6c-0.2,4-0.1,8.1-0.1,12.2c0,1.6,0.4,3.2-2.3,3.2c-2.7,0-2.7-1.3-2.7-3.2
			c0.1-3.1,0-6.2,0-9.3C29.6,268.4,29.5,268.4,29.5,268.4z"/>
		<path class="st13" d="M275.8,318.7c0,1.9,0.1,3.8,0,5.7c-0.1,1,1,2.7-0.8,3.1c-1.2,0.3-2.9,0.8-3.7-0.5c-0.6-0.9-0.7-1-1.6-0.5
			c-5,2.2-7.4,1.6-9.1-1.9c-2-4.1-0.5-8.8,3.7-10.9c1.1-0.5,2.3-0.8,3.4-1.3c1-0.4,3.1,0.5,2.6-1.9c-0.3-1.8-1.4-3-3.2-3.1
			c-1-0.1-2.2,0.2-3.1,0.7c-1.4,0.7-1.8,0-2.2-1.2c-0.4-1.2-0.3-1.9,1-2.5c6-3.2,12-0.3,12.9,6.4c0.3,2.7,0.1,5.4,0.1,8.1
			C275.7,318.7,275.7,318.7,275.8,318.7z"/>
		<path class="st10" d="M393.9,270.7c0,2.3-0.2,4.6,0.1,6.9c0.3,2.6-1.8,3.2-2.9,2.3c-2.4-2.1-3.9,0-5.9,0.4
			c-2.6,0.5-4.8-0.2-6.2-2.7c-1.9-3.4-1.6-6.7,0.9-9.7c1.5-1.8,3.7-2.7,6-3c1.2-0.2,2.5-0.1,2.3-2c-0.1-1.6-0.8-2.7-2.3-2.8
			c-1.2-0.1-2.4,0-3.6,0.2c-0.9,0.1-2,1.6-2.3-0.6c-0.1-1.1-0.6-2.1,1-3c5.9-3,12.3,0.2,12.8,6.8C394,265.8,393.9,268.3,393.9,270.7
			C393.9,270.7,393.9,270.7,393.9,270.7z"/>
		<path class="st10" d="M311.8,267.7c-0.2-2.2,0.3-5,1.7-7.5c1.6-3,4.1-4.5,7.6-4.3c3.3,0.2,5.1,2,6.4,4.8c1.9,4.3,1.9,8.6,0.7,13
			c-1.2,4.4-4.1,6.8-7.9,6.7c-4.3-0.1-6.4-2.7-7.7-6.5C311.8,272.1,311.8,270.2,311.8,267.7z"/>
		<path class="st10" d="M281.7,268.8c-0.3-3.5,0-6,1.2-8.3c1.7-3.1,4-4.9,7.8-4.7c3.4,0.2,5.4,2.1,6.5,5.1c1.7,4.6,1.8,9.2,0.1,13.7
			c-1.5,4.1-4.5,6-8.3,5.6c-3.7-0.4-6.7-3.6-7.3-7.9C281.5,271,281.7,269.4,281.7,268.8z"/>
		<path class="st10" d="M171.3,271.6c0,2.3-0.2,4.6,0.1,6.9c0.3,2.6-2,3.2-2.8,2.3c-2.4-2.7-3.9,0-5.8,0.3c-3.1,0.4-5.3-0.7-6.6-3.5
			c-1.5-3.2-0.7-7.5,1.9-9.6c1.6-1.3,3.3-2.2,5.5-2.3c1,0,2.5,0.1,2.3-1.5c-0.1-1.4-0.5-3.1-2.4-3.3c-1.3-0.1-2.8-0.1-4,0.3
			c-1.1,0.3-1.8,0.5-2.1-0.8c-0.2-1-0.6-2,0.8-2.8c5.8-3.5,12.7,0,13,6.7c0.1,2.4,0,4.9,0,7.3C171.3,271.6,171.3,271.6,171.3,271.6z
			"/>
		<path class="st10" d="M229.3,323.6c1.6-0.1,3.5-0.9,3.6,1.7c0.1,2.5-2,2.1-3.5,2.3c-6.9,0.7-9.8-1.5-11.4-8.3
			c-1-4.5-0.2-8.6,2.1-12.4c1.6-2.7,4.3-4.2,7.6-3.6c3.4,0.6,5.2,3.1,6,6.4c0.1,0.4,0,0.8,0.1,1.2c0.8,6.2,0.8,6-5.4,6.3
			c-1.7,0.1-5-2.3-5.2,1.9C223,322.3,225.2,323.8,229.3,323.6z"/>
		<path class="st10" d="M241.9,265.8c0.8,3.2-0.8,4.3-4.1,3.8c-0.9-0.1-2-0.2-2.8,0c-1.4,0.4-3.9-1.5-4,1.5
			c-0.1,2.6,1.3,4.7,4.2,5.1c1,0.1,2.3,0.3,3.2-0.2c1.7-0.8,2-0.1,2.4,1.3c0.4,1.5,0,2-1.6,2.4c-3.7,1-7.4,1.1-10.2-1.7
			c-3.8-3.6-4-8.5-3.1-13.2c1-5.9,4-8.8,8.2-9C239,255.7,241.8,259.1,241.9,265.8z"/>
		<path class="st10" d="M143.7,317c0.7,5.9,1.7,6.9,7,6.4c1.8-0.2,2.9-0.1,3.1,1.9c0.2,2-1.4,2-2.7,2.2
			c-11.7,1.9-13.7-7.3-12.2-16.2c0.3-1.8,1.1-3.6,2.4-5.1c4.1-5,10.4-3.9,12.7,2.2c0.3,0.9,0.7,1.8,0.8,2.7c0.8,5.7,0.6,5.8-5.1,5.8
			C147.8,317,145.7,317,143.7,317z"/>
		<path class="st10" d="M88,281.1c-6.2,0.1-10-3.3-10.3-8.8c-0.2-3.5-0.6-7,1.1-10.4c1.7-3.5,4.2-5.7,8.2-5.3
			c3.8,0.3,5.4,2.9,6.3,6.3c0.4,1.5,0.5,2.9,0.7,4.4c0.3,2.6-0.8,3.4-3.2,3.1c-1.5-0.2-3-0.1-4.5,0c-1.2,0.1-3-0.9-3.6,0.8
			c-0.6,1.8,0.5,3.5,1.8,4.7c1.5,1.4,3.5,1.7,5.3,1c1.6-0.6,2.2-0.7,2.7,1.3c0.6,2.2-0.8,2.2-2,2.6C89.4,281,88.3,281,88,281.1z"/>
		<path class="st10" d="M185.6,315.3c-0.1-2.6,0.4-5.5,2-8.1c1.8-2.8,4.4-4.6,7.8-4c4.1,0.7,5.6,4,6.4,7.5c1.3,5.4,0.5,6.3-4.9,6.3
			c-0.8,0-1.7-0.2-2.4,0c-1.3,0.3-3.4-1.1-3.6,1c-0.3,2.2,0.7,4.3,3,5.2c1.4,0.6,2.9,0.4,4.4,0.1c1.3-0.3,2.2-0.4,2.5,1.4
			c0.2,1.9-0.6,2.3-2.1,2.6C190.3,329.3,185.6,325,185.6,315.3z"/>
		<path class="st11" d="M220.2,266.1c0,3.7-0.1,7.3,0,11c0,1.8-0.1,3-2.5,3c-2.6,0-2.8-1.2-2.8-3.2c0.1-7.3-0.1-14.6,0.1-21.9
			c0.1-2.4-0.5-3.6-3.1-3.1c-1.9,0.3-2.9-0.1-3-2.5c0-2.5,1.3-2.4,3-2.4c3.9,0.1,7.9,0.1,11.8,0c1.8,0,2.7,0.3,2.6,2.4
			c0,1.9-0.6,2.9-2.5,2.5c-3.6-0.7-3.9,1.3-3.8,4.1C220.3,259.3,220.2,262.7,220.2,266.1z"/>
		<path class="st13" d="M67.5,273.3c1.1-5.2,2-9.7,3-14.2c0.5-2.5,0.6-2.5,5.6-2c-1.9,7.4-3.9,14.7-5.8,22.1
			c-0.5,1.9-1.8,1.6-3.1,1.7c-1.3,0.1-2.2-0.1-2.6-1.8c-1.7-6.7-3.7-13.4-5.5-20.2c-0.3-1.1-0.5-2.4,1.3-2.1c1.6,0.2,3.9-1.2,4.3,2
			C65.4,263.5,66.5,268.1,67.5,273.3z"/>
		<path class="st14" d="M307.7,263.1c0,4.7-0.1,9.5,0,14.2c0.1,2.2-0.6,2.8-2.8,2.8c-2.2,0-2.7-0.9-2.7-2.9c0.1-9.5,0.1-19,0-28.4
			c0-2.4,1-2.5,2.9-2.6c2.3-0.1,2.7,0.8,2.6,2.8C307.6,253.6,307.7,258.4,307.7,263.1z"/>
		<path class="st10" d="M118.9,260.8c-1.6,0.1-3.2-0.5-3.8,1.3c-0.6,1.8,0.3,3,1.9,4c2.8,1.9,5.5,3.8,5.4,7.8
			c-0.1,2.9-1.1,5-3.6,6.3c-2.7,1.4-5.5,1.3-8.2,0.2c-1.5-0.6-0.8-1.6-0.6-2.6c0.3-1.5,1-1.7,2.3-1.1c1.9,0.9,4,1.1,5-1
			c1.1-2.2-0.5-3.7-2.4-4.9c-2.5-1.6-4.9-3.4-4.9-6.9c-0.1-5.3,5.3-8.9,10.2-6.8c1.2,0.5,1.6,1.2,1.2,2.5
			C120.9,261,120.4,262.1,118.9,260.8z"/>
		<path class="st13" d="M362.5,268.2c0.3-8,4.8-12.7,11.3-12.2c1.2,0.1,2.6-0.1,2.3,1.9c-0.2,1.5,0,3.1-2.5,2.3
			c-1.6-0.5-3,0.5-3.8,1.7c-2.3,3.2-2.3,6.8-1.2,10.4c0.9,2.8,2.8,4.2,5.9,3.5c1.5-0.3,1.3,1,1.5,1.9c0.4,1.6-0.5,2.2-1.8,2.5
			c-3.8,1-8.4-1.2-10.1-4.9C362.9,273,362.5,270.4,362.5,268.2z"/>
		<path class="st10" d="M257.8,275.7c1.3,4.1-0.8,4.9-3.9,4.7c-0.7-0.1-1.3-0.1-2-0.3c-5.5-1.5-8.1-7.5-6.7-15.5
			c0.9-5.3,5.2-8.8,10.5-8.6c1.6,0.1,2.9,0,2.6,2.3c-0.2,1.8-0.3,2.2-2.5,1.9c-3.8-0.5-4.8,2.8-5.5,5.7
			C248.7,272.2,252.2,276.6,257.8,275.7z"/>
		<path class="st15" d="M210,307c1.2-1.3,1.6-1.9,2.2-2.4c1-0.9,2.1-1.9,3.6-1.3c1.3,0.5,0.6,1.9,0.7,2.9c0.2,1.5,0,2.4-1.9,2.7
			c-2.9,0.5-3.5,3-3.6,5.6c0,3.6-0.1,7.3,0,10.9c0.1,2.3-1.2,2.2-2.8,2.2c-1.6,0-2.9,0.1-2.8-2.2c0.1-6.2,0-12.4,0-18.6
			c0-1.1-0.9-3,1.5-3C208.7,303.7,211,303,210,307z"/>
		<path class="st15" d="M252.4,306.8c1-1.1,1.6-1.9,2.3-2.4c0.9-0.8,2-1.7,3.3-1c1.2,0.6,0.5,1.9,0.6,3c0.1,1.3,0,2.2-1.7,2.5
			c-2.7,0.4-3.6,2.6-3.7,5.1c-0.1,3.4,0,6.8,0,10.2c0,1.8,0.6,3.7-2.6,3.6c-2.8-0.1-3-1.2-3-3.4c0.1-5.8-0.1-11.6,0-17.5
			c0-1.1-1-2.9,1.4-3C250.9,303.7,253,303.3,252.4,306.8z"/>
		<path class="st16" d="M212.6,115.3c-8.6,0-17.2,0-25.7,0c-3.3,0-6.7,0-10,0.7c0-1.6,0-3.2,0-4.8c1-1.1,2.4-1.2,3.7-1.2
			c9.1,0.1,18.3-0.2,27.4-0.8c1.6-0.1,3.2,0,4.6,1.2C212.6,112,212.6,113.7,212.6,115.3z"/>
		<path class="st13" d="M101.8,260c1.6-1.4,2.4-2.2,3.3-2.8c1-0.6,2.7-1.3,3,0.1c0.3,1.3,1.6,3.7-1,4.4c-3.9,1.1-4.3,3.9-4.3,7.2
			c0,3.2-0.1,6.5,0,9.7c0.1,1.8-0.7,2.3-2.4,2.3c-1.6-0.1-2.9,0-2.9-2.2c0-6.6-0.1-13.2-0.2-19.9c0-1.7,0.6-2,2.1-2.1
			C101.4,256.7,102.7,257,101.8,260z"/>
		<path class="st17" d="M353.3,268c0-3.1,0.1-6.2,0-9.3c-0.1-2.2,0.6-2.8,2.7-2.7c1.8,0.1,3,0.1,3,2.5c-0.2,6.3-0.2,12.7,0,19
			c0.1,2.4-1.1,2.5-3,2.6c-2.1,0.1-2.8-0.6-2.7-2.8C353.4,274.2,353.3,271.1,353.3,268z"/>
		<path class="st18" d="M131.3,268.7c0,3.1-0.1,6.2,0,9.3c0,1.8,0,3-2.5,3c-2.2-0.1-3.1-0.5-3.1-2.9c0.2-6.2,0.1-12.4,0-18.6
			c0-2.2,0.8-2.6,2.8-2.7c2.1,0,2.9,0.5,2.7,2.7C131.2,262.5,131.3,265.6,131.3,268.7z"/>
		<path class="st19" d="M237.8,315.3c0-3.1,0.1-6.2,0-9.3c-0.1-2.2,1-2.3,2.7-2.3c1.7,0,2.8,0.2,2.7,2.4c-0.1,6.5-0.1,13,0,19.4
			c0,2.5-1.5,2-3,2.1c-1.6,0.1-2.5-0.1-2.4-2.1C237.9,322.1,237.8,318.7,237.8,315.3z"/>
		<path class="st10" d="M55.8,269c0,3.2-0.1,6.5,0,9.7c0.1,1.8-0.7,2.3-2.4,2.3c-1.7,0-2.7-0.2-2.7-2.4c0.1-6.5,0.1-12.9,0-19.4
			c0-2.1,0.8-2.4,2.6-2.4c2,0,2.6,0.6,2.5,2.5C55.7,262.5,55.8,265.7,55.8,269z"/>
		<path class="st20" d="M353.9,144.5c0.1,11.9,0.1,23.8,0.2,35.6c-1,0.7-2.1,0.2-3.2,0.2c0-11.9,0-23.8,0-35.6
			C352,144.6,352.9,144.6,353.9,144.5z"/>
		<path class="st21" d="M46.8,199c0,11.9-0.1,23.9-0.1,35.8c-1.1,0-2.1,0-3.2,0c-0.9-6.2-0.2-12.4-0.4-18.6
			c-0.1-4.7,0.1-9.5-0.1-14.2C42.9,199,43.9,198,46.8,199L46.8,199z"/>
		<path class="st22" d="M212.6,110.4c-11.9,0.3-23.8,1.2-35.7,0.8c0-1.1-0.7-2.4,0.5-3.3c10.4,0,20.8,0.1,31.2,0.1
			c1.4,0,3-0.5,4.1,0.9C212.7,109.4,212.7,109.9,212.6,110.4z"/>
		<path class="st23" d="M353.9,108.2c11.9-0.1,23.8-0.2,35.6-0.3c0.5,0.5,0.6,1.1,0.4,1.7c-1.8,1.4-4,1.5-6.2,1.5
			c-8.2,0.2-16.4-0.2-24.7,0.4c-1.7,0.1-3.5,0.2-5-1.2c0-0.3,0-0.6,0-0.8c5.9-1,11.9,0.1,16.4-0.4c-4.6-0.2-10.5,0.4-16.5-0.4
			C353.9,108.6,353.9,108.5,353.9,108.2z"/>
		<path class="st24" d="M354.2,110.4c11.9-0.2,23.9,0.6,35.8-0.8c0,0.8,0,1.6,0,2.4c-11.9,0.1-23.8-0.2-35.7,0.8
			C354.2,112,354.2,111.2,354.2,110.4z"/>
		<path class="st6" d="M46.8,199c-2.4-0.1-3.5,0.9-3.4,3.6c0.2,10.7,0.1,21.5,0.1,32.2c-0.5,0.2-0.8-0.2-0.9-0.6
			c0-10.5,0.1-21,0.1-31.4c0-1.5,0.2-2.9,0.3-4.4C44.2,198.5,45.5,198.7,46.8,199z"/>
		<path class="st25" d="M318.3,253.2c2.1-3.1,1.9-8.3,8.5-6.6C323.8,248.9,323.8,253.9,318.3,253.2z"/>
		<path class="st26" d="M358.9,249.8c-0.1,1.9-0.8,2.9-2.7,3c-2,0.1-3.1-0.9-3-2.9c0-1.7,0.8-2.9,2.6-3
			C357.9,246.8,358.8,248,358.9,249.8z"/>
		<path class="st27" d="M240.5,294.3c1.8,0.3,2.8,1.4,2.8,3c0,1.9-1.1,3.3-2.9,3.2c-1.8-0.1-2.8-1.4-2.7-3.4
			C237.8,295.3,239.1,294.7,240.5,294.3z"/>
		<path class="st26" d="M131.3,250.1c0,2.2-0.6,3.4-2.4,3.5c-2,0.2-3.1-0.9-3.2-2.8c-0.1-1.9,0.9-3,2.9-3.1
			C130.5,247.8,131.2,248.9,131.3,250.1z"/>
		<path class="st15" d="M53.4,253.6c-1.9,0.1-2.7-1-2.7-2.7c0-1.6,0.3-2.9,2.3-3.1c2.2-0.2,3,1.1,3,2.9
			C56,252.3,55.3,253.6,53.4,253.6z"/>
		<path class="st28" d="M354.1,108.8c5.9,0,11.8,0,17.8,0c0,0.3,0,0.5,0,0.8c-5.9,0-11.8,0-17.7,0
			C354.2,109.3,354.1,109.1,354.1,108.8z"/>
		<path class="st29" d="M303,244.7c1.3,0,2.5,0,3.8,0c0,0.1,0,0.3,0,0.4c-1.3,0-2.6,0-3.9,0C302.9,244.9,303,244.8,303,244.7z"/>
		<path class="st30" d="M132.8,108.8c0,1.3,0,2.6,0,3.9c-10.7,0.8-21.3-1.1-32-0.7c-1.2,0-2.7,0.2-2.7-1.6c0-2.1,1.8-1.6,3-1.6
			C111.7,108.8,122.3,108.8,132.8,108.8z"/>
		<path class="st31" d="M132.8,195.1c0,1,0,2.1,0,3.1c-10.6,0-21.1,0.1-31.7,0.1c-1.5,0-3.2,0.3-3.1-2.1c0.1-2.3,1.8-2.1,3.2-1.9
			C111.7,195.4,122.3,194.8,132.8,195.1z"/>
		<path class="st32" d="M343.5,268.3c0,0.4,0,0.8,0,1.2c-0.1,2.4,0.5,5.6-2.7,5.9c-3.6,0.3-3.3-3.3-3.8-5.6c-0.5-2.2,0-4.5,0.7-6.8
			c0.5-1.6,1.4-2.8,3-2.7c1.6,0.1,2.4,1.6,2.6,3.1C343.6,265,343.5,266.7,343.5,268.3C343.5,268.3,343.5,268.3,343.5,268.3z"/>
		<path class="st33" d="M186.6,268.6c0,1.9,0.1,3.8,0,5.6c-0.1,1.4-1.1,2.3-2.3,2.5c-1.3,0.3-2.3-0.6-2.7-1.9
			c-1.4-3.9-1.3-7.8-0.1-11.7c0.4-1.3,1.5-2.6,3-2.1c1.2,0.4,2.2,1.5,2.2,3.1C186.6,265.6,186.6,267.1,186.6,268.6
			C186.6,268.6,186.6,268.6,186.6,268.6z"/>
		<path class="st34" d="M129.6,315.7c-0.1,2,0.3,4.1-0.7,6c-1.2,2.3-3.6,2.5-4.6,0.2c-1.8-4.1-1.7-8.4,0-12.6
			c0.4-0.9,1.1-1.4,2.2-1.4c1.3,0,1.9,0.7,2.4,1.8C129.8,311.6,129.5,313.7,129.6,315.7z"/>
		<path class="st33" d="M146.9,269.1c-0.1,1.8,0,3.5-0.4,5.2c-0.2,1.1-1.1,2.3-2.4,2.5c-1.4,0.2-2.3-0.8-2.7-2
			c-1.5-3.9-1.5-7.9,0-11.9c0.4-1.1,1.3-2.2,2.8-2c1.4,0.2,2.1,1.4,2.4,2.5C146.8,265.3,146.8,267.2,146.9,269.1z"/>
		<path class="st35" d="M178.5,304.4c0.2,2.1-0.2,3.8-1.9,5.1c-1.2,0.9-2.5,1.3-3.8,0.7c-1.3-0.5-0.6-1.9-0.7-2.9
			c-0.1-1.6-0.1-3.2,0-4.8c0.1-1.5-1.1-3.9,2-3.8c2.4,0.1,4.1,1.2,4.4,3.8C178.5,303.1,178.5,303.8,178.5,304.4z"/>
		<path class="st36" d="M270.3,318.8c0.2,2.7-0.2,5-3,5.1c-1.9,0.1-2.6-1.9-2.5-3.6c0.1-2.6,1.5-4.4,4.2-4.4
			C271.7,315.9,269.4,318.3,270.3,318.8z"/>
		<path class="st34" d="M388.6,271.1c-0.4,2.3,0.2,5.1-3.2,5.1c-2.3,0-2.2-2-2.3-3.5c-0.1-2.8,1.6-4.3,4.1-4.5
			C389.5,268.1,388,270.3,388.6,271.1z"/>
		<path class="st37" d="M323.8,268.7c-0.3,1.5-0.7,3.5-1.1,5.5c-0.3,1.1-0.9,2-2.2,2.1c-1.3,0.1-2-0.7-2.4-1.8
			c-1.6-4.2-1.6-8.4-0.1-12.6c0.4-1,1.1-1.9,2.4-1.9c1.3,0,1.8,0.9,2.3,2C323.5,263.9,323.5,266.1,323.8,268.7z"/>
		<path class="st33" d="M293.2,268.1c-0.2,2,0.2,4-0.8,6c-0.6,1.1-1,2.2-2.5,2.2c-1.3,0-2-1-2.3-2c-1.4-4.1-1.4-8.2,0-12.3
			c0.3-1,1-1.9,2.3-2c1.5-0.1,1.9,1,2.5,2.2C293.4,264.1,293,266.1,293.2,268.1z"/>
		<path class="st38" d="M166.3,271.9c-0.1,2.4-0.1,5-3.2,5.2c-2.3,0.2-2.6-1.9-2.5-3.7c0.1-2.7,1.7-4.2,4.3-4.3
			C167.3,268.9,165.8,271,166.3,271.9z"/>
		<path class="st34" d="M226.1,313.2c-1.5-0.1-3.3,0.5-2.9-2c0.3-1.8,1-3.8,2.9-3.8c2.3-0.1,2.8,2,3,4
			C229.2,314,227.2,312.9,226.1,313.2z"/>
		<path class="st39" d="M234.1,265.8c-1.1-0.5-3.4,1-2.9-1.9c0.3-2,0.7-4,3.1-3.9c2.1,0.1,2.6,2,2.7,3.9
			C237.3,266.5,235.3,265.4,234.1,265.8z"/>
		<path class="st35" d="M143.5,313c0.9-2.5,0.5-5.8,3.8-5.7c2.1,0,3.2,2.7,2.5,4.3C148.7,314.9,145.9,312.6,143.5,313z"/>
		<path class="st34" d="M85.6,266.7c-1-0.6-3.3,0.9-2.9-1.5c0.3-1.8,0.5-4.4,3.2-4.4c2.6,0,2.8,2.4,3,4.1
			C89.3,268,86.6,265.8,85.6,266.7z"/>
		<path class="st34" d="M193.8,313.3c-1-0.5-3.2,1-3-1.4c0.2-1.9,0.7-4.4,3.1-4.6c2.5-0.1,3,2.4,3.1,4.3
			C197.2,314.3,194.9,312.7,193.8,313.3z"/>
	</g>
</g>
</svg>
