<?xml version="1.0" encoding="utf-8"?>
<!-- Generator: Adobe Illustrator 21.0.0, SVG Export Plug-In . SVG Version: 6.00 Build 0)  -->
<svg version="1.1" xmlns="http://www.w3.org/2000/svg" xmlns:xlink="http://www.w3.org/1999/xlink" x="0px" y="0px"
	 viewBox="0 0 400 400" style="enable-background:new 0 0 400 400;" xml:space="preserve">
<style type="text/css">
	.st0{display:none;}
	.st1{display:inline;}
	.st2{fill:#FE8181;}
	.st3{fill:#B2B2B1;}
	.st4{fill:#FFFFFF;}
</style>
<g id="Capa_1" class="st0">
	<g class="st1">
		<g>
			<path class="st2" d="M96.2,335c-6.2,0.7-10.9-3.1-14.8-8.2c-8.1-10.3-14.2-21.7-19.9-33.4c-13.3-27.1-18.2-55.8-16.3-85.8
				c1.8-28.5,11.2-54.6,25.7-78.9c3.8-6.4,7.6-12.9,12.8-18.4c4.9-5.2,11-5.9,17.5-5.2c3.9,0.4,4.2,2.9,2.8,6.2
				c-4.8,10.9-10,21.8-14.1,33c-19.3,52.4-18.5,104.5,1.9,156.3c3.4,8.7,7.4,17.1,11,25.7C106.3,334.3,105.6,335.2,96.2,335z"/>
			<path class="st2" d="M215.9,163.8c0.5,39.3-13.2,73.9-35.3,105.6c-4.5,6.4-10.4,10-18.6,9.7c-6.2-0.3-7.4-1.6-4.8-7.2
				c4.4-9.5,8.9-19,12.6-28.8c21-54.9,19.9-109.6-2.3-163.9c-3.2-7.8-6.9-15.5-10.4-23.2c-2.3-5.2-1.2-6.8,4.6-7
				c7.7-0.3,14,2.1,18.5,8.7c18.5,27.2,32.1,56.3,34.8,89.6C215.6,152.8,215.9,158.3,215.9,163.8z"/>
			<path class="st3" d="M179.8,321.6c-0.3-9.4,1.9-18.2,7.5-25.9c4.3-5.9,10-9.7,17.7-9.8c7.2-0.1,10.6,2.8,12.6,10.3
				c0.4,1.6-0.8,4.5,2.4,4.7c2.7,0.2,4.7-1,6.2-3.4c3.2-5.1,7.3-9,13.3-10.7c4.6-1.3,8.8-1.2,13,2.3c1.3-5.6,2.8-10.7,3.5-15.9
				c0.4-2.8,1.9-3.6,4.1-4c11.2-2.3,11.3-2.2,8.7,9c-3,12.9-5.8,25.9-8.6,38.9c-1.2,5.8,0.4,8.6,4.1,7.6c2-0.5,3.4-1.5,3.9-4
				c1.9-10,4-19.8,5.9-29.8c0.6-3,1.8-4.1,4.9-4.1c10.5-0.1,10.5-0.2,8.1,10.2c-1.6,7.1-3,14.3-4.6,21.4c-0.7,2.9-0.9,5.4,2.6,6.4
				c3.1,0.8,6.7-2.1,6.8-5.5c0.2-8.2,2.3-15.8,6.8-22.6c4.4-6.9,10.6-10.9,19.1-10.8c8.5,0.1,12.3,5.6,9.6,13.8
				c-2.7,8.2-9,12.5-17,14.7c-2.1,0.6-4.8,0.1-4.5,3.8c0.3,3.4,0.2,6.8,4.1,8.2c5.5,2,12.4-1.4,14.3-7c0.4-1.2,0.9-2.7,1.8-3.6
				c7.2-7.1,9.6-16.6,12.8-25.6c1.4-3.8,3.4-5.1,7.1-5.4c8.3-0.7,8.6-0.8,9.4,7.2c0.9,8.8,1.3,17.6,1.4,26.4c0.1,7.1-4,12-10.6,14.3
				c-6.8,2.4-13.9,3.3-19.3-2.9c-2-2.2-2.9-1.6-4.8-0.3c-6,4.4-12.7,6.4-20.2,4.6c-1.3-0.3-3-0.6-3.7-1.4c-4-5.4-7.6-3.4-12.3-0.7
				c-5.2,3-11.2,3.6-15.8-2c-1.6-2.1-2.5-0.4-3.6,0.4c-2.9,2.1-6,3.3-9.7,3.4c-5.5,0.2-8.8-2.3-10.3-7.8c-3.7,4.1-7.2,7.8-13,7.9
				c-8,0.1-12.9-4.1-13.5-12.1c-0.2-2.8-0.1-5.7,0.2-8.5c0.3-2.6,1.1-5.1,1.7-7.8c-3.8-0.4-4.7,1.3-5.2,4.5
				c-1.4,8.8-4.5,16.9-12.6,21.6c-9.5,5.5-18.2,3.2-24-5.9C180.1,324.5,180,323.1,179.8,321.6z M233.9,316.8c0.2,3.2-0.4,7.1,3.6,8
				c4,0.9,6.4-1.9,8.1-5.2c0.4-0.7,0.7-1.5,0.9-2.3c1.4-6.6,2.9-13.3,4.2-19.9c0.3-1.6,0.5-3.4-1.1-4.6c-1.7-1.2-3.4-0.8-5.2,0
				c-1.9,0.9-3.3,2.3-4.3,4C236.3,302.9,234.3,309.7,233.9,316.8z M193.9,317.3c0.3,3.5-0.9,7.4,3.3,8.4c4,1,6-2.1,7.8-4.9
				c2.3-3.7,3.5-7.9,4.5-12.1c0.2-1,0.4-1.9-0.5-2.7c-2.8-2.7-2-5.3,0.1-7.9c1.5-1.9,1-4-0.5-5.4c-1.7-1.6-3.8-1-5.4,0.5
				c-1.2,1.1-2.4,2.4-3.2,3.8C196.4,303.5,194.3,310.4,193.9,317.3z M341.7,298c-0.3,0-0.5,0-0.8,0c-2,4.3-4,8.7-6,13
				c-0.7,1.4-1.1,2.5-0.1,4.1c1.9,3,0.5,5-2.7,5.9c-1.3,0.4-2.9,0.2-2.8,2.1c0.1,1.6,1.3,2.6,2.7,3.3c4.9,2.2,10.8-1.6,10.8-7.3
				C342.8,312.1,342.1,305,341.7,298z M320.8,295.4c0-1.5,0.1-3.1-1.4-4c-1.7-0.9-3.2,0-4.4,1.2c-4,3.8-5.6,8.9-7.2,14
				c-0.3,1.1-1.2,2.3,0.1,3.2c1,0.7,2.2,0.1,3.3-0.4C316.4,307.3,320.7,301,320.8,295.4z"/>
			<path class="st2" d="M179.8,321.6c0.1,1.4,0.2,2.9,0.4,4.3c-5.9,6.4-13,9.7-21.8,8.9c-7.1-0.6-11.8-5-12.3-12.1
				c-0.7-10.3,1.8-19.8,8-28.1c5-6.6,11.8-9.5,20.1-8.5c6.2,0.7,9.5,6.6,7,12.1c-1.1,2.4-2.8,3.7-5.5,3c-2.8-0.8-1.5-2.9-1.3-4.5
				c0.4-2.1,0.4-4.3-1.6-5.3c-2.2-1.1-3.9,0.7-5,2.3c-5.7,8.2-8.1,17.4-7.8,27.3c0.1,4.2,2.8,6.1,7,6
				C172.2,326.9,176,324.2,179.8,321.6z"/>
			<path class="st3" d="M292,274.5c0,4.2-3.4,7.5-7.6,7.5c-4-0.1-7.2-3.2-7.4-7.2c-0.1-4.2,3.2-7.7,7.4-7.8
				C288.5,266.9,291.9,270.3,292,274.5z"/>
			<path class="st2" d="M131.5,178.9c2.7,0.1,4.2,2.3,4.1,5.5c-0.1,3.3-2.1,5.4-5.4,5.3c-3.3-0.1-5.2-2.3-5-5.6
				C125.3,180.9,127.1,178.8,131.5,178.9z"/>
			<path class="st2" d="M151.9,183.7c-0.2,3.6-1.8,5.8-5.1,6c-3.5,0.3-5.2-2.1-5.4-5.2c-0.2-3.2,1.6-5.3,5-5.6
				C150,178.7,151.5,180.8,151.9,183.7z"/>
			<path class="st2" d="M113.6,178.9c4.2,0.1,5.8,2.3,5.8,5.4c0.1,3.3-2,5.4-5.3,5.4c-3.4,0-5.1-2.2-5.1-5.4
				C109,180.9,110.9,179.1,113.6,178.9z"/>
		</g>
	</g>
</g>
<g id="Capa_2">
	<g>
		<g>
			<path class="st4" d="M96.2,335c-6.2,0.7-10.9-3.1-14.8-8.2c-8.1-10.3-14.2-21.7-19.9-33.4c-13.3-27.1-18.2-55.8-16.3-85.8
				c1.8-28.5,11.2-54.6,25.7-78.9c3.8-6.4,7.6-12.9,12.8-18.4c4.9-5.2,11-5.9,17.5-5.2c3.9,0.4,4.2,2.9,2.8,6.2
				c-4.8,10.9-10,21.8-14.1,33c-19.3,52.4-18.5,104.5,1.9,156.3c3.4,8.7,7.4,17.1,11,25.7C106.3,334.3,105.6,335.2,96.2,335z"/>
			<path class="st4" d="M215.9,163.8c0.5,39.3-13.2,73.9-35.3,105.6c-4.5,6.4-10.4,10-18.6,9.7c-6.2-0.3-7.4-1.6-4.8-7.2
				c4.4-9.5,8.9-19,12.6-28.8c21-54.9,19.9-109.6-2.3-163.9c-3.2-7.8-6.9-15.5-10.4-23.2c-2.3-5.2-1.2-6.8,4.6-7
				c7.7-0.3,14,2.1,18.5,8.7c18.5,27.2,32.1,56.3,34.8,89.6C215.6,152.8,215.9,158.3,215.9,163.8z"/>
			<path class="st4" d="M179.8,321.6c-0.3-9.4,1.9-18.2,7.5-25.9c4.3-5.9,10-9.7,17.7-9.8c7.2-0.1,10.6,2.8,12.6,10.3
				c0.4,1.6-0.8,4.5,2.4,4.7c2.7,0.2,4.7-1,6.2-3.4c3.2-5.1,7.3-9,13.3-10.7c4.6-1.3,8.8-1.2,13,2.3c1.3-5.6,2.8-10.7,3.5-15.9
				c0.4-2.8,1.9-3.6,4.1-4c11.2-2.3,11.3-2.2,8.7,9c-3,12.9-5.8,25.9-8.6,38.9c-1.2,5.8,0.4,8.6,4.1,7.6c2-0.5,3.4-1.5,3.9-4
				c1.9-10,4-19.8,5.9-29.8c0.6-3,1.8-4.1,4.9-4.1c10.5-0.1,10.5-0.2,8.1,10.2c-1.6,7.1-3,14.3-4.6,21.4c-0.7,2.9-0.9,5.4,2.6,6.4
				c3.1,0.8,6.7-2.1,6.8-5.5c0.2-8.2,2.3-15.8,6.8-22.6c4.4-6.9,10.6-10.9,19.1-10.8c8.5,0.1,12.3,5.6,9.6,13.8
				c-2.7,8.2-9,12.5-17,14.7c-2.1,0.6-4.8,0.1-4.5,3.8c0.3,3.4,0.2,6.8,4.1,8.2c5.5,2,12.4-1.4,14.3-7c0.4-1.2,0.9-2.7,1.8-3.6
				c7.2-7.1,9.6-16.6,12.8-25.6c1.4-3.8,3.4-5.1,7.1-5.4c8.3-0.7,8.6-0.8,9.4,7.2c0.9,8.8,1.3,17.6,1.4,26.4c0.1,7.1-4,12-10.6,14.3
				c-6.8,2.4-13.9,3.3-19.3-2.9c-2-2.2-2.9-1.6-4.8-0.3c-6,4.4-12.7,6.4-20.2,4.6c-1.3-0.3-3-0.6-3.7-1.4c-4-5.4-7.6-3.4-12.3-0.7
				c-5.2,3-11.2,3.6-15.8-2c-1.6-2.1-2.5-0.4-3.6,0.4c-2.9,2.1-6,3.3-9.7,3.4c-5.5,0.2-8.8-2.3-10.3-7.8c-3.7,4.1-7.2,7.8-13,7.9
				c-8,0.1-12.9-4.1-13.5-12.1c-0.2-2.8-0.1-5.7,0.2-8.5c0.3-2.6,1.1-5.1,1.7-7.8c-3.8-0.4-4.7,1.3-5.2,4.5
				c-1.4,8.8-4.5,16.9-12.6,21.6c-9.5,5.5-18.2,3.2-24-5.9C180.1,324.5,180,323.1,179.8,321.6z M233.9,316.8c0.2,3.2-0.4,7.1,3.6,8
				c4,0.9,6.4-1.9,8.1-5.2c0.4-0.7,0.7-1.5,0.9-2.3c1.4-6.6,2.9-13.3,4.2-19.9c0.3-1.6,0.5-3.4-1.1-4.6c-1.7-1.2-3.4-0.8-5.2,0
				c-1.9,0.9-3.3,2.3-4.3,4C236.3,302.9,234.3,309.7,233.9,316.8z M193.9,317.3c0.3,3.5-0.9,7.4,3.3,8.4c4,1,6-2.1,7.8-4.9
				c2.3-3.7,3.5-7.9,4.5-12.1c0.2-1,0.4-1.9-0.5-2.7c-2.8-2.7-2-5.3,0.1-7.9c1.5-1.9,1-4-0.5-5.4c-1.7-1.6-3.8-1-5.4,0.5
				c-1.2,1.1-2.4,2.4-3.2,3.8C196.4,303.5,194.3,310.4,193.9,317.3z M341.7,298c-0.3,0-0.5,0-0.8,0c-2,4.3-4,8.7-6,13
				c-0.7,1.4-1.1,2.5-0.1,4.1c1.9,3,0.5,5-2.7,5.9c-1.3,0.4-2.9,0.2-2.8,2.1c0.1,1.6,1.3,2.6,2.7,3.3c4.9,2.2,10.8-1.6,10.8-7.3
				C342.8,312.1,342.1,305,341.7,298z M320.8,295.4c0-1.5,0.1-3.1-1.4-4c-1.7-0.9-3.2,0-4.4,1.2c-4,3.8-5.6,8.9-7.2,14
				c-0.3,1.1-1.2,2.3,0.1,3.2c1,0.7,2.2,0.1,3.3-0.4C316.4,307.3,320.7,301,320.8,295.4z"/>
			<path class="st4" d="M179.8,321.6c0.1,1.4,0.2,2.9,0.4,4.3c-5.9,6.4-13,9.7-21.8,8.9c-7.1-0.6-11.8-5-12.3-12.1
				c-0.7-10.3,1.8-19.8,8-28.1c5-6.6,11.8-9.5,20.1-8.5c6.2,0.7,9.5,6.6,7,12.1c-1.1,2.4-2.8,3.7-5.5,3c-2.8-0.8-1.5-2.9-1.3-4.5
				c0.4-2.1,0.4-4.3-1.6-5.3c-2.2-1.1-3.9,0.7-5,2.3c-5.7,8.2-8.1,17.4-7.8,27.3c0.1,4.2,2.8,6.1,7,6
				C172.2,326.9,176,324.2,179.8,321.6z"/>
			<path class="st4" d="M292,274.5c0,4.2-3.4,7.5-7.6,7.5c-4-0.1-7.2-3.2-7.4-7.2c-0.1-4.2,3.2-7.7,7.4-7.8
				C288.5,266.9,291.9,270.3,292,274.5z"/>
			<path class="st4" d="M131.5,178.9c2.7,0.1,4.2,2.3,4.1,5.5c-0.1,3.3-2.1,5.4-5.4,5.3c-3.3-0.1-5.2-2.3-5-5.6
				C125.3,180.9,127.1,178.8,131.5,178.9z"/>
			<path class="st4" d="M151.9,183.7c-0.2,3.6-1.8,5.8-5.1,6c-3.5,0.3-5.2-2.1-5.4-5.2c-0.2-3.2,1.6-5.3,5-5.6
				C150,178.7,151.5,180.8,151.9,183.7z"/>
			<path class="st4" d="M113.6,178.9c4.2,0.1,5.8,2.3,5.8,5.4c0.1,3.3-2,5.4-5.3,5.4c-3.4,0-5.1-2.2-5.1-5.4
				C109,180.9,110.9,179.1,113.6,178.9z"/>
		</g>
	</g>
	<g>
	</g>
	<g>
	</g>
	<g>
	</g>
	<g>
	</g>
	<g>
	</g>
	<g>
	</g>
	<g>
	</g>
	<g>
	</g>
	<g>
	</g>
	<g>
	</g>
	<g>
	</g>
	<g>
	</g>
	<g>
	</g>
	<g>
	</g>
	<g>
	</g>
</g>
</svg>
