<?xml version="1.0" encoding="utf-8"?>
<!-- Generator: Adobe Illustrator 21.0.0, SVG Export Plug-In . SVG Version: 6.00 Build 0)  -->
<svg version="1.1" id="Capa_1" xmlns="http://www.w3.org/2000/svg" xmlns:xlink="http://www.w3.org/1999/xlink" x="0px" y="0px"
	 viewBox="0 0 400 400" style="enable-background:new 0 0 400 400;" xml:space="preserve">
<style type="text/css">
	.st0{fill:#FFFFFF;}
</style>
<g>
	<g>
		<path class="st0" d="M228.7,121.7c0.3-15.3,9.1-25.5,24.6-28.7c11-2.3,22-1.4,32.9,0.3c2.7,0.4,3.6,1.4,2.1,4
			c-1.3,2.4-2.3,4.9-3.6,7.4c-0.3,0.5-0.8,1.4-1.2,1.4c-4.2-0.2-3.1,2.8-3.1,5.1c0,12.1,0.3,24.2-0.1,36.3
			c-0.3,11.9-5.3,21.3-16.9,25.6c-10.5,3.9-21.1,3.3-31.7-0.2c-1.8-0.6-2-1.7-2-3.3c0-3.3,0-6.5-0.1-9.8c-0.1-2.6,0.7-3.3,3.2-2.1
			c5.5,2.5,11.4,3.6,17.4,3.3c8.1-0.4,12.7-4.4,13.6-11.7c0.3-2.4,0-3.7-3-2.8c-3.7,1.1-7.6,1.8-11.5,1
			C235.4,144.7,228.5,136.1,228.7,121.7z M264,119.3c-0.1,0-0.3,0-0.4,0c0-3.8-0.1-7.5,0-11.3c0-2.1-0.9-2.7-2.8-2.6
			c-11.8,0.5-17.2,8.7-14,20.5c1.7,6.5,8.5,9.4,15,7.3c1.6-0.5,2.4-1.3,2.3-3C264,126.6,264,122.9,264,119.3z"/>
		<path class="st0" d="M85.6,105.9c0,11.4-0.2,22.9,0.1,34.3c0.1,4-0.9,5.6-5.2,6.2c-9.2,1.3-18.3,2-27.5,0.4
			c-12.8-2.1-20.3-11.3-21.2-24.2c-1.4-21.3,15-33.3,33.6-30.6c2.5,0.4,3.2-0.7,3.2-3c-0.1-6.4,0-12.8-0.1-19.1
			c-0.1-2.7,0.9-3.7,3.6-3.5c3.4,0.2,6.8,0.2,10.1,0c2.9-0.2,3.5,1,3.5,3.6C85.6,82,85.6,93.9,85.6,105.9
			C85.6,105.9,85.6,105.9,85.6,105.9z M68.5,119.7C68.5,119.7,68.5,119.7,68.5,119.7c0-3.6,0-7.3,0-10.9c0.1-2.3-1-3.4-3.2-3.3
			c-2.1,0.1-4.2-0.3-6.2,0.2c-8.9,2.2-11.2,9.8-9.4,18.9c1.5,7.4,10,11.5,17.2,9.1c1.7-0.6,1.7-1.7,1.7-3
			C68.5,127,68.5,123.3,68.5,119.7z"/>
		<path class="st0" d="M288.1,120.2c0.1-10.8,3.3-20.3,13.5-25.4c10.8-5.4,21.8-5.2,32.2,1.7c5.9,4,8.5,10.1,9.5,16.8
			c1.6,11.3,0.1,22.1-9.8,29.5c-10.1,7.5-21.5,7.7-32.5,2.2C291.1,140.1,288.1,130.8,288.1,120.2z M305.5,119.9
			c-0.1,3.1,0.3,6.2,1.7,9.1c1.7,3.5,4.4,5.6,8.5,5.6c4.2,0.1,7-1.8,8.7-5.3c2.8-5.8,2.7-11.8,0.6-17.7c-1.4-4-4.4-6.4-8.8-6.5
			c-4.4-0.1-7.6,2.3-9.4,6.8C305.7,114.4,305.4,117.1,305.5,119.9z"/>
		<path class="st0" d="M172.7,121c0-7.4,0-14.8,0-22.3c0-1.7-0.1-3.4,2.2-3.9c11.2-2.3,22.4-4.9,33.9-2.4c9.7,2.2,14,7.4,14.4,18.4
			c0.4,11.1,0.1,22.1,0.2,33.2c0,2.3-1.1,2.9-3.1,2.8c-3.4-0.1-6.8-0.2-10.1,0.1c-3,0.2-4.1-0.8-4-4c0.2-9.2,0-18.5,0.1-27.7
			c0.2-10.5-5.6-11.2-14.8-9.2c-2.1,0.5-1.5,2.2-1.5,3.4c0,11.1-0.1,22.1,0,33.2c0.1,3.2-0.9,4.5-4.1,4.2c-3.1-0.3-6.3-0.2-9.4,0
			c-2.9,0.2-3.9-0.8-3.8-3.7C172.8,135.8,172.7,128.4,172.7,121z"/>
		<path class="st0" d="M164.8,124.8c0,6.6,0,12.4,0,18.1c0,1.3,0.5,3-1.7,3.3c-10.7,1.6-21.5,2.6-32.2,0.7
			c-6.7-1.2-10.6-5.6-11.4-11.6c-1.1-7.9,1.6-13.8,7.7-17.3c5.5-3.2,11.7-4,17.9-4.9c2.4-0.4,4.3-0.6,3.9-3.9
			c-0.4-3.1-2-4.2-4.9-4.3c-6.1-0.2-11.9,0.9-17.4,3.4c-3.2,1.5-3.9,0.7-3.9-2.6c0.1-9.7,0-9.9,9.4-12.3c6.7-1.7,13.5-2.5,20.4-1.1
			c7.2,1.5,10.4,4.8,11.6,12.1C165.4,111.4,164.4,118.6,164.8,124.8z M149.9,129.7c-0.9-1.5,1.8-4.9-2-5.4
			c-3.8-0.5-7.5,0.6-10.8,2.5c-2.1,1.2-2.4,3.2-2.2,5.4c0.2,2.3,2,3,3.7,3.4c1.7,0.4,3.6,0.3,5.4,0.3
			C149.9,135.7,150,135.6,149.9,129.7z"/>
		<path class="st0" d="M125.8,308.6c7.8-7.8,10.1-17.5,10.2-28.1c0.1-15.1-1.2-30-3-45.1c-2,4.3-3.9,8.6-6,12.9
			c-2.4,4.9-5.3,9.6-9.3,13.4c-1.5,1.4-3.2,2.7-5,3.7c-7.6,4.2-11.5,2.4-12.6-6.2c-1.9-15.1-1.7-30.1,4.9-44.3
			c6.2-13.4,18.4-18.1,32-12.2c2.3,1,2.9,2.9,2.9,5c0.1,2.7,0.3,5.5-0.1,8.2c-2.1,15.8,1.2,31.3,2.1,47c0.8,14.4,0.6,28.6-6.7,41.7
			c-2.3,4.1-5.2,7.7-9.4,10.2C125.4,312.6,128.9,310.6,125.8,308.6z M123.4,209.4c-4.3,0.2-8.5,3.2-11.4,8
			c-6.8,11.3-7.6,23.8-6.5,36.6c0.5,5.5,4.3,7,8.7,3.6c3.1-2.5,5.1-5.8,6.9-9.4c5-10.1,7.8-20.9,9.6-31.9
			C131.7,210.3,131.1,209.5,123.4,209.4z"/>
		<path class="st0" d="M112.6,121.3c-0.4,8.2,0.7,17.8-0.8,27.4c-1.4,9.1-6,15.9-13.9,20.5c-1.9,1.1-3.7,1.5-5.8,0.4
			c-3.3-1.8-6.8-3.3-10.2-4.8c-1.8-0.8-2.3-1.8-0.2-2.8c10.9-5.1,13.7-14.5,13.8-25.4c0.1-13.1,0.3-26.3,0.2-39.4
			c0-3.3,0.9-4.4,4.2-4.2c3.2,0.2,6.5,0.2,9.8,0c2.4-0.1,3.2,0.8,3.1,3.1C112.5,104,112.6,111.9,112.6,121.3z"/>
		<path class="st0" d="M253.9,313c0-6.2,0-12.5,0-18.7c0-1.3-0.2-2.9,1.8-2.8c1.6,0.1,3.8-1.2,4.5,1.5c0.6,2.4,1.3,2.3,3,0.6
			c3.6-3.7,8.6-3.6,12.3,0.3c1.1,1.2,1.7,1.2,2.7,0.1c3-3.2,6.9-3.9,10.7-2.3c3.7,1.6,4.4,5.3,4.4,8.9c0.1,10.4,0,20.8,0.2,31.2
			c0.1,3.4-2.3,2.7-4.2,2.9c-2.3,0.2-4-0.1-4-3.2c0.1-8.7,0.1-17.4,0.1-26.1c0-1.3,0-2.6,0-3.9c-0.1-2.4-0.5-4.7-3.5-4.6
			c-2.9,0.1-4.3,2-4.3,5c0,5.3,0,10.7,0,16c0,4.6-0.2,9.1,0,13.7c0.1,3.1-1.6,3.3-3.9,3.2c-2.4,0-4.2,0-4.1-3.4
			c0.2-9.8,0.1-19.5,0.1-29.3c0-2.4,0.1-4.9-3.2-5.2c-2.7-0.2-4.5,2-4.5,5.5c0,9.6-0.2,19.3,0.1,28.9c0.1,3.4-1.5,3.4-4,3.4
			c-2.5,0-4.2-0.1-4-3.4C254.1,325.2,253.9,319.1,253.9,313z"/>
		<path class="st0" d="M174.6,217.8c2.5-3.1,4.1-6.4,6.6-9c6-6.4,13-10.7,21.7-12.1c1.6-0.3,3.7-1.6,4.7,0.8c0.8,2-1.3,5.7-3.6,6.3
			c-6.8,1.8-12.2,5.7-16.7,10.9c-6.9,7.9-10.2,17.3-11.6,27.6c-0.9,6.6-0.4,13,0.6,19.4c0.7,4.2-2,4.1-4.5,4.5
			c-3.2,0.6-2.8-1.9-3-3.7c-1.1-14.6-2.2-29.3-3.3-43.9c-0.3-4.9-2.5-9.6-2.4-14.6c0-2.6,0-5.2,3.5-5.4c3.2-0.1,4.8,1.4,5.3,4.8
			C172.8,208,172.7,212.8,174.6,217.8z"/>
		<path class="st0" d="M309.6,293.5c9.1-4.7,14.1-2.4,15.5,7.4c1.3,9.1,1.8,18.4-0.7,27.4c-1.9,7-8,9-13.8,4.7
			c-1.2-0.9-1.7-1.3-2.5,0.3c-1.2,2.4-3.4,1.3-5.2,1.1c-1.8-0.3-1.2-2-1.2-3.2c0-16.8,0.1-33.5-0.1-50.3c0-3.9,2-3.5,4.6-3.7
			c3.1-0.2,3.7,1.1,3.6,3.8C309.4,285.1,309.6,289.1,309.6,293.5z M309.6,312.8C309.6,312.8,309.6,312.8,309.6,312.8
			c0,3.9-0.1,7.8,0,11.7c0.1,2.4,1.2,4.3,4,4.4c2.8,0,3.5-2.1,3.6-4.2c0.4-7.8,0.4-15.6,0-23.4c-0.1-2.4-0.9-4.6-3.8-4.3
			c-2.6,0.2-3.7,2.1-3.7,4.6C309.6,305.3,309.6,309.1,309.6,312.8z"/>
		<path class="st0" d="M176.6,312.5c-0.3-4.1,0-8.2,0.8-12.3c1.2-5.8,4.9-9.1,10.7-9.3c6.2-0.2,9.7,2.3,11.2,8.5
			c2.1,9.1,2.1,18.3-0.2,27.3c-1.6,6.1-5.5,8.7-11.4,8.4c-5.5-0.3-9.2-3.7-10.4-9.8C176.5,321.2,176.4,316.9,176.6,312.5z
			 M192.2,313.3C192.2,313.3,192.2,313.3,192.2,313.3c0-4,0.1-8.1-0.1-12.1c-0.1-2.1-0.9-4.3-3.6-4.2c-2.5,0.1-3,2.1-3.3,4.1
			c-1,7.8-1.1,15.6,0,23.3c0.3,2.1,0.7,4.3,3.4,4.4c3.1,0.1,3.4-2.5,3.6-4.6C192.3,320.6,192.2,316.9,192.2,313.3z"/>
		<path class="st0" d="M369.8,315.5c0,5.2,0,10.4,0,15.6c0,1.2,0.6,3-1.1,3.3c-1.6,0.4-3.7,1.1-4.8-1.1c-0.5-1-1-1.1-2.1-0.6
			c-7.3,3.3-9.9,3.1-12.8-0.6c-3-3.8-2.9-11.5,0.3-15.8c2.5-3.4,6.1-5.1,9.8-6.8c3.3-1.5,4.5-10,1.6-12c-2.2-1.5-4.3-0.9-5.6,1.5
			c-0.6,1.1-1,2.5-1,3.7c0,2.5-1.6,2.5-3.4,2.6c-2.2,0-2.9-0.9-3.1-3c-0.5-7.1,3.9-11.7,11.4-11.5c7.6,0.2,10.6,3.1,10.8,10.6
			C369.8,306.1,369.7,310.8,369.8,315.5C369.7,315.5,369.8,315.5,369.8,315.5z M362.1,321.1C362.1,321.1,362.1,321.1,362.1,321.1
			c0-1.4,0-2.8,0-4.3c0.1-2.5-0.9-2.8-3-1.6c-3.6,2.2-5.5,6.6-4.3,10.7c0.6,2,1.9,3.1,4,2.9c2.1-0.2,3.3-1.3,3.2-3.5
			C362.1,323.9,362.1,322.5,362.1,321.1z"/>
		<path class="st0" d="M246.9,312.2c0.1,6.1,0,11.5-2.3,16.6c-2.1,4.8-5.9,6.7-10.9,6.4c-4.7-0.3-7.9-2.9-9.2-7.2
			c-2.8-10.1-2.9-20.3-0.1-30.3c1.3-4.5,5.2-6.8,10.2-6.8c5.3,0,8.9,2.3,10.5,7C246.9,302.7,247.1,307.8,246.9,312.2z M238.8,313.2
			c0.3-4.2-0.1-8.3-0.6-12.4c-0.2-1.9-0.9-3.6-3.1-3.8c-2.6-0.3-3.6,1.7-3.8,3.6c-0.9,8.1-0.9,16.3,0,24.4c0.2,1.8,1,3.9,3.6,3.8
			c2.5-0.1,3.1-1.9,3.4-4C238.8,321,239,317.1,238.8,313.2z"/>
		<path class="st0" d="M222,214.1c0.4,13.4,0.9,28.6,1.4,43.8c0.1,1.7,0.2,3.4-0.6,5c-0.5,1.1-1.1,2.1-2.6,1.9
			c-1.3-0.1-2.2-1-2.3-2.3c-0.3-2.2-0.6-4.4-0.7-6.6c-0.6-14.9-1-29.9-1.7-44.8c-0.6-14.7-1.5-29.3-2.2-44c-0.1-1.7-1.4-4.2,2-4.9
			c4.2-0.9,4.7-0.6,4.9,3.7C221.2,181.3,221.9,196.8,222,214.1z"/>
		<path class="st0" d="M261.3,262.6l-0.2,0c0,0-0.1-0.2-0.1-0.2c-3.4-2.8-7.5-4-11.7-4.7c0,0,0,0,0,0c-0.7-2.3-2.7-2.3-4.6-2.4
			c0,0-0.1,0-0.1,0c-0.4-1.1-1.3-1.5-2.4-1.5c0,0,0,0,0,0c-0.5-2.9-2.2-3.9-5-3.5c0,0-0.1,0-0.1,0c0.8-2.1,2.2-2.9,4.5-2.3
			c1.2,0.3,2.5,0.2,3.8,0.3c0,0,0,0,0,0c0.3,0.3,0.6,0.5,0.9,0.8c0.3,0,0.5,0.1,0.7,0.3c0.2,0.2,0.5,0.4,0.7,0.6c0,0,0,0,0,0
			c0.3,1.2,1.3,1.5,2.4,1.5c0.5,0.3,1,0.6,1.5,0.9c2,3,4.9,3.8,8.3,3.7l0.3,0.1c0.5,0.4,0.8,1,1.4,1.3c6,2.9,12.4,1.7,18.7,1.7
			c1.2,0,1.6-1.1,1.7-2.2c0,0,0,0,0,0c1.7-0.3,2.6-1.4,2.1-3c-0.6-2.2-0.1-5.3-3.7-5.5c0,0,0,0,0,0c-0.3-0.3-0.5-0.5-0.8-0.8
			c0,0,0,0,0,0c-1-3.5-4-4.2-7-4.7c-0.7,0-1.2-0.2-1.6-0.8c-0.5-0.3-1-0.5-1.5-0.8c0,0-0.1,0-0.1,0c-3.3-3.2-7-5.7-11.8-6.2
			c-0.6,0-1.2-0.2-1.5-0.8c-0.4-2.7-2.3-3.3-4.6-3.1c-0.3-0.2-0.6-0.5-0.9-0.7c0-1.1,1.1-2.1,0-3.2c-5.7-6-5.4-6-5.2-13.6
			c0.1-2.4,0.9-4.5,1.2-6.7c0,0,0,0,0,0c1.5,0.1,2.7-0.3,3.9-1.3c3.5-3.1,8.1-3.3,12.4-4c4.8-0.9,9.4,1,13.8,2.8
			c1,0.4,2.8,0.2,2.1,2c-0.6,1.6-1.9,0.5-3,0.4c-5.3-0.3-10.4-4.4-15.9-0.8c-0.3,0.2-0.8,0.2-1.1,0.1c-5-2-6.6,1.5-8.3,4.9
			c-2.6,5.1,0.6,14.2,5.7,16.2c0.2,0.2,0.4,0.3,0.5,0.5c-0.3,2.8,1.9,3.1,3.7,4c3.3,1.6,6.1,4.4,10.2,3.6c0,0,0.2,0,0.2,0
			c1.3,2.8,3.8,3.2,6.5,3c0,0,0.3,0.1,0.3,0.1c-0.3,4.4,2.7,3.1,5.1,3c0.9,0.2,1.6,0.7,2.1,1.5c1.2,3.3,3.5,5.6,6,7.9
			c0.1,0.5,0.1,1,0.2,1.6c-1,1.6-1,3.1,0,4.7c0,0.5-0.1,1-0.1,1.6c-2.2,0.6-3.2,2-2.6,4.3c0,0-0.1,0-0.1,0c-5.3,0.6-10.6,1.3-16,1.9
			c-0.5,0-1.1-0.1-1.6-0.1C268.1,262.5,264.8,262.3,261.3,262.6z"/>
		<path class="st0" d="M207.8,305.5c0-8.3,0.1-16.7-0.1-25c-0.1-3.1,1.4-3.3,3.8-3.3c2.4,0,4.2-0.1,4.2,3.3
			c-0.1,16.9-0.1,33.8,0,50.8c0,3.4-1.9,3.4-4.2,3.4c-2.5,0-3.8-0.6-3.7-3.5C207.9,322.7,207.8,314.1,207.8,305.5
			C207.8,305.5,207.8,305.5,207.8,305.5z"/>
		<path class="st0" d="M158.6,335c-0.6-0.1-1.1-0.1-1.7-0.2c-0.2-0.1-0.5-0.3-0.7-0.4c0,0,0,0,0,0c-4.7-4.2-7.7-9.3-7.7-15.8
			c0-5.8,0-11.7-0.1-17.5c0-2.2,0.5-4.4-0.7-6.5c-0.1-1.1-0.2-2.1,0.3-3.1c3.2-1.2,2.3-4,2.7-6.4c0,0,0,0,0,0
			c1.4-0.1,2.2-0.9,2.4-2.3c0,0,0,0,0,0c4.1,0.6,4.6,1.4,2.6,4.8c-0.7,1.2-1,2.3-1,3.7c0,10.9,0,21.8,0,32.6c0,1.6,0,3.2,2.2,3.5
			c0,0,0.1,0.1,0.1,0.1c0.2,0.8,0.1,2.1,1.6,1.4c1,0,2.1-0.1,3.1-0.1c0.5-0.3,1-0.7,1.5-1c0,0-0.1,0.1-0.1,0.1c4,0.8,4,0.8,2.9-3
			c-0.3-1.1-0.3-2.3-0.4-3.4c-0.2-2.8,1.9-2.1,3.5-2.2c2.2-0.2,1.9,1.2,1.6,2.6c-0.6,2.4-0.4,4.9-0.3,7.3c0.1,0.2,0,0.4-0.2,0.5
			C166.8,332.4,162,332.2,158.6,335z"/>
		<path class="st0" d="M157.1,233.9c0,9.4,0,18.7,0,28.1c0,1.2,0.9,3.3-1.3,3.4c-2,0.1-3.8-0.9-4.2-3.3c-0.1-0.6-0.1-1.3-0.1-1.9
			c0-17.7,0-35.3,0-53c0-0.8-0.1-1.6,0.1-2.3c0.5-2.1,2.2-3,4-3c2.2,0,1.4,2.1,1.4,3.3C157.1,214.6,157.1,224.3,157.1,233.9
			C157.1,233.9,157.1,233.9,157.1,233.9z"/>
		<path class="st0" d="M340.7,313.1c0,6.2-0.1,12.5,0.1,18.7c0.1,3-1.7,3-3.7,3c-2-0.1-4.3,0.5-4.3-2.9c0.1-12.6,0.1-25.2,0-37.8
			c0-2.9,1.7-2.8,3.6-2.6c1.8,0.2,4.5-1,4.5,2.5C340.7,300.3,340.8,306.7,340.7,313.1C340.8,313.1,340.7,313.1,340.7,313.1z"/>
		<path class="st0" d="M95.6,74.9c0-8.5,0-8.5,8.2-8.5c8.8-0.1,8.8-0.1,8.8,8.7c0,8.9,0,8.9-7.7,9C95.6,84.2,95.6,84.2,95.6,74.9z"
			/>
		<path class="st0" d="M256.5,227.3c-5.1-2-8.3-11.1-5.7-16.2c1.7-3.4,3.3-7,8.3-4.9c0.3,0.1,0.9,0.1,1.1-0.1
			c5.5-3.6,10.6,0.5,15.9,0.8c1.1,0.1,2.4,1.2,3-0.4c0.6-1.8-1.2-1.6-2.1-2c-4.4-1.8-9-3.7-13.8-2.8c-4.3,0.8-8.9,1-12.4,4
			c-1.2,1-2.4,1.4-3.9,1.3c4.3-4.8,10-6.7,16.3-7c5.9-0.2,11.6,1.3,16.8,4c1.1,0.6,3.5,0.8,1.9,3.2c-1.1,1.5-1.8,3.3-4.5,1.8
			c-5.8-3.1-12.1-2.8-18.2-1.2c-8.4,2.2-9.7,6.3-5.9,15.2C254,224.6,255.4,225.9,256.5,227.3z"/>
		<path class="st0" d="M125.8,308.6c3.1,2-0.4,4,0,6c-0.1,0.2-0.2,0.3-0.5,0.3c-1,0.1-2.1-0.1-3,0.3c-6.3,2.6-12.6,3.2-19,0.6
			c-0.8-0.3-1.8,0-2.7,0c0,0,0,0,0,0c0.4-2.3-1.2-3.1-2.7-4.2c-0.8-0.6-1.2-1.5-0.4-2.3c0.7-0.7,1.5-0.4,2.1,0.1
			c1.7,1.5,3.6,2.5,6,2.2c0.6,0,1.2,0.1,1.6,0.7c1.1,2.4,2.9,1.7,4.6,0.9c0.5,0,1.1,0,1.6,0c3.8,1.1,8.1-0.2,10.1-3.1
			c0,0,0.1,0,0.1,0c0.2-0.1,0.4-0.2,0.6-0.4C124.7,309.4,125.2,309,125.8,308.6z"/>
		<path class="st0" d="M156.9,327.4c-2.1-0.3-2.2-1.9-2.2-3.5c0-10.9,0-21.8,0-32.6c0-1.3,0.4-2.5,1-3.7c2-3.4,1.5-4.2-2.6-4.8
			c5-3.6,11.1-3.2,15.4,0.8c-1.9-0.9-4.4,0.5-6.2-1.3c-1.4-1.5-2.6-1-3.3,0.6c-0.8,1.7-0.1,2.8,1.8,3c1.5,0.2,2.4,0.8,2.4,2.4
			c-3.4-2.3-6.4-1.7-6.6,1.9C155.7,302.6,155.2,315,156.9,327.4z"/>
		<path class="st0" d="M341.6,279.2c0.1,4.1-1.5,5.9-4.7,6c-2.9,0-5-2.1-4.9-5.3c0.1-3,1.7-4.8,4.9-4.8
			C340.1,275.1,341.8,276.6,341.6,279.2z"/>
		<path class="st0" d="M163.2,288.3c0-1.6-0.9-2.3-2.4-2.4c-1.9-0.2-2.5-1.3-1.8-3c0.7-1.6,1.9-2.1,3.3-0.6c1.8,1.9,4.2,0.4,6.2,1.3
			c0,0,0.2,0.2,0.2,0.2c0.1,0.2,0.3,0.4,0.5,0.5c0.1,0.2,0.3,0.4,0.4,0.6c-0.1,3,1.1,5.9,0.7,8.9c-0.2,1.7-1.3,2.6-2.8,2.6
			c-1.9,0.1-1.7-1.5-1.8-2.8c-0.1-1.7,0-3.4,1.2-4.8c0.4-0.5,0.8-1.1,0.2-1.7c-0.5-0.5-1.2-0.3-1.8,0
			C164.6,287.6,163.9,288,163.2,288.3C163.2,288.3,163.2,288.3,163.2,288.3z"/>
		<path class="st0" d="M245.3,248.4c-1.3-0.1-2.6,0-3.8-0.3c-2.3-0.6-3.7,0.2-4.5,2.3c-2.5-1.7-4.4-3.9-6.4-6.1
			c-0.7-0.8-1.5-1.5-0.9-2.7c0.5-1.2,1.6-1.6,2.8-1.7c1.7-0.2,3,0.3,4.2,1.4C239.6,243.7,242.5,246,245.3,248.4z"/>
		<path class="st0" d="M156.3,184.6c-0.1,1.6-0.8,4.3-4.1,4.3c-2.5,0-4.5-1.5-4.7-4.3c-0.2-2.2,3.9-5.6,6.3-5.5
			C155.8,179.2,156.4,180.3,156.3,184.6z"/>
		<path class="st0" d="M147.8,294.6c1.1,2.1,0.6,4.3,0.7,6.5c0.1,5.8,0,11.7,0.1,17.5c0,6.5,3.1,11.6,7.7,15.8
			c-5.8-1.3-7.9-5.9-8.4-10.8C147,313.9,146.9,304.2,147.8,294.6z"/>
		<path class="st0" d="M163.2,288.3c0.7-0.4,1.4-0.7,2.1-1.1c0.6-0.3,1.3-0.5,1.8,0c0.6,0.6,0.2,1.2-0.2,1.7
			c-1.2,1.4-1.3,3.1-1.2,4.8c0.1,1.3-0.1,2.9,1.8,2.8c1.5-0.1,2.6-0.9,2.8-2.6c0.4-3-0.8-5.9-0.7-8.9c2.9,3.8,2.1,8.1,1.3,12.2
			c-0.5,2.3-3.1,1-4.7,1.2c-1.7,0.2-2.3-0.9-2.2-2.4C164.3,293.4,163.8,290.8,163.2,288.3z"/>
		<path class="st0" d="M170.4,329.2c-0.1-2.5-0.3-4.9,0.3-7.3c0.3-1.3,0.6-2.7-1.6-2.6c-1.6,0.1-3.6-0.6-3.5,2.2
			c0.1,1.2,0,2.3,0.4,3.4c1.1,3.8,1,3.8-2.9,3c1.1-2.4,1.2-5,1.1-7.6c-0.1-3.3,2.1-2.9,4.2-3c2.3-0.1,3.7,0.4,3.6,3.2
			C171.8,323.5,172.1,326.5,170.4,329.2z"/>
		<path class="st0" d="M246.8,207c-0.3,2.3-1.2,4.3-1.2,6.7c-0.2,7.5-0.5,7.5,5.2,13.6c1.1,1.2-0.1,2.2,0,3.2
			c-5.3-4-8.2-9.2-7.8-15.9C243.2,211.6,244.1,208.8,246.8,207z"/>
		<path class="st0" d="M100.6,315.8c0.9,0,1.9-0.3,2.7,0c6.4,2.6,12.7,2,19-0.6c0.9-0.4,2-0.2,3-0.3
			C118,319.9,107.5,320.2,100.6,315.8z"/>
		<path class="st0" d="M105.5,311.7c-2.4,0.2-4.2-0.8-6-2.2c-0.6-0.5-1.4-0.9-2.1-0.1c-0.8,0.9-0.4,1.8,0.4,2.3
			c1.5,1.1,3.1,1.9,2.7,4.2c-2.5-0.9-3.9-2.8-5-5.1c-0.5-1-0.8-2.4,0.1-3.3c0.9-1,2.2-0.4,3.2,0.2
			C101.2,309,103.3,310.3,105.5,311.7z"/>
		<path class="st0" d="M282,257c-0.1,1.1-0.5,2.2-1.7,2.2c-6.3,0-12.7,1.2-18.7-1.7c-0.5-0.3-0.9-0.9-1.4-1.3
			c4.6,0.9,9.2,2.1,14,2.3C276.9,258.6,279.5,258.3,282,257z"/>
		<path class="st0" d="M271,235.5c-4.1,0.8-6.9-2-10.2-3.6c-1.8-0.9-4.1-1.2-3.7-4C261.4,230.9,266.2,233.1,271,235.5z"/>
		<path class="st0" d="M272.7,264.8c5.3-0.6,10.6-1.3,16-1.9C283.6,266,278.2,265.9,272.7,264.8z"/>
		<path class="st0" d="M158.6,335c3.4-2.8,8.1-2.6,11.6-5.3C167.8,334.6,163.6,335.6,158.6,335z"/>
		<path class="st0" d="M257.7,235.2c4.8,0.5,8.5,2.9,11.8,6.2C265.5,239.5,261.3,238,257.7,235.2z"/>
		<path class="st0" d="M249.2,257.8c4.3,0.6,8.3,1.8,11.7,4.7C256.7,261.7,252.8,260.2,249.2,257.8z"/>
		<path class="st0" d="M291.2,250.8c-2.5-2.2-4.9-4.6-6-7.9C288.2,244.8,290.4,247.3,291.2,250.8z"/>
		<path class="st0" d="M123.4,310.2c-2,2.9-6.3,4.3-10.1,3.1C116.8,312.5,120.2,311.8,123.4,310.2z"/>
		<path class="st0" d="M280.4,248.5c3.6,0.2,3,3.3,3.7,5.5c0.5,1.6-0.4,2.7-2.1,3C283.7,253.7,282.2,251.1,280.4,248.5z"/>
		<path class="st0" d="M283.1,241.5c-2.3,0.1-5.4,1.4-5.1-3C279.9,239.2,281.8,239.8,283.1,241.5z"/>
		<path class="st0" d="M261.3,262.6c3.5-0.3,6.8-0.1,9.8,2.1C267.7,264.7,264.4,264,261.3,262.6z"/>
		<path class="st0" d="M272.7,243c3,0.6,6,1.2,7,4.7C277.3,246.1,275,244.5,272.7,243z"/>
		<path class="st0" d="M259.9,256.1c-3.4,0.1-6.3-0.7-8.3-3.7C254.3,253.7,257.1,254.9,259.9,256.1z"/>
		<path class="st0" d="M150.7,285.1c-0.4,2.3,0.4,5.2-2.7,6.4C148.5,289.1,148.9,286.8,150.7,285.1z"/>
		<path class="st0" d="M277.7,238.4c-2.7,0.2-5.2-0.1-6.5-3C273.5,236.2,275.7,237,277.7,238.4z"/>
		<path class="st0" d="M237.2,250.4c2.8-0.4,4.6,0.6,5,3.5C240.2,253.2,238.7,251.8,237.2,250.4z"/>
		<path class="st0" d="M251.7,231.2c2.3-0.1,4.2,0.4,4.6,3.1C254.5,233.6,252.9,232.7,251.7,231.2z"/>
		<path class="st0" d="M288.7,262.9c-0.6-2.3,0.4-3.6,2.6-4.3C291.1,260.4,290.1,261.8,288.7,262.9z"/>
		<path class="st0" d="M291.4,257c-1-1.6-1-3.1,0-4.7C291.9,253.9,292.1,255.5,291.4,257z"/>
		<path class="st0" d="M111.7,313.4c-1.8,0.8-3.5,1.5-4.6-0.9C108.6,312.7,110.2,313.1,111.7,313.4z"/>
		<path class="st0" d="M244.6,255.4c1.9,0.1,3.8,0.1,4.6,2.4C247.4,257.5,246,256.6,244.6,255.4z"/>
		<path class="st0" d="M153.1,282.8c-0.2,1.4-1,2.1-2.4,2.3C151.1,283.9,152,283.2,153.1,282.8z"/>
		<path class="st0" d="M250,251.5c-1.1,0-2-0.3-2.4-1.5C248.4,250.5,249.2,251,250,251.5z"/>
		<path class="st0" d="M242.2,253.9c1.1,0,2,0.3,2.4,1.5C243.6,255.2,242.8,254.7,242.2,253.9z"/>
		<path class="st0" d="M158.6,329c-1.6,0.7-1.4-0.6-1.6-1.4C157.5,328,158,328.5,158.6,329z"/>
		<path class="st0" d="M269.6,241.4c0.5,0.3,1,0.5,1.5,0.8C270.6,241.9,270.1,241.6,269.6,241.4z"/>
		<path class="st0" d="M163.2,327.9c-0.5,0.3-1,0.7-1.5,1C162.2,328.5,162.7,328.2,163.2,327.9z"/>
		<path class="st0" d="M246.2,249.1c-0.3-0.3-0.6-0.5-0.9-0.8C245.6,248.6,245.9,248.9,246.2,249.1z"/>
		<path class="st0" d="M279.6,247.7c0.3,0.3,0.5,0.5,0.8,0.8C280.2,248.2,279.9,247.9,279.6,247.7z"/>
		<path class="st0" d="M124.1,309.8c-0.2,0.2-0.4,0.3-0.6,0.4C123.7,310,123.9,309.9,124.1,309.8z"/>
		<path class="st0" d="M247.6,250c-0.2-0.2-0.5-0.4-0.7-0.6C247.1,249.6,247.4,249.8,247.6,250z"/>
		<path class="st0" d="M169.2,284.3c-0.2-0.1-0.4-0.3-0.5-0.5C168.9,284,169,284.1,169.2,284.3z"/>
		<path class="st0" d="M156.2,334.4c0.2,0.1,0.5,0.3,0.7,0.4C156.7,334.7,156.5,334.5,156.2,334.4z"/>
	</g>
</g>
<g>
</g>
<g>
</g>
<g>
</g>
<g>
</g>
<g>
</g>
<g>
</g>
<g>
</g>
<g>
</g>
<g>
</g>
<g>
</g>
<g>
</g>
<g>
</g>
<g>
</g>
<g>
</g>
<g>
</g>
</svg>
