<?xml version="1.0" encoding="utf-8"?>
<!-- Generator: Adobe Illustrator 21.0.0, SVG Export Plug-In . SVG Version: 6.00 Build 0)  -->
<svg version="1.1" id="Capa_1" xmlns="http://www.w3.org/2000/svg" xmlns:xlink="http://www.w3.org/1999/xlink" x="0px" y="0px"
	 viewBox="0 0 400 400" style="enable-background:new 0 0 400 400;" xml:space="preserve">
<style type="text/css">
	.st0{fill:#FCF6FB;}
	.st1{fill:#EE89B1;}
</style>
<g>
	<g>
		<path class="st0" d="M7.9,233.1c0.1-0.8,0.2-1.7,0.3-2.5c3.1-10.1,5.2-20.5,10-30.1c2.4-4.7,7.6-9,2.6-15.2
			c-0.6-0.7,0-2.5,0.2-3.7c4.6-24.1,34.4-45.8,58.8-43.6c12.3,1.1,22.2,6.5,31.6,13.6c0.6,0.5,1.3,1,1.9,1.5
			c0.6,0.4,1.2,0.9,1.7,1.3c0,0-0.2,0.2-0.2,0.2c0.9,3.1,3,5.3,5.4,7.3c0,0,0,0,0,0c0.3,1.6,1.1,3,2.6,3.9c0,0,0-0.1,0-0.1
			c0,1.1,0.4,2,1.3,2.6c0,0-0.1,0-0.1,0c4.2,10.9,7.7,21.9,8,33.8c0.5,22.5-4.6,43.7-14.6,63.8c-1.4,2.9-2.1,4.7,1.8,6.3
			c16.8,7.1,33.8,13.8,52,16.5c9.5,1.4,19,1.3,28.1-2.8c5.1-2.4,6-1.5,5.3,4.4c-1.5,11.3-7.7,19.5-17.1,25.5c-0.3,0-0.5,0.1-0.8,0.3
			c-12.2,3.2-23.7,1.5-34.8-4.4c-3.5-1.9-7.2-3.3-10.9-4.9c0,0,0,0,0,0c-3.4-2.9-6.9-5.4-11.4-6.4c0,0,0-0.1,0-0.1
			c-1.5-2.4-3.8-3.3-6.4-3.7c0,0,0,0,0,0c-3.6-4.1-9-5.3-13.4-8c-4.6-2.9-7.9-1.9-10.1,3c-1.7,0.4-2.7,1.4-3.5,2.9c0,0,0,0,0,0
			c-0.9,0.8-1.9,1.5-2.8,2.3c0,0-0.1,0-0.1,0c-4.8,2.5-9.6,5.1-14.4,7.6c-0.6,0.1-1.2,0.2-1.9,0.3c-14.6,3.3-29.1,3.2-43.1-2.8
			c0,0,0,0.1,0,0.1c-0.6-0.9-1.4-1.4-2.5-1.4c0,0,0.1,0,0.1,0C17.9,289.5,9.3,276,7.3,258.5C6.3,249.9,8.1,241.5,7.9,233.1z
			 M80.9,165.4c5.7,6.2,8.5,13.6,8.8,22c0.3,8.1-1,9-9.1,7.4c-3.5-0.7-7.2-1-10.7-1c-3.8,0-7.6,0.5-12.9,0.8
			c6-4.6,11.9-4.3,18.3-5.9c-4.2-2.2-7.3-1.7-10.3-1c-8.3,1.9-14.6,6.8-19.7,13.3c-14.8,19.1-20.2,40.8-17.3,64.6
			c0.4,3.7,0.7,7.5,3.6,10.8c3.1-14.3,9.8-19.9,24.3-20.7c10.9-0.6,21.6,0.6,32.1,3.9c3.8,1.2,7.7,2.3,11.6,3.4
			c1.1-3.7,2.1-7.5,3.2-11.2c5.9-18.6,8.9-37.5,6-57.1c-2.6-17.5-11.8-29.2-26.2-32.3c-12.9-5-24.7-2.3-35.7,5.4
			C58,162.6,69.1,159.4,80.9,165.4z M91.2,280.6c-13-5.8-25.6-9.1-39.2-5.3c-4.5,1.3-9.1,3.3-9.1,9.1c0,5.7,4.4,7.9,8.9,9.3
			c9.9,3,18.8,0.3,26.9-5.4C82.5,285.7,86.1,282.7,91.2,280.6z"/>
		<path class="st0" d="M368,239.5c-0.1,0.8-0.2,1.7-0.3,2.5c-1.1,3.7-1.4,7.5-0.8,11.3c1.1,6.6,3.9,8.1,9.5,4.5
			c4.2-2.8,8-6.2,11.8-9.5c2.4-2,3.3-1.8,3.9,1.5c1.3,7.2,0.8,13.3-6.7,17c-1.3,0.6-2.2,2-3.2,3c-0.3,0-0.5,0.1-0.6,0.3
			c-3.2,0.9-5.9,2.6-8.3,4.8c-1,0.2-2.1,0.4-3.1,0.7c-11.5,1.4-15-1.2-16.6-12.1c-0.4-2.5-0.9-4.9-1.3-7.4c0-1.7,0.1-3.4,0.1-5.1
			c0.7-5.2,1.5-10.3,2.2-15.5c-2.4,1-3.2,2.2-3.9,3.5c-2.1,4.4-4.1,8.8-6.2,13.2c-0.2,0.2-0.2,0.4-0.2,0.7
			c-4.2,6.1-7.3,12.8-10,19.7c-0.2,0.1-0.3,0.3-0.2,0.6c-4.1,3.5-8.6,3.7-13.3,1.6c0,0,0,0.2,0,0.2c-0.5-0.8-1-1.6-1.5-2.4
			c0,0,0,0.1,0,0.1c-1.8-8.4-1.9-8.4-9-4.2c-10.3,6.2-21.2,9.3-33.3,7.3c-0.8-0.2-1.6-0.4-2.5-0.6c-3.3-2.3-7.3-3.8-9.5-7.3
			c-3-4.8-5.8-3.6-9.8-1.1c-13.8,8.9-28.3,13.3-44.2,5.5c0,0,0.1,0,0.1,0c-5.5-7.2-5.6-7.3-13.3-3.1c-5.2,2.8-10.8,4.6-16.3,6.5
			c-0.9,0.1-1.7,0.2-2.6,0.3c-6.5-0.4-10.3-4-12.2-10.1c-1.2-4-2.9-3.7-4.7-0.3c0,0-0.2,0.4-0.2,0.4c-2,0.9-3.6,2.3-4.7,4.2
			c0,0,0,0,0,0c-2.7,1-4.8,2.9-6.9,4.9c-0.6,0.2-1.3,0.4-1.9,0.6c-13.2,2.4-18.2-1.7-18.2-15.2c0-13.9,3-27.3,6-40.8
			c0.9-3.9,2.8-7.6,5.9-10.4c3-2.7,6.4-3.3,10-1.9c4.2,1.6,2.1,4.9,1.7,7.6c-1.8,12.1-3.8,24.3-5.5,36.4c-0.4,3.1-0.8,6.8,3.1,8.1
			c3.6,1.2,5.9-1.5,8-3.9c0.8-0.9,1.1-2.2,1.6-3.3c0.1-0.6,0.2-1.2,0.4-1.9c1.6-1.6,2.2-3.6,1.8-5.8c0.1-0.8,0.2-1.7,0.4-2.5
			c3.3-9.2,4.2-19,6.1-28.5c0.9-4.3,3.3-6.1,7.2-6.8c7.1-1.1,9.5,1.5,10,11.1c-0.1,0.9-0.2,1.7-0.3,2.6c-1,1.2-1.1,2.5-0.7,3.9
			c-0.1,0.9-0.3,1.7-0.4,2.6c-1.6,3.6-1.9,7.5-2.1,11.5c-0.2,0.8-0.3,1.7-0.5,2.5c-1.1,2-1.6,4.1-1.1,6.4c-0.1,1.7-0.2,3.3-0.3,5
			c-0.4,4-0.6,8.1,5.3,7.5c8.3-0.8,13.3-6.4,13.4-14.8c0.3-20.3,9-32.8,27-38.9c0.8,0,1.7,0,2.5,0c7.1,1,13.2,3.8,17.6,9.8
			c-0.1,0.3,0,0.5,0.2,0.7c3.3,12.2-1.5,21.5-10.8,28.9c-4,3.2-8.5,5.6-13.3,7.3c-3.4,1.2-4.3,2.7-0.8,5c0,0,0.4,0.2,0.4,0.2
			c2.7,3.9,6.6,3.3,10.3,2.4c6.2-1.4,11.8-4.5,17.3-7.6c5.6-3.1,8-7.1,6.7-13.4c0.1-0.9,0.2-1.7,0.3-2.6c0.2-0.9,0.3-1.7,0.5-2.6
			c0.3-0.8,0.5-1.7,0.8-2.5c3-7.9,7.6-14.9,13.2-21.2c0,0,0.1,0,0.1,0c1.2-0.4,2.4-0.8,3.5-1.3c16.2-7.2,28.5-0.4,30.7,17.1
			c0.1,0.7,0.2,1.4,0.3,2.1c-2.5,4.4-4.9,8.8-7.4,13.2c-3.5,2.1-6.8,4.4-9.3,7.5c-0.6,0.2-1.2,0.4-1.8,0.7c-2.3,0.4-4.3,1.4-5.9,3.2
			l-0.4-0.1c0,0-0.3,0.2-0.3,0.2c-1.6,0.3-4.2,0.1-3.9,2.1c0.4,3.1,3.1,5.1,6.1,5.4c6.2,0.8,11.9-1,17.1-4.6
			c0.8-0.4,1.7-0.9,2.5-1.3c3.1-0.8,5.8-2.4,7.8-5c0,0,0,0,0,0c3.1-1.4,5.9-3.1,7.2-6.6c0.1-1.7,0.3-3.4,0.4-5
			c1.6-4.6,1.9-9.3,2.3-14.1c0.1-0.8,0.2-1.6,0.3-2.5c1.9-4.6,2.1-9.8,5.2-13.9c0,0,0,0,0,0c9.9-3.1,13.4-0.4,12.7,9.9
			c-0.4,5.7-1.3,11.4-1.9,17c0.6,0.2,1.1,0.4,1.7,0.6c3.9-7.6,7.7-15.1,11.6-22.7c0.5-0.7,0.9-1.3,1.4-2c4.5-2.9,9.1-6.4,14.5-2.8
			c5.2,3.5,4.5,9.1,3.7,14.4c-0.1,0.6,0,1.3,0,1.9c-0.1,0.8-0.3,1.7-0.4,2.5C368.8,230.8,367.9,235.1,368,239.5z M218.3,235.7
			c-0.3,5.3,0.6,6.6,3.8,5.5c5.3-1.8,9.8-5.1,12.4-10.2c1.6-3.2,1.4-6.9-1.5-9.3c-3.3-2.7-6.5-0.7-9.1,1.6
			C220.1,226.6,218.7,231.2,218.3,235.7z M275.7,236.5c0.1,2.5-0.7,5.9,3.7,4.5c5.6-1.8,10.2-5.4,12.7-10.8c1.4-3,1.1-6.4-1.7-8.7
			c-2.9-2.3-5.7-0.7-8.1,1.1C277.5,226.1,276.4,231.3,275.7,236.5z"/>
		<path class="st0" d="M349.7,127.2c-0.4,0.1-0.8,0.2-1.2,0.4c-4.7,0-9.4,0-14,0.1c-0.4-0.2-0.8-0.3-1.2-0.4
			c-0.1-4.2,0-8.5-0.2-12.7c-0.4-6.8-3.3-9.9-9-10c-6-0.1-9.6,3.2-9.7,10.1c-0.2,20.8-0.2,41.5,0,62.3c0.1,6.3,3.8,9.9,9.2,9.9
			c5.5,0,9.1-3.5,9.4-9.9c0.3-5.5,0.1-11,0.1-16.5c0,0,0.1-0.1,0.1-0.1c3.8-0.1,7.6,0,11.4-0.2c4.2-0.3,5.6,1.6,5.5,5.6
			c-0.1,4.2,0.2,8.4,0.3,12.6c-0.1,0.9-0.2,1.7-0.3,2.6c-2.4,10.3-7.6,18.2-18.7,20.8c-18.1,4.2-29.3-2.8-35.1-22.1
			c0-4.7-0.1-9.4-0.1-14.1c0.1-15.1,0.4-30.1,0.2-45.2c-0.1-8.9,1.4-17.3,6.6-24.8c0.4-0.4,0.8-0.8,1.2-1.1
			c21.3-11.9,38.3-6.3,45.9,15.1c0.1,0.9,0.2,1.7,0.3,2.6C350.1,117.1,349.9,122.2,349.7,127.2z"/>
		<path class="st0" d="M258.7,122.2c-0.2,5.9-0.4,11.9-0.6,17.8c-4.1,14.7-14.6,19.9-28.9,19.4c-0.2,0-0.4,0-0.6,0
			c-4.3-0.4-6.1,1.4-6,5.9c0.2,8.3,0.1,16.6,0.1,24.8c0,11.8,0,11.7-12,11.2c-3.7-0.2-5.4-1.2-5.4-5.2c0.1-33.5,0-67.1,0-100.6
			c0-3.6,1-5.6,5-5.5c8.9,0.2,17.8-0.2,26.7,0.3c10.5,0.6,17.4,7.1,20.2,17.4C258.4,112.5,257.7,117.5,258.7,122.2z M222.8,124.1
			C222.8,124.1,222.8,124.1,222.8,124.1c0,2.3,0,4.7,0,7c0,2.3,0,4.7,0,7c0,1.7-0.4,3.5,1.1,4.8c3.9,3.4,14.9-0.3,15.7-5.6
			c1.2-8.4,1.1-16.9,0.1-25.3c-0.6-5-5.3-6.7-12.9-6.1c-5.8,0.4-3.7,4.6-4,7.5C222.6,116.9,222.8,120.5,222.8,124.1z"/>
		<path class="st0" d="M167.5,153.1c-0.8,0-1.6,0-2.4,0c-2.8,0.2-2.5,2.4-2.5,4.3c-0.1,4,0,8,0,12c0,16.2,0,16.2,16.5,16.2
			c15.4,0,15.4,0,14.1,15.7c-13.8,0-27.6-0.3-41.3,0.1c-5.5,0.1-7.3-1.4-7.3-7.1c0.2-32.2,0.2-64.5,0-96.7c0-5.2,1.3-7.9,6.6-8.2
			c13.8,0,27.6,0,41.5,0c1.8,5.4,0.7,10.9,0.7,16.4c0,0-0.2,0.1-0.2,0.1c-8.5,0-16.9,0.1-25.4-0.1c-3.9-0.1-5.3,1.4-5.2,5.2
			c0.2,7,0.1,14,0,20.9c-0.1,3.8,1.5,5.4,5.2,5.3c4.6-0.1,9.3-0.1,14,0c2.1,0,4.2,0,5.2,2.6c2.7,7.4-0.3,12.6-7.9,13.4
			c-1.2,0-2.5,0-3.7,0C172.7,152.6,170.1,152.6,167.5,153.1z"/>
		<path class="st0" d="M266.1,197.3c0-31.4,0-62.8,0.2-94.2c0-4.6-0.9-9.4,2-13.6c2.5,0.2,5.1,0.5,7.6,0.5c8.9,0.1,8.9,0,8.9,8.7
			c0,31.4,0.1,62.8,0,94.2c0,2.9,1.6,6.6-2.7,8.2C276.7,202.8,268.4,200.9,266.1,197.3z"/>
		<path class="st1" d="M31.4,300.2c1.1,0,1.9,0.5,2.5,1.4C32.8,301.7,31.9,301.3,31.4,300.2z"/>
		<path class="st1" d="M319.3,272.5c0.5,0.8,1,1.6,1.5,2.4C319.8,274.4,319.3,273.6,319.3,272.5z"/>
		<path class="st1" d="M124.1,168.2c-0.9-0.6-1.3-1.5-1.3-2.6C123.2,166.5,123.6,167.4,124.1,168.2z"/>
	</g>
</g>
<g>
</g>
<g>
</g>
<g>
</g>
<g>
</g>
<g>
</g>
<g>
</g>
<g>
</g>
<g>
</g>
<g>
</g>
<g>
</g>
<g>
</g>
<g>
</g>
<g>
</g>
<g>
</g>
<g>
</g>
</svg>
