<?xml version="1.0" encoding="utf-8"?>
<!-- Generator: Adobe Illustrator 21.0.0, SVG Export Plug-In . SVG Version: 6.00 Build 0)  -->
<svg version="1.1" id="Capa_1" xmlns="http://www.w3.org/2000/svg" xmlns:xlink="http://www.w3.org/1999/xlink" x="0px" y="0px"
	 viewBox="0 0 400 400" style="enable-background:new 0 0 400 400;" xml:space="preserve">
<style type="text/css">
	.st0{fill:#FFFFFF;}
</style>
<g>
	<g>
		<path class="st0" d="M236.3,196.7c-5.4,0-9.8-0.1-14.2,0c-2.8,0.1-4.3-0.6-4.2-3.9c0.2-7.3,0.2-14.7,0-22
			c-0.1-2.8,0.9-3.8,3.7-3.8c17.2,0.1,34.3,0.1,51.5,0c5.3-0.1,3.5,3.6,3.9,6.2c0.4,3,0,5.2-4,4.9c-4.3-0.3-8.7,0-13-0.1
			c-2.8-0.1-3.6,0.9-3.9,3.7c-1.7,18.6-13.3,32.1-31,36.7c-2.8,0.7-5.1,1.4-7.2-2.1c-2-3.3-6.6-3.6-9-0.5c-2.4,3.1-4.6,2.4-7.4,1.3
			c-15.2-5.7-24.4-16.5-26.6-32.6c-0.7-5.2-2.2-7.5-7.6-6.5c-2.1,0.4-4.3,0.1-6.5,0.1c-7.7,0-7.9,0-6.8-7.8
			c3.4-23.2,15.7-40.1,37.3-49.5c21.8-9.5,42.6-6.5,62.1,6.7c2.8,1.9,3.4,3.5,0.6,6.1c-6.5,6.2-12.8,12.6-19.1,19
			c-1.8,1.9-3.1,2-5.5,0.8c-14.5-7.6-29.5-2.7-37.2,11.9c-6.9,13.1-1.8,31,10.7,38.1C213.1,209.3,228.6,206.6,236.3,196.7z"/>
		<path class="st0" d="M82.7,241c-26.8,1.8-54.9-24.6-58.7-52.2c-4.8-35.5,16-65.4,51.2-72.2c14.1-2.7,27.8-0.1,40.7,5.9
			c2.6,1.2,5,3.6,7.6,5.5c2,1.4,2.3,3.1,0.4,5c-3.2,3.1-6.5,6.3-9.5,9.6c-2,2.2-3.4,0.7-5.1-0.4c-16.5-10-32.9-9.6-48.9,0.8
			c-7.3,4.7-12.3,11.6-15.5,19.7c-0.9,2.4-2,4.3-4.4,5.8c-4.3,2.7-4.5,6.9-0.7,10.4c1.5,1.4,2.1,2.6,2.3,4.6
			c2.4,18,11.9,30.6,29.2,36.4c16.1,5.4,31.2,2,43.8-9.1c7.5-6.6,12.3-15.3,13-25.7c0.2-3.3,1.7-4.3,4.7-4.2c3,0.2,6,0.2,9,0
			c3.7-0.3,4.7,1.3,4.3,4.7c-1.9,16.3-8.9,30-21.2,40.6C112.8,236.6,98.6,241.7,82.7,241z"/>
		<path class="st0" d="M135.9,178c-0.3,0-0.7,0-1,0c-7.7,0-7.7,0-9.2,7.6c-6.1,29.4-37.2,43-62.7,27.3c-10.4-6.4-16-16.2-18-28.1
			c-0.4-2.2-0.2-4,2-5.6c4-3.1,4.5-6.7,1-10.2c-2.2-2.2-1.3-3.8-0.6-5.7C56.2,141,84,131.2,104.9,143c1.7,1,5,1.4,3.8,4.8
			c-1.4,3.7-7,6.9-9.8,5.6c-3.8-1.8-7.6-3.2-11.9-3.5C72.7,148.7,59.9,162,59,175.5c-1.1,17.3,8.8,29.9,24.5,31.3
			c7.6,0.7,14.3-2.4,20.5-6.6c0.9-0.6,2.1-1.6,1.7-2.8c-0.4-1.4-1.9-1.1-3-1.1c-3.8,0-7.7-0.1-11.5,0c-2.3,0-3.3-0.9-3.3-3.2
			c0.1-7.5,0-15,0-22.5c0-2.3,1-3.3,3.3-3.3c16.1,0,32.2,0,48.4,0c6.1,0,8.5,3.5,6.5,9.2c-1,2.7-3.3,1.5-5.1,1.7
			C139.3,178.2,137.6,178,135.9,178z"/>
		<path class="st0" d="M301,195.5c-1.1-4.6-0.3-9.3-0.5-13.9c-0.1-2.5-0.9-3.8-3.5-3.5c-0.2,0-0.3,0-0.5,0c-4-0.5-9.5,1.9-11.8-1.2
			c-1.9-2.6-0.7-7.7-0.7-11.6c0-15,0.1-30-0.1-44.9c0-3.5,0.7-5,4.6-4.9c8.8,0.3,17.6,0.3,26.5,0c4.2-0.2,4.9,1.4,4.9,5.2
			c-0.1,28.3,0,56.6-0.2,84.9c0,4.5,1,6.1,5.7,5.9c6.8-0.4,13.6,0,20.5,0c2.4,0,4.2,0.1,3.1,3.5c-0.5,1.3-0.2,3-0.1,4.5
			c0.1,2.2-0.9,2.9-3,2.9c-14.1,0-28.3,0-42.4,0c-1,0-2,0-2.6-1c-1.4-2.3,0.2-12,2.4-13.7c3.5-2.8,3.7-6,1.1-9.6
			C303.7,196.5,302.5,195.8,301,195.5z"/>
		<path class="st0" d="M162.9,181c0.7,0,1.3,0.1,2,0c4.5-0.6,6.6,0.2,7.6,5.8c3.3,17.2,13.9,28.8,31,33.8c1.9,0.5,3.1,1.5,4.3,3.1
			c2.9,4,6.8,4.2,10.1,0.7c1.6-1.8,3.4-2.4,5.5-2.9c19.4-4.4,31-16.5,34.8-36c0.6-3.2,1.6-4.8,5-4.4c1.8,0.2,3.7,0,5.5,0
			c8.7,0,8.7,0,7.1,8.9c-6.1,33.7-37,55.7-70.8,50.3c-26.6-4.2-47.8-26.7-51-53.9c-0.5-4.2,0.7-5.9,5-5.3
			C160.2,181.2,161.6,181,162.9,181z"/>
		<path class="st0" d="M296.6,207.4c3.1,3.6,1.5,8,1.4,11.9c-0.1,4.5,1.3,5.6,5.7,5.5c13.5-0.3,26.9,0,40.4-0.1
			c2.9,0,4.8,0.6,6.6,3.1c3.2,4.4,8.4,7.1,10.9,12.3c-0.6,1.5-2,0.8-3,0.8c-23.1,0-46.3-0.1-69.4,0.1c-4.1,0-5.3-1.1-5.3-5.3
			c0.2-16.8,0.2-33.6,0-50.4c0-3.5,1-4.5,4.5-4.5c9.7,0.1,9.7-0.1,9.7,9.7c0,1.7-0.1,3.3-0.2,5C291.8,199.1,291.3,203.6,296.6,207.4
			z"/>
		<path class="st0" d="M350.9,219.7c0.1-2.9-0.9-6.4,2.9-7.6c3.7-1.2,7.2-0.9,9.8,2.6c1.8,2.5,3.4,2.1,5-0.1c2.1-3,5.2-3.3,8.4-2.9
			c2.4,0.3,4.1,1.8,4.3,4.2c0.3,4.9,1,9.9-3.8,13.6c-3.4,2.6-6.2,6-9.1,9.3c-1.8,2.1-3,1.8-4.8-0.1c-3.5-3.8-6.9-7.6-10.8-11
			C350.3,225.2,351.2,222.4,350.9,219.7z"/>
		<path class="st0" d="M40.5,275.6c3-0.4,5.5-1.9,6.1,1.4c0.5,2.6,1,5.7-2.7,7.1c-3.5,1.4-6.2,0.3-8.4-2.3c-2.9-3.3-3-9-0.3-12.5
			c2.1-2.8,4.9-3.8,8.3-2.8c1,0.3,2.6,0.7,2.1,2.2c-0.4,1.5-1.6,0.4-2.5,0.3c-5.4-0.6-8.7,4.3-6.5,9.5c0.9,2.1,2.3,3.7,4.8,3.6
			c1.2,0,2.3-0.3,2.7-1.7C44.8,278,42.9,277.1,40.5,275.6z"/>
		<path class="st0" d="M156.6,275.4c3.5-0.5,5.7-0.9,6.2,2.6c0.5,3.9-1.3,6.1-5,6.7c-3.2,0.5-5.5-1.3-7-3.8
			c-2.2-3.7-2.2-7.7,0.4-11.3c1.8-2.6,4.5-4,7.8-3.2c1.2,0.3,3.1,0.6,2.6,2.4c-0.5,1.9-1.9,0.3-2.9,0.2c-2.5-0.2-4.8,0.2-5.9,2.6
			c-1.2,2.7-1.4,5.5,0.3,8.1c1.2,1.8,2.8,2.8,5.1,2.4c1.2-0.2,1.6-0.9,1.9-1.9C160.7,277.7,158.7,277.1,156.6,275.4z"/>
		<path class="st0" d="M93.3,282.3c-3.3,2.7-5.6,2.8-8.1,1.1c-2.9-2.1-2.6-5.3-2-8.2c0.4-2.2,1.6-3.9,4.3-4.2c3.6-0.4,5.3,1.5,6,4.5
			c0.8,3.5-2.6,2-4,2.9c-1,0.7-3.1-0.3-3.1,1.6c0,2,1.9,2,3.4,2C90.5,282.2,91.3,282.2,93.3,282.3z"/>
		<path class="st0" d="M108.6,265.7c0,3.4,0,6.7,0,10.8c2.6-2,3.3-5.7,7.7-5c-4,3.7-3.1,7-0.4,10.2c0.6,0.7,1,1.5,0,2
			c-0.8,0.4-1.4-0.3-2-1c-3.7-4.3-3.7-4.3-6.4,2c-2.2-7.1-1.7-13.1-0.5-19.1C107.6,265.7,108.1,265.7,108.6,265.7z"/>
		<path class="st0" d="M367.3,283.4c-1.7-2.2-1-4.5-1.2-6.8c-0.1-1.5-0.2-3.3-2.2-3.2c-1.9,0.1-2.8,1.4-2.9,3.4
			c-0.1,2.2,0.6,4.5-0.9,7.4c-1.7-2.8-0.8-5.3-1.1-7.5c-0.2-1.4,0.4-3.2-1.8-3.4c-2.2-0.2-3.4,1.1-3.9,3c-0.6,2.3,0.6,4.9-1.5,8.4
			c-1-4.8-1.3-8.5,0-12.2c0.4-1.1,13.8-2,14.7-0.9C369.6,275.2,367.7,279.4,367.3,283.4z"/>
		<path class="st0" d="M324.6,284.5c1.9-6.3,3.4-11.3,5.1-16.3c0.3-0.9,1.1-1.7,2.2-1.7c1,0.1,1.3,1,1.6,1.7c1.5,4.4,3,8.8,4.4,13.2
			c0.2,0.7,0.3,1.7-0.8,2c-0.8,0.2-1.1-0.5-1.5-1c-3.7-5.2-4.9-5.2-8.4,0.5C326.9,283.4,326.4,283.5,324.6,284.5z M331.4,270.2
			c-0.5,2.6-2.6,4.4-0.5,6.4c0.2,0.2,1.5,0,1.7-0.3C333.7,274.4,332.9,272.6,331.4,270.2z"/>
		<path class="st0" d="M292,284c-0.3,0-0.7-0.2-1-0.1c-2.9,0.6-6.2,1.9-7.4-2.2c-1-3.6,1.9-4.8,4.7-5.6c1-0.3,2-0.7,1.6-2
			c-0.4-1.2-1.5-1.1-2.5-0.8c-0.9,0.2-1.8,0.9-3-0.2c1.3-2.4,3.4-2.8,5.7-2.2c2.3,0.5,2.5,2.3,2.9,4.5
			C293.6,278.5,292.5,281.2,292,284L292,284z M288,282.1c1.4-0.1,2.6-0.6,2.8-2.2c0.2-1.2-0.5-2-1.7-1.8c-1.3,0.2-2.7,0.6-3,2.2
			C285.9,281.5,286.8,282,288,282.1z"/>
		<path class="st0" d="M229.2,282.2c0.7-0.8,1.3-0.7,2-0.5c1.4,0.4,3.2,1.1,3.7-1c0.4-1.8-1.5-1.9-2.6-2.4c-2.3-1-3.7-2.4-3-5
			c0.6-2.3,2.5-3,4.7-2.9c1.1,0,2.6,0.5,2.7,1.8c0.1,2.3-1.5,0.9-2.4,0.8c-0.9-0.1-1.8-0.1-1.9,1c0,0.5,0.5,1.2,0.9,1.6
			c0.8,0.6,1.7,1,2.5,1.6c1.3,1.1,2.5,2.3,2.1,4.2c-0.5,2.1-2.2,2.9-4.1,3.1C231.8,284.9,229.7,284.6,229.2,282.2z"/>
		<path class="st0" d="M68,283.6c-3.5,1.9-5.6,0.7-7.1-1.4c-2-2.7-2-5.9-0.3-8.9c1.2-2.2,3.3-2.7,5.6-2.3c2.5,0.4,3.7,2,3.8,4.5
			c0.1,2.6-1.8,2.1-3.4,2.5c-1.5,0.3-4,0.3-4.1,1.9C62.4,282.7,65.3,282.9,68,283.6z M67.9,275c-0.4-1.2-1.2-2-2.7-2
			c-1.4,0-2.7,0.6-2.9,2.1c-0.3,2,1.4,1.8,2.6,1.8C66.1,276.9,67.6,277.2,67.9,275z"/>
		<path class="st0" d="M271.1,283c-2.9,1.6-5.2,0.9-7.5,1c-1.6,0.1-2.5-0.7-2.5-2.4c0-4.2,0-8.3,0-12.5c0-0.9,0.2-1.8,1.2-1.9
			c1.4-0.1,1.4,1.1,1.5,2.1c0.1,1.5,0,3,0,4.5C263.9,281.2,263.9,281.2,271.1,283z"/>
		<path class="st0" d="M315,272c-1.6,0.6-2,0.7-2.5,1c-4.7,2.8-2.3,6-0.4,9c0.5,0.7,2,0.8,1,2.1c-0.6,0.8-1.5,0.6-2.3,0.3
			c-0.6-0.3-1.2-0.6-1.7-1c-0.9-0.8-2.2-11.8-1.5-12.8c0.6-0.8,0.5-2.9,2-2.2C311.1,269,311.5,271.3,315,272z"/>
		<path class="st0" d="M48.1,173.8c-0.2,2.5-1.5,4.1-4,4.3c-2.8,0.2-4.5-1.5-4.7-4.1c-0.1-2.7,1.7-4.3,4.4-4.3
			C46.3,169.7,47.7,171.3,48.1,173.8z"/>
		<path class="st0" d="M302.8,198.9c2,2.7,1.7,5.1-1,7.2c-0.3-0.1-0.6,0-0.7,0.3c-1.6,0.4-3-0.2-4.2-1.1
			C295.1,199.4,296.7,197.6,302.8,198.9z"/>
		<path class="st0" d="M217.1,219.5c0,3.4-1.3,4.6-3.9,4.6c-2.4,0-3.9-1.1-4-3.4c-0.1-2.5,1-4.6,3.9-4.7
			C215.7,216.1,216.8,217.9,217.1,219.5z"/>
		<path class="st0" d="M200.3,271.6c-4.3,2.4-4.8,6-4.4,9.9c0.1,1-0.1,2.2-1.4,2.2c-1.2,0-1.3-1.3-1.3-2.3c0-1.3,0.2-2.7-0.1-4
			C192.1,272,194.7,270.7,200.3,271.6z"/>
		<path class="st0" d="M214.5,265.7c1.3,5.6-0.4,11.5,1,17.1c0.1,0.3-0.4,0.9-0.8,1c-1,0.2-1.6-0.5-1.6-1.4c-0.1-5.6,0-11.1,0-16.7
			C213.5,265.7,214,265.7,214.5,265.7z"/>
		<path class="st0" d="M179,277.9c-0.7,1.9,1,5.5-1.5,5.5c-2.5,0-1.4-3.6-1.2-5.5c0.2-2.2-1.7-6,1.5-6.1
			C180,271.7,178.3,275.8,179,277.9z"/>
		<path class="st0" d="M301.1,206.5c0.2-0.3,0.4-0.4,0.7-0.3C301.6,206.2,301.3,206.3,301.1,206.5z"/>
		<polygon class="st0" points="292,284 292.2,284.2 292,284 		"/>
		<path class="st0" d="M331.4,270.2c1.5,2.4,2.3,4.2,1.2,6.1c-0.2,0.3-1.4,0.6-1.7,0.3C328.8,274.6,330.9,272.8,331.4,270.2z"/>
		<path class="st0" d="M288,282.1c-1.2-0.1-2.1-0.5-1.9-1.8c0.3-1.6,1.7-2,3-2.2c1.2-0.2,1.9,0.6,1.7,1.8
			C290.6,281.5,289.4,282,288,282.1z"/>
	</g>
</g>
<g>
</g>
<g>
</g>
<g>
</g>
<g>
</g>
<g>
</g>
<g>
</g>
<g>
</g>
<g>
</g>
<g>
</g>
<g>
</g>
<g>
</g>
<g>
</g>
<g>
</g>
<g>
</g>
<g>
</g>
</svg>
