<?xml version="1.0" encoding="utf-8"?>
<!-- Generator: Adobe Illustrator 21.0.0, SVG Export Plug-In . SVG Version: 6.00 Build 0)  -->
<svg version="1.1" id="Capa_1" xmlns="http://www.w3.org/2000/svg" xmlns:xlink="http://www.w3.org/1999/xlink" x="0px" y="0px"
	 viewBox="0 0 400 400" style="enable-background:new 0 0 400 400;" xml:space="preserve">
<style type="text/css">
	.st0{fill:#FFFFFF;}
</style>
<g>
	<g>
		<path class="st0" d="M110.5,75.4c7.9,0,15.8,0.1,23.7-0.1c2.8-0.1,3.8,0.7,3.8,3.7c-0.2,11.8-0.1,23.7,0,35.5
			c0,1.8-0.2,3.2-1.9,4.4c-21.9,16.5-56.7,17.2-77.7,1C38.9,104.9,34,84.3,39,61.5c5-22.9,21.1-35.5,43.6-40.1
			c23.4-4.7,42.2,2.6,56.3,22.1c1.6,2.3,1.5,3.3-0.9,4.7c-3.3,1.8-6.3,5.4-9.6,5.6c-3.3,0.2-4.8-4.8-7.3-7.4
			C110.5,35.1,95.2,32,78.3,38.2C62.6,44,54.2,55.5,53.1,72.1c-2,30.1,21.5,49.6,52.2,43.5c0.5-0.1,0.9-0.2,1.4-0.3
			c15.6-3.3,17.6-6.4,15.5-22c-0.4-2.7-2-2.4-3.7-2.4c-10.3,0-20.5-0.2-30.8,0.1c-3.5,0.1-4.6-0.9-4.5-4.5c0.1-11,0-11,10.7-11
			C99.5,75.4,105,75.4,110.5,75.4z"/>
		<path class="st0" d="M150.7,339.7c-10.6,0-21.1,0.1-31.7-0.1c-3.6-0.1-3.9,1.2-3,4.2c3.1,10.4,12.5,17.7,24.4,18.5
			c14,0.9,27.2-2.9,40.2-7.2c3.5-1.2,4.2-0.5,4.5,2.9c1.1,10.8,1.3,11.1-9.5,14c-13.7,3.6-27.5,7.4-41.9,4.5
			c-24.7-4.9-38.2-26.1-33.5-52.7c3.7-21.3,26.4-36.5,49.1-33.3c22.2,3.2,37.6,21.2,37.2,46.3c-0.1,3.3-2,3-4,3
			C171.8,339.7,161.2,339.7,150.7,339.7z M142.4,325.1c7.9,0,15.8-0.1,23.7,0c2.8,0,3.2-0.8,2.3-3.3c-3.7-9.7-13.6-16.5-24.3-16.6
			c-12.4-0.1-23.7,6.8-27.5,16.6c-1,2.5-0.6,3.3,2.2,3.3C126.6,325,134.5,325.1,142.4,325.1z"/>
		<path class="st0" d="M314,131.3c-14.8-0.4-29.7-3.4-41.7-14.8c-2.3-2.2-2.8-3.6-0.2-5.8c2.8-2.3,4.9-6.2,8-7.1
			c3.3-1,4.9,3.9,7.9,5.6c14.8,8.6,30.2,9.1,45.9,3.2c3.8-1.4,7-4.1,6.8-8.8c-0.3-5.1-4.1-7.2-8.4-8.4c-11.1-3-22.7-3.9-34-6.1
			c-5.5-1.1-10.7-2.6-15.2-6.1c-12.5-9.5-11.4-26.3,2.6-33.4c12.6-6.4,26.1-6.5,39.8-4.9c11,1.3,20,6.1,27.1,14.7
			c2,2.5,1.8,3.8-0.6,5.6c-2.8,2.1-4.9,5.6-8,6.5c-3.9,1.2-4.4-4.1-7.1-6c-3.7-2.5-7.5-4.6-11.9-5.5c-8.7-1.6-17.3-1.3-25.9,0.5
			c-2,0.4-4,1.1-5.7,2.1c-4.6,2.6-4.6,6.4,0.1,8.8c5.7,2.9,12.1,3.3,18.3,4.4c9.5,1.7,19.1,2.5,28.2,6c8.6,3.2,14.5,9,15.9,18.4
			c1.4,9.7-2.5,17.2-10.3,22.8C336.4,129.7,325.9,131.3,314,131.3z"/>
		<path class="st0" d="M297,299.4c8.5-4.6,16.4-7.7,24.9-8.7c5.9-0.7,11.7-0.5,17.4,1c11.6,3,19.3,12,19.6,24.3
			c0.4,18.9,0.7,37.9,0,56.8c-0.3,7-7.1,1.7-10.7,3c-2.1,0.8-4.5,0.6-4.5-3.3c0.2-17.2,0.1-34.4,0.1-51.6c0-11.5-4.3-15.7-15.8-15.5
			c-11,0.2-20.5,4.6-29.3,10.8c-2,1.4-1.7,3.2-1.7,5.1c0,16.6-0.1,33.1,0.1,49.7c0,3.8-0.7,5.2-4.9,5.1c-10.8-0.2-10.8,0-10.8-10.9
			c0-31.6,0.1-63.1-0.1-94.7c0-3.6,0.8-4.9,4.7-4.8c11,0.2,11,0,11,11.2C297,284,297,291.2,297,299.4z"/>
		<path class="st0" d="M289.3,176.1c8.2-4.3,16.2-7.5,24.9-8.6c6.5-0.9,13-0.5,19.2,1.7c11.1,4,17.5,12.1,17.8,23.8
			c0.5,18.9,0.2,37.9,0.2,56.8c0,2.2-0.6,2.9-2.9,3.1c-12.5,0.8-12.5,0.9-12.5-11.5c0-14.7,0-29.3,0-44c0-10.8-4.4-15.2-15.3-15.2
			c-11.1,0-20.8,4.4-29.8,10.7c-2.1,1.5-1.9,3.4-1.9,5.5c0,16.6-0.1,33.1,0.1,49.7c0.1,4-1.2,5-5.1,4.9c-10.5-0.2-10.5,0-10.5-10.7
			c0-22.9,0.1-45.8-0.1-68.6c0-4,1.1-5.4,5-4.8c1.1,0.2,2.2,0,3.3,0C288.8,168.8,288.8,168.8,289.3,176.1z"/>
		<path class="st0" d="M232.5,377.4c-14.6-0.5-30.4-6.5-38.4-24.6c-10.5-24-0.8-56,33-61.7c19.4-3.3,35.5,2.2,47.5,18.3
			c1.6,2.2,1.8,3.5-0.9,4.5c-0.3,0.1-0.5,0.3-0.8,0.5c-3,1.7-6,4.6-9.1,4.7c-3.1,0.1-4.4-4.4-6.7-6.6c-10-9.8-30.7-9.7-42.3,0.3
			c-10.6,9.1-12,27.1-3.7,38.8c8.9,12.7,39,16.7,50-1.1c2.8-4.5,5.1-4.9,9.5-2.4c8.3,4.7,8.4,4.4,2.5,12.1
			C263.9,372.4,251.5,377.6,232.5,377.4z"/>
		<path class="st0" d="M79.8,268.2c14.2,0,28.4,0.1,42.6-0.1c3.3,0,4.3,0.8,4.3,4.2c0,11.1,0.1,11.1-11,11.1
			c-7.6,0-15.2,0.2-22.7-0.1c-4.1-0.2-5.6,0.8-5.5,5.3c0.2,27.3,0,54.6,0.2,81.9c0,4.5-1.3,5.5-5.6,5.4
			c-10.2-0.3-10.2-0.1-10.2-10.5c0-25.6-0.1-51.1,0.1-76.7c0-4-0.7-5.5-5.1-5.3c-10.1,0.4-20.2,0-30.3,0.2c-2.9,0-3.7-0.8-3.7-3.7
			c-0.2-11.7-0.3-11.7,11.4-11.7C56.1,268.2,68,268.2,79.8,268.2z"/>
		<path class="st0" d="M189.7,51.6c7.5-3.5,13.9-6.3,20.8-7.3c12-1.6,22,2.2,30.4,10.8c1.2,1.3,1.5,2.2,0.2,3.5
			c-0.7,0.7-1.3,1.4-1.9,2.1c-2.2,2.5-4,6.4-6.6,7.1c-2.7,0.7-4.3-3.8-6.8-5.7c-4.4-3.4-9.3-3.6-14.4-2.8
			c-7.2,1.1-13.3,4.6-19.2,8.7c-2.1,1.4-2.1,3.3-2.1,5.3c0,17.2-0.1,34.4,0.1,51.6c0,3.6-0.8,4.9-4.7,4.8c-11-0.2-11.1,0-11.1-11.2
			c0-22.9,0.1-45.7-0.1-68.6c0-3.5,0.9-5,4.5-4.5c1.9,0.2,3.8,0.1,5.7,0C188.1,45.6,192,45,189.7,51.6z"/>
		<path class="st0" d="M245.3,74.7c0-16.9,0.1-33.8-0.1-50.6c0-3.5,0.8-4.6,4.4-4.6c11.2,0.1,11.3-0.1,11.3,11
			c0,31.4-0.1,62.8,0.1,94.2c0,4.1-0.9,5.4-5.2,5.3c-10.5-0.3-10.5-0.1-10.5-10.8C245.3,104.3,245.3,89.5,245.3,74.7z"/>
		<path class="st0" d="M244.4,211.1c0-12.8,0.1-25.5-0.1-38.3c0-3,0.7-4,3.9-4.1c11.5-0.1,11.5-0.2,11.5,11.1
			c0,22.9-0.1,45.7,0.1,68.6c0,3.4-0.7,4.6-4.4,4.6c-11.1-0.1-11.1,0-11.1-11.1C244.4,231.6,244.4,221.4,244.4,211.1z"/>
		<path class="st0" d="M145.5,88c0-12.8,0.1-25.5-0.1-38.3c0-3,0.7-4.1,3.9-4.1c11.5-0.1,11.5-0.2,11.5,11.1
			c0,22.8-0.1,45.7,0.1,68.5c0,3.4-0.7,4.6-4.4,4.6c-11-0.1-11,0.1-11-10.7C145.5,108.8,145.5,98.4,145.5,88z"/>
		<path class="st0" d="M206.8,207.5c-4.3,0-8.5-0.2-12.8,0.1c-3,0.1-3.8-1-3.7-3.8c0.2-8.5,0.1-17,0-25.5c0-2.7,0.9-3.5,3.5-3.5
			c8.7,0.1,17.3,0.1,26,0c2.5,0,3.3,0.9,3.2,3.3c-0.1,8.8-0.1,17.7,0,26.5c0,2.2-0.8,3.1-3.1,3C215.6,207.4,211.2,207.5,206.8,207.5
			z"/>
		<path class="st0" d="M186.5,228.2c0,4.4-0.1,8.8,0,13.2c0.1,2.4-0.7,3.3-3.2,3.3c-8.8-0.1-17.7-0.1-26.5,0c-2.3,0-3-0.7-3-3
			c0.1-8.8,0.1-17.7,0-26.5c0-2.4,0.7-3.4,3.2-3.3c8.8,0.1,17.7,0.1,26.5,0c2.2,0,3.1,0.8,3,3C186.4,219.3,186.5,223.8,186.5,228.2z
			"/>
		<path class="st0" d="M223,228.6c0,4.3-0.1,8.5,0,12.8c0.1,2.4-0.6,3.4-3.2,3.3c-8.8-0.1-17.7-0.1-26.5,0c-2.7,0-3.1-1.2-3.1-3.4
			c0.1-8.7,0.1-17.3,0-26c-0.1-2.9,1.2-3.4,3.7-3.4c8.5,0.1,17,0.1,25.5,0c2.6,0,3.7,0.7,3.6,3.5C222.9,219.8,223,224.2,223,228.6z"
			/>
		<path class="st0" d="M170.3,174.8c4.3,0,8.5,0.1,12.8,0c2.3-0.1,3.4,0.5,3.4,3.1c-0.1,8.8-0.1,17.7,0,26.5c0,2.5-0.9,3.2-3.3,3.2
			c-8.7-0.1-17.3-0.1-26,0c-2.8,0.1-3.4-1.1-3.4-3.6c0.1-8.5,0.2-17,0-25.5c-0.1-3,1-3.8,3.8-3.7
			C161.8,174.9,166.1,174.8,170.3,174.8z"/>
		<path class="st0" d="M259.8,154.3c0,0.2,0,0.3,0,0.5c0,12,0,12-12.2,11.5c-2.4-0.1-3.4-0.7-3.3-3.2c0.1-5.7,0.2-11.4,0-17
			c-0.1-2.8,1.1-3.4,3.6-3.4C259.8,142.3,259.8,142.2,259.8,154.3z"/>
		<path class="st0" d="M160.9,31.6c0,0.2,0,0.3,0,0.5c0,12.2-0.4,12.5-12.9,11.2c-1.8-0.2-2.5-0.7-2.5-2.5c0.1-6.1,0-12.3,0-18.4
			c0-1.7,0.5-2.7,2.4-2.6c0.3,0,0.6,0,0.9,0C160.9,18.9,160.9,18.9,160.9,31.6z"/>
	</g>
</g>
<g>
</g>
<g>
</g>
<g>
</g>
<g>
</g>
<g>
</g>
<g>
</g>
<g>
</g>
<g>
</g>
<g>
</g>
<g>
</g>
<g>
</g>
<g>
</g>
<g>
</g>
<g>
</g>
<g>
</g>
</svg>
