<?xml version="1.0" encoding="utf-8"?>
<!-- Generator: Adobe Illustrator 21.0.0, SVG Export Plug-In . SVG Version: 6.00 Build 0)  -->
<svg version="1.1" id="Capa_1" xmlns="http://www.w3.org/2000/svg" xmlns:xlink="http://www.w3.org/1999/xlink" x="0px" y="0px"
	 viewBox="0 0 400 400" style="enable-background:new 0 0 400 400;" xml:space="preserve">
<style type="text/css">
	.st0{fill:#FFFFFF;}
</style>
<g>
	<g>
		<path class="st0" d="M38.5,203.4c13.2,6.9,25.1,13.1,37.1,19.3c21.7,11.2,43.4,22.3,65.1,33.4c6.8,3.5,10.2,12.4,7.3,19.5
			c-1.7,4.3-4.6,2-7,0.8c-12.5-6.4-25-13-37.4-19.5c-25.8-13.5-51.5-27.2-77.3-40.5c-6-3.1-8.5-6.9-8.3-13.8
			c0.2-6.6,3.2-9.4,8.6-12.1c36.9-19,73.6-38.4,110.5-57.5c3.2-1.7,7-6.9,10.8-1.7c3.2,4.4-0.2,14.8-4.9,17.2
			c-18.7,9.9-37.4,19.7-56.1,29.5C71.2,186.2,55.5,194.5,38.5,203.4z"/>
		<path class="st0" d="M360.4,202.5c-13-6.8-26-13.6-39.1-20.3c-20.6-10.7-41.2-21.4-61.8-32.2c-3.1-1.6-7.2-2.7-7.8-6.6
			c-0.7-4.5-2.5-10.1,1.2-13.3c3.1-2.7,6.9,1.4,10,3c36.7,19,73.2,38.3,110,57.2c6.4,3.3,8.4,7.2,8.5,14.3c0,6.8-3.2,9.4-8.4,12.1
			c-37.5,19.5-74.8,39.2-112.2,58.9c-8.5,4.4-9,3.8-9.6-5.7c-0.5-7.2,2.3-10.9,8.7-14.1c32.3-16.3,64.3-33,96.4-49.7
			C357.7,205.2,359.4,204.9,360.4,202.5z"/>
		<path class="st0" d="M183,192.4c0-23.3,0.2-46.5-0.1-69.8c-0.1-6,1.2-8.2,7.7-8c6.3,0.2,9.3,1.3,9.3,8.6c-0.3,43-0.1,86-0.1,129
			c0,2.3-0.1,4.7,0.1,7c0.7,8,3,10.9,10.9,10.7c8.1-0.2,5.9,5,6.4,9.4c0.6,5.7-2.4,6.5-7.1,6.6c-19.3,0.2-26.7-6.6-26.9-25.9
			C182.8,237.5,183,215,183,192.4z"/>
	</g>
</g>
<g>
</g>
<g>
</g>
<g>
</g>
<g>
</g>
<g>
</g>
<g>
</g>
<g>
</g>
<g>
</g>
<g>
</g>
<g>
</g>
<g>
</g>
<g>
</g>
<g>
</g>
<g>
</g>
<g>
</g>
</svg>
