<?xml version="1.0" encoding="utf-8"?>
<!-- Generator: Adobe Illustrator 21.0.0, SVG Export Plug-In . SVG Version: 6.00 Build 0)  -->
<svg version="1.1" id="Capa_1" xmlns="http://www.w3.org/2000/svg" xmlns:xlink="http://www.w3.org/1999/xlink" x="0px" y="0px"
	 viewBox="0 0 400 400" style="enable-background:new 0 0 400 400;" xml:space="preserve">
<style type="text/css">
	.st0{fill:#FBFAFA;}
</style>
<g>
	<g>
		<path class="st0" d="M370.6,191.4c0,2.5,0.4,5.2-0.1,7.6c-0.8,4.4,0.5,7.1,4.2,10c7.3,5.8,7.2,17.4-0.9,22.5
			c-8.4,5.3-11.7,12.8-15.1,21.4c-14,35.5-37.4,63.3-69.9,83.4c-2.9,1.8-5.4,4-7.8,6.4c-16.8,16.3-37.7,25.5-58.9,34.4
			c-15.6,6.5-30.9,6.2-46.3-0.2c-22.3-9.3-44.5-18.9-61.4-37.3c-1.1-1.2-2.8-1.9-4.2-2.8c-26.1-15.9-46.6-37.3-61.3-64.1
			c-2-3.7-4.1-5.4-8.3-4.8c-2.1,0.3-4.2,0-6.4-0.2c-6.9-0.6-12-4.8-13.7-11.4c-1.6-6.2,0.8-13.4,6.9-16.4c5.6-2.8,5.9-6,4.6-11.6
			C9.7,130.4,75.6,35,175.1,20.5c95.7-13.9,185.4,56.3,194.6,152.5c0.6,6.1,0.9,12.3,1.3,18.4C370.9,191.4,370.7,191.4,370.6,191.4z
			 M279.4,324.1c32.3-18.9,54.4-46.3,66.9-81.3c3.2-8.9,6.3-16.9,15.5-20.9c0.7-0.3,1.1-1.1,2.3-2.4c-10.4-2.1-10.1-8.6-9.1-16.8
			c1.7-14.8,0.6-29.7-2.6-44.3C334.7,78,262.2,26.1,180.4,35.3C87.5,45.7,24,137.9,47.9,228.6c2.6,9.7-0.4,15.3-7.2,20.8
			c-0.9,0.7-2.4,1-2.4,3c4,0,8,0.4,11.8-0.1c4-0.5,6,0.7,7.7,4.5c6.7,15,16.1,28.4,27.4,40.4c10.3,11,21.9,20.3,35.5,27.3
			c-2.4-7.2-7.9-12.8-9.9-20.1c4.2,1.4,8.7,2.7,10.4,7.1c4.8,12.6,14.6,19,26.9,21.9c18.1,4.3,36-5.3,43.1-22.7c1.6-4,5.2-4.2,8.4-4
			c3.5,0.2,6.7,0.7,8.2,5.3c3.9,12.6,18.1,21.7,33.3,22.2c14.8,0.4,30.5-8,34.9-19.9c2.2-6,6.7-8.1,11.8-10
			c-1.9,6.9-6.8,12.3-9.8,18.6c-0.4,0.6-1.6,1-0.6,1.8C277.9,325.2,278.8,324.9,279.4,324.1z"/>
		<path class="st0" d="M292.8,295.7c-2.4,0.2-3.4,2.4-4.9,3.8c-5.3,4.5-10.2,6.4-18,4.9c-20.3-3.8-40.9-3.4-61.2,0.9
			c-1.7,0.4-3,0.9-4.7-0.1c-1-0.6-2.5-1.1-3.6-0.9c-16,2.3-31.5-3.5-47.5-2.1c-10.1,0.9-20.3,0-30.1,3.7c-2.2,0.8-3.8-0.3-5.3-1.3
			c-4.1-3-8.1-6.1-12.1-9.2c-7.7-16.6-14.8-33.6-21.2-50.7c-0.9-2.5,0-3.9,2-5.3c11.1-7.9,19.9-17.9,25.8-30.2
			c2.2-4.6,4.1-1.8,6.1-0.4c29.6,19.9,61.7,34.6,96,44.2c30.1,8.5,60,6.3,89.7-2.8c2.7-0.8,5.3-2.8,8.4-1.7l0,0
			C307.4,264.9,299.7,280.1,292.8,295.7z M166,278.3c-0.6-0.2-1.2-0.4-1.8-0.6c-6.7-10.6-18.2-14.4-30.3-11.8
			c-3,0.6-6.4,3.1-10.8,0.9c-3.6-1.8,0.2,2.2-0.8,3.2c-0.2,0.2-0.4,0.4-0.7,0.7c-4-0.4-7.4-3.8-12.4-2.5c1,1.5,1.7,2.5,2.5,3.5
			c1.2,1.3,2.6,2.7,1.4,4.4c-1.3,1.8-2.5-0.5-3.9-0.8c-2.7-0.5-5.3-2.2-8.6-0.6c4.5,4.9,10.1,7.6,15.1,11c2.8,1.9,4.7,2.5,7-0.9
			c1.8-2.7,4.3-5.2,7.8-6.2c1.7,11,6.9,16.8,15.4,16.9c8.3,0.2,13.5-4.9,15.6-15.8c0.4-1.9,1.1-1.9,2.5-1.5c0.7,1.1,1.5,1.7,2.3,0
			c-0.9,0.4-1.2,1.1-0.6,2c0.2,0.3,0.6,0.4,0.9,0.6C166.2,279.9,166.1,279.1,166,278.3z M232.9,278.8c5.3-3,3.9,1,4.3,3.1
			c1.4,7.6,6.9,12.8,14.1,13.4c6.6,0.6,13.2-3.6,15.4-10c0.8-2.2,0.9-4.6,1.4-7.2c4,2,6.5,4.8,9,7.7c0.7,0.9,1.1,2.5,2.9,1.4
			c6.1-4,13-6.9,18-12.9c-2.6-0.9-4.6,0-6.7,0.2c-2.3,0.2-4.9,3.1-6.6,0.5c-1.2-1.9,2.5-2.7,3.2-4.6c0.3-0.8,0.7-1.5,1.1-2.4
			c-4.8-1.2-8.5,2.7-12.6,2.5c-0.9-1.4,3.9-5.9-2.3-3.7c-1,0.3-2.3,1.1-2.9,0.7c-5.4-2.7-10.7-2.2-16.6-1.8
			C244.9,266.2,238.9,271.2,232.9,278.8z"/>
		<path class="st0" d="M312.1,248.4c0-0.3,0.1-0.5,0.1-0.8c0.2,0,0.3,0.1,0.5,0.1C312.5,248,312.3,248.2,312.1,248.4
			C312.1,248.4,312.1,248.4,312.1,248.4z"/>
		<path class="st0" d="M239.2,305.6c8.7,0,17.4,0.1,26.1,1.5c4.2,0.7,5.6,2.5,3.5,6.4c-6.2,11.7-16.4,16.9-29,17.6
			c-12,0.6-25.6-7.8-29.7-17.5c-1.8-4.1-1.2-6.1,3.7-6.7C222.3,305.9,230.7,305.6,239.2,305.6z"/>
		<path class="st0" d="M158.8,305.9c8.1-0.2,16.1-0.3,24.1,0.9c7.2,1.1,7.9,2.3,4.2,8.8c-9.3,16.3-33.4,20.3-49,8.2
			c-4.7-3.7-10.6-8.5-9-14.2c1.3-4.7,8.9-3,13.8-3.6C148.2,305.4,153.5,305.9,158.8,305.9z"/>
		<path class="st0" d="M248,280c-0.5,2.4-1.5,4.2-4,4.2c-2.8,0-4.4-1.7-4.2-4.3c0.1-2.3,1.7-3.7,4.2-3.7
			C246.5,276.2,247.4,278,248,280z"/>
		<path class="st0" d="M137.3,284.2c-2.5-0.2-3.9-1.4-4-3.9c-0.1-2.5,1.2-4,3.7-4.1c2.7-0.1,4.4,1.3,4.3,4.1
			C141.2,282.8,139.7,284,137.3,284.2z"/>
		<path class="st0" d="M122.2,270c0.6,0.1,1.2,0.3,0.8,1c-0.1,0.1-0.9-0.2-1.4-0.4C121.8,270.4,122,270.2,122.2,270z"/>
	</g>
</g>
<g>
</g>
<g>
</g>
<g>
</g>
<g>
</g>
<g>
</g>
<g>
</g>
<g>
</g>
<g>
</g>
<g>
</g>
<g>
</g>
<g>
</g>
<g>
</g>
<g>
</g>
<g>
</g>
<g>
</g>
</svg>
