<?xml version="1.0" encoding="utf-8"?>
<!-- Generator: Adobe Illustrator 21.0.0, SVG Export Plug-In . SVG Version: 6.00 Build 0)  -->
<svg version="1.1" id="Capa_1" xmlns="http://www.w3.org/2000/svg" xmlns:xlink="http://www.w3.org/1999/xlink" x="0px" y="0px"
	 viewBox="0 0 400 400" style="enable-background:new 0 0 400 400;" xml:space="preserve">
<style type="text/css">
	.st0{fill:#FFFFFF;}
</style>
<g>
	<g>
		<path class="st0" d="M21.4,273c0-8.8,0.1-17.6-0.1-26.5c-0.1-3.6,0.7-5.1,4.7-5c8.1,0.3,16.3,0,24.5,0.1
			c17.4,0.3,24.9,12.7,20.3,28.2c-1.2,4.1-4,6.9-7.6,8.8c-2.4,1.2-2.5,2.4-1.3,4.7c3.1,5.9,5.8,11.9,8.7,17.8
			c1.2,2.3,0.6,3.1-2.1,3.3c-10.1,0.7-10.1,0.8-14.7-8.4c-2.1-4.1-4.3-8.1-6.3-12.3c-1.7-3.4-4.7-1.5-7.1-2c-4.9-0.9-7,0.8-6.4,6.1
			c0.5,4.1,0,8.3,0.1,12.5c0.1,3-1,4.4-4.1,4c-1.5-0.2-3-0.1-4.5,0c-3.1,0.3-4.1-1.1-4.1-4.1C21.5,291.3,21.4,282.1,21.4,273z
			 M44.4,254.1c-10.4,0-10.4,0-10.4,10.4c0,0.5,0,1,0,1.5c-0.4,2.9,0.7,4.3,3.8,4.1c4.1-0.2,8.3,0,12.4-0.1c6-0.1,8-2.2,8-8.1
			c0-5.2-2.5-7.7-7.9-7.8C48.3,254,46.3,254.1,44.4,254.1z"/>
		<path class="st0" d="M256.7,272c0.8,0,1.7,0,2.5,0c9.5,0,9.5,0,8.9,9.3c-0.7,12.4-7.5,21-18.7,23.5c-12.3,2.7-23.7-2.5-29.4-13.5
			c-7.1-13.9-4.6-33.3,5.6-43.3c11.5-11.3,31.3-9.1,39.4,4.4c1.7,2.8,2.2,4.8-1.8,5.8c-1.7,0.5-3.4,1.3-5,2.1
			c-1.9,1-3.1,0.6-4.6-1.2c-7.2-9-18.6-7.3-22.7,3.5c-3.1,8.3-3.1,16.7,1.8,24.4c5.2,8.2,14.1,8.3,20.9,1.5c0.9-0.9,1.8-2.2,1.3-3.6
			c-0.7-1.9-2.6-0.9-3.9-1.2c-1.8-0.4-4.5,1.2-5.1-1.5c-0.7-3-0.8-6.3,0.2-9.4c0.4-1.1,1.7-0.8,2.6-0.8
			C251.4,271.9,254,271.9,256.7,272z"/>
		<path class="st0" d="M114,269c0.9,10.8,0.2,21.6,0.4,32.4c0,2.1-0.8,3.3-2.9,3c-3.2-0.4-6.6,1.2-9.6-1.3c-1.7-1.4-3.1,0.6-4.5,1.1
			c-12,4.6-24.1-4.3-23.1-17c0.6-7.3,5.9-12.6,14.1-13.8c3.5-0.5,7-0.8,10.4,0.4c3.4,1.1,3.4-0.6,2.7-2.9c-0.7-2.5-2.6-3.8-5.2-4
			c-3.5-0.2-7-0.2-10.3,1.5c-2.3,1.2-3.8,0.9-5.3-1.6c-3.2-5.6-3.2-5.9,3-8.3c5.9-2.2,12-2.7,18.1-1.2c5.3,1.3,9.3,4.2,11.3,9.6
			C112.9,267.8,113.2,268.5,114,269z M102,288c0.1-3.9-1.9-5.3-7.6-5.3c-5,0-7.6,1.9-7.6,5.8c-0.1,3.8,2.5,6.3,6.6,6.4
			C98.2,295,101.9,292,102,288z"/>
		<path class="st0" d="M173.7,305.3c-5.1,0.1-10.4-1.2-15.6-3.3c-3.4-1.4-3.8-3.3-2-6.2c1.4-2.2,1.1-6.4,6-3.8
			c4.1,2.3,8.9,2.8,13.6,2.7c2.3-0.1,5.1-0.1,5.4-3.2c0.3-2.7-2.1-3.5-4.2-4.2c-4.2-1.5-8.6-2.7-12.7-4.5c-6.5-2.9-9.4-8.1-8.5-14.3
			c0.8-6.1,5.2-10.2,12.1-11.5c7.1-1.4,13.9-0.4,20.6,2.1c2.8,1,4.5,2.3,2.4,5.4c-0.5,0.8-0.9,1.8-1.1,2.8c-0.8,3.1-2.2,4.4-5.4,2.5
			c-4-2.4-8.5-1.9-13-1.9c-1.5,0-2.7,0.4-3.2,1.7c-0.6,1.6,0.8,2.6,1.9,3.1c3,1.3,6.2,2.3,9.4,3.3c2.9,0.9,5.6,2,8.2,3.6
			c4.5,2.9,6.5,7,6.1,12.3c-0.4,5.5-3.2,9.4-8.2,11.6C181.9,305,178,305.3,173.7,305.3z"/>
		<path class="st0" d="M359.1,305.3c-5.6,0-10.8-1.4-16-3.4c-4.1-1.6-2.9-3.9-1.6-6.6c1.2-2.4,1.5-5.6,5.8-3.2
			c4.1,2.3,8.9,2.8,13.6,2.7c2.3-0.1,5.1-0.2,5.5-3.2c0.3-2.7-2.1-3.4-4.2-4.2c-4.4-1.5-8.9-2.8-13.1-4.7c-6.4-2.9-8.9-7.8-8.1-14.5
			c0.8-5.7,4.9-9.6,11.3-11.1c7.2-1.6,14.2-0.6,21.1,1.9c3.2,1.1,4,2.7,2.5,5.9c-1.8,3.9-3,7.4-8.6,3.9c-3.3-2.1-7.7-1-11.6-1.1
			c-1.4,0-2.3,0.5-2.6,1.7c-0.3,1.3,0.7,1.9,1.8,2.6c3.6,2.4,7.9,3.2,11.9,4.7c9.2,3.6,13.2,8.4,12.1,15.7
			c-1.2,7.7-6.6,11.9-16.1,12.6C361.4,305.3,360.2,305.3,359.1,305.3z"/>
		<path class="st0" d="M150.4,272c0,9.1-0.2,18.3,0.1,27.4c0.1,3.9-1,5.2-5.1,5.1c-8.6-0.3-7.4,0.5-7.4-7.6c0-15.6,0-31.3,0-46.9
			c0-3.6,7.8-10.4,11.2-9.8c2,0.4,1.2,2.1,1.2,3.3C150.4,253.1,150.4,262.5,150.4,272z"/>
		<path class="st0" d="M335.4,272.2c0,9.2-0.2,18.3,0.1,27.5c0.1,3.6-0.8,5-4.7,4.9c-7.6-0.2-7.6,0-7.6-7.4c0-15.8,0-31.6,0-47.5
			c0-3.2,8.1-10.1,11.1-9.3c1.9,0.5,1.2,2.2,1.2,3.3C335.4,253.2,335.4,262.7,335.4,272.2z"/>
		<path class="st0" d="M301.6,304.4c-11.2,0.3-11.2,0.3-11.2-10.7c0-10.5,0.2-21-0.1-31.5c-0.1-4.1,1.2-5.4,5.1-4.9
			c2.3,0.3,4.6,0.3,6.9,0.4c0,0.8,0,1.6,0.8,2c1,0.4,1.7-0.2,2.2-1.1c1.5-0.6,3-1.5,4.5-1.9c3.9-0.9,8.3-0.8,10.3,2.7
			c1.9,3.2-0.5,7.2-1.8,10.4c-1.1,2.6-3.2-0.5-5-0.8c-1.4-1.1-2.9-1.2-4.4-0.2c-6.1,1.5-5.7,6.5-6,11.1c-1.2,2.1-0.5,4.5-0.7,6.8
			C301.9,292.6,303,298.5,301.6,304.4z"/>
		<path class="st0" d="M136.8,154c0-1.3,0-2.7,0-4c0.9-8.3,0.9-16.7,0-25c-0.9-4.9,1.3-6.3,6-5.8c3.7,0.4,7.5,0.1,11.3,0.1
			c0.5,0.3,1,0.6,1.5,0.9c0,11.6,0,23.2,0,34.8c-0.7-0.1-1.1,0.3-1.4,0.9c-5.3,0-10.5,0-15.8-0.1C137.7,155.2,137.2,154.6,136.8,154
			z"/>
		<path class="st0" d="M209.5,119c0-5.5,0.1-11.1,0.1-16.6c12.1-1.6,24.3-0.8,36.4-0.4c0.1,5.3,0.1,10.7,0.2,16
			c-0.4,0.5-0.8,1-1.2,1.5c-11.3,0-22.6,0-33.9,0C210.5,119.3,210,119.1,209.5,119z"/>
		<path class="st0" d="M155.2,118c0-5.3,0-10.5,0.1-15.8c12.1-1.1,24.3-1.1,36.4,0c0,5.3,0,10.5,0,15.8c-0.3,0.5-0.5,1-0.8,1.5
			c-11.7,0-23.3,0-35,0C155.8,119,155.5,118.5,155.2,118z"/>
		<path class="st0" d="M119.3,280.7c0-6.3,0.1-12.6,0-18.9c-0.1-3.3,1.1-4.4,4.4-4.3c9.4,0.2,8.1-0.8,8.2,7.8
			c0.1,11.5-0.1,22.9,0.1,34.4c0.1,3.8-1.2,5.2-4.8,4.8c-1.3-0.2-2.7-0.1-4,0c-2.8,0.2-3.8-1-3.8-3.8
			C119.4,294,119.3,287.4,119.3,280.7z"/>
		<path class="st0" d="M247,119.2c5.3,0,10.5,0,15.8,0c1.1,12.2,1.1,24.4,0,36.5c-5.2,0-10.5,0-15.7,0
			C246.2,143.6,246.5,131.4,247,119.2z"/>
		<path class="st0" d="M285.6,281c0,6.3-0.2,12.6,0.1,18.9c0.1,3.5-1,5-4.5,4.6c-1.5-0.2-3-0.1-4.5,0c-2.5,0.1-3.6-0.9-3.6-3.5
			c0.1-13.3,0.1-26.6,0-39.9c0-2.5,0.9-3.7,3.5-3.6c1.3,0.1,2.7,0.2,4,0c3.9-0.5,5.3,1,5.1,5C285.4,268.6,285.6,274.8,285.6,281z"/>
		<path class="st0" d="M227.8,191c-5.5,2.4-11.2,0.4-16.8,1.1c-0.5-0.4-0.9-0.7-1.4-1.1c0-5.2,0-10.4,0.1-15.6
			c0.6-0.6,1.1-1.1,1.7-1.7c4.9,0,9.7-0.1,14.6-0.1c1.6,1.6,1.4,3.6,1.5,5.6C227.5,183.1,227.7,187.1,227.8,191z"/>
		<path class="st0" d="M193,119.2c5.3,0,10.6,0,15.8,0c0.8,6,0.3,11.9,0.3,17.9c-4.6,0.1-9.3,0.2-13.9,0.4c-1.2-0.5-2.4-1-3.6-1.5
			c0-5.3,0-10.7-0.1-16C192.1,119.7,192.5,119.5,193,119.2z"/>
		<path class="st0" d="M155.7,173.4c-1.1-5.4-0.2-10.9-0.5-16.4c0.3-0.5,0.5-1,0.8-1.4c5.3,0,10.7,0,16,0.1c0.5,0.5,0.9,0.9,1.4,1.4
			c0,5.3,0,10.7,0,16C167.5,173.1,161.6,173.3,155.7,173.4z"/>
		<path class="st0" d="M191.7,209c0-5.3,0-10.7,0-16c6-0.8,12.1-0.8,18.2,0c0,4.6-0.1,9.3,0,13.9c0.1,2.6-0.9,3.6-3.5,3.5
			c-4.5-0.1-8.9,0-13.4,0C192.6,209.9,192.1,209.5,191.7,209z"/>
		<path class="st0" d="M246.3,156c0,4.8-0.2,9.5-0.1,14.3c0.1,2.5-0.9,3.6-3.4,3.5c-4.6-0.1-9.2,0-13.8,0c-0.8-6-0.4-12-0.2-18
			c5.3-0.1,10.7-0.1,16-0.2C245.3,155.7,245.8,155.9,246.3,156z"/>
		<path class="st0" d="M271.8,246.8c0.1-3.3,4-6.9,7.5-7c3.8-0.1,7.4,3.6,7.2,7.3c-0.2,3-4.6,7.5-7.4,7.6
			C275.9,254.8,271.7,250.4,271.8,246.8z"/>
		<path class="st0" d="M125.5,253.9c-3.8-0.1-6.8-3.2-6.8-7c0-3.8,3.1-7,6.8-7.1c3.8,0,7.4,3.6,7.2,7.3
			C132.6,250.6,129,254,125.5,253.9z"/>
		<path class="st0" d="M246.3,156c-0.5-0.1-1.1-0.3-1.6-0.4c1.2-12,0.8-24.1,0.2-36.1c0.4-0.5,0.8-1,1.2-1.5
			c0.3,0.4,0.5,0.8,0.8,1.2c-0.6,12.2-0.8,24.4,0.1,36.5l-0.3,0.3L246.3,156z"/>
		<path class="st0" d="M191.7,102.2c-12.1-1-24.3-1.1-36.4,0c0.1-2.3,1.9-1.9,3.3-1.9c9.9,0,19.9,0,29.8,0
			C189.8,100.3,191.6,99.9,191.7,102.2z"/>
		<path class="st0" d="M246,102c-12.1-0.4-24.3-1.2-36.4,0.4c-0.3-2.5,1.6-2.1,3-2.1c10.1-0.1,20.2,0,30.3,0
			C244.2,100.3,245.7,100.1,246,102z"/>
		<path class="st0" d="M262.8,155.8c1.1-12.2,1.1-24.4,0-36.5c2.2,0.2,2,1.9,2,3.3c0,10,0,19.9,0,29.9
			C264.8,153.8,265.1,155.6,262.8,155.8z"/>
		<path class="st0" d="M228.8,155.8c-0.2,6-0.5,12,0.2,18c-1.1,5.7,0.8,11.6-1.2,17.2c-0.1-4-0.3-7.9-0.4-11.9c0-2,0.1-4-1.5-5.6
			c2.3-4,1-8.3,1.4-12.5C227.5,159.3,226.4,157,228.8,155.8z"/>
		<path class="st0" d="M136.8,125c0.9,8.3,0.9,16.7,0,25C135.9,141.7,135.9,133.3,136.8,125z"/>
		<path class="st0" d="M209.2,137.1c0-6,0.5-11.9-0.3-17.9l0.3-0.3c0,0,0.4,0.1,0.4,0.1c0.5,0.2,1,0.3,1.5,0.5
			c-1.3,3.4-0.3,6.9-0.7,10.3C210.1,132.2,211.5,135,209.2,137.1z"/>
		<path class="st0" d="M155.2,118c0.3,0.5,0.5,1,0.8,1.5c0,0.4-0.2,0.6-0.6,0.6c-0.5-0.3-1-0.6-1.5-0.9
			C154.4,118.8,154.8,118.4,155.2,118z"/>
		<path class="st0" d="M193,119.2c-0.5,0.3-0.9,0.5-1.4,0.8c-0.5,0.2-0.7,0-0.6-0.5c0.3-0.5,0.5-1,0.8-1.5
			C192.2,118.4,192.6,118.8,193,119.2z"/>
		<path class="st0" d="M191.7,209c0.4,0.5,0.9,0.9,1.3,1.4C191.7,210.8,191.1,210.5,191.7,209z"/>
		<path class="st0" d="M156,155.6c-0.3,0.5-0.5,1-0.8,1.4c-0.4-0.4-0.8-0.8-1.2-1.2c0.3-0.6,0.7-1,1.4-0.9
			C155.8,155,156,155.2,156,155.6z"/>
		<path class="st0" d="M136.8,154c0.5,0.6,1,1.2,1.5,1.7C136.7,156,136.2,155.5,136.8,154z"/>
		<path class="st0" d="M209.6,175.4c-0.3-1.5,0.2-2.1,1.7-1.7C210.8,174.2,210.2,174.8,209.6,175.4z"/>
		<path class="st0" d="M195.3,137.5c-1.8,1-3.5,1.9-3.6-1.5C192.9,136.5,194.1,137,195.3,137.5z"/>
		<path class="st0" d="M172,155.6c1.4-0.6,1.8,0,1.4,1.4C172.9,156.5,172.5,156.1,172,155.6z"/>
		<path class="st0" d="M191.7,175.2c0,4.9,0,9.9,0,14.8c-5.2,3.1-10.9,0.9-16.3,1.3c-0.4,0-1.3-0.8-1.3-1.3
			c0.1-5.5-1.7-11.1,1.2-16.4c4.8,0,9.5,0,14.3,0C190.3,174.2,191,174.7,191.7,175.2z"/>
		<path class="st0" d="M191.7,175.2c-0.7-0.5-1.4-1-2.1-1.6C191.1,173.2,191.9,173.5,191.7,175.2z"/>
	</g>
</g>
<g>
</g>
<g>
</g>
<g>
</g>
<g>
</g>
<g>
</g>
<g>
</g>
<g>
</g>
<g>
</g>
<g>
</g>
<g>
</g>
<g>
</g>
<g>
</g>
<g>
</g>
<g>
</g>
<g>
</g>
</svg>
