<?xml version="1.0" encoding="utf-8"?>
<!-- Generator: Adobe Illustrator 21.0.0, SVG Export Plug-In . SVG Version: 6.00 Build 0)  -->
<svg version="1.1" xmlns="http://www.w3.org/2000/svg" xmlns:xlink="http://www.w3.org/1999/xlink" x="0px" y="0px"
	 viewBox="0 0 787.5 862.5" style="enable-background:new 0 0 787.5 862.5;" xml:space="preserve">
<style type="text/css">
	.st0{fill:#FFFFFF;}
	.st1{display:none;}
	.st2{display:inline;}
	.st3{fill:#D9DEE0;}
	.st4{fill:#24255E;}
	.st5{fill:#2A2B62;}
</style>
<g id="logo_x5F_sirius_x5F_Titulo_xA0_Imagen_1_">
	<g>
		<g>
			<path class="st0" d="M521,108.6c0.5-0.3,1-0.5,1.5-0.7c0.1,0,0.1,0.1,0.2,0.1c-0.3,0.7-0.8,1.2-1.7,0.8
				c-9.2-2.3-18.3-4.6-27.5-6.9c-8.6-2.1-17.3-3.2-26-4.6c-17.2-2.6-34.4-2.1-51.7-2.2c-9.3,0-18.5,1.7-27.7,2.5
				c-7.7,0.6-15.3,1.9-22.9,2.8c-16.8,1.9-33,6-48.9,11.6c-27.9,10-52.7,25.1-72.5,47.3c-14.6,16.3-24.3,35.3-26.8,57.2
				c-0.4,3.5-0.6,7-0.7,10.5c0.1-3.6,0.3-7.2,0.7-10.8c2.4-21.9,12.2-40.9,26.8-57.2c19.9-22.3,44.6-37.4,72.5-47.3
				c15.8-5.6,32.1-9.7,48.9-11.6c7.6-0.9,15.2-2.1,22.9-2.8c9.3-0.8,18.4-2.5,27.7-2.4c17.3,0,34.5-0.5,51.7,2.1
				c8.7,1.3,17.4,2.4,26,4.6C502.7,104,511.8,106.3,521,108.6z"/>
			<path class="st0" d="M100.2,332.6c0,0.2,0,0.5,0,0.7c0-0.3,0-0.6,0-0.9c2.1-27.2,10.9-52.5,22.8-76.8c18-36.7,41-69.9,71.1-97.9
				c13.1-12.1,27.4-22.6,42.5-32.1c15.3-9.7,31.1-18.3,47.8-25.2c12.9-5.3,26-10,39.7-13.3c7.3-1.8,14.6-3.7,22.1-5
				C365,79,383.9,78,403,79.1c12.3,0.7,24.5,1.5,36.7,3.3c27.6,4.1,54.2,11.6,79.5,23.4c1.2,0.6,2.3,1.4,3.5,2.1
				c-0.1,0-0.1,0.1-0.2,0.1c-1.1-0.7-2.1-1.4-3.3-2c-25.3-11.8-51.9-19.3-79.5-23.4c-12.2-1.8-24.4-2.6-36.7-3.3
				c-19.1-1-38-0.1-56.8,3.1c-7.5,1.3-14.7,3.2-22.1,5c-13.7,3.3-26.8,8-39.7,13.3c-16.7,6.9-32.5,15.5-47.8,25.2
				c-15,9.6-29.4,20-42.5,32.1c-30.1,27.9-53.1,61.1-71.1,97.9C111.2,280.2,102.4,305.4,100.2,332.6z"/>
			<path class="st0" d="M205.9,603.9c-0.1,0-0.1-0.1-0.2-0.2c1-0.6,1.7,0.1,2.5,0.4c15.8,7.8,32.1,14.4,48.7,20.4
				c22.6,8.1,45.6,14.7,69.1,19.5c10.4,2.2,20.9,3.3,31.5,4.4c12.5,1.4,25.1,0.9,37.6,0.5c10.8-0.3,21.5-2,32.1-3.9
				c13.4-2.4,26.4-6.1,39.1-10.7c18.4-6.7,35.5-16.1,50.8-28.5c12.3-9.9,22.9-21.3,31-34.9c8.7-14.5,14-29.7,14.6-46
				c-0.6,16.4-5.9,31.7-14.6,46.3c-8.1,13.6-18.7,24.9-31,34.9c-15.4,12.4-32.4,21.8-50.8,28.5c-12.7,4.6-25.7,8.3-39.1,10.7
				c-10.7,1.9-21.4,3.6-32.1,3.9c-12.5,0.4-25.1,0.9-37.6-0.5c-10.6-1.2-21.1-2.3-31.5-4.4c-23.5-4.9-46.5-11.5-69.1-19.5
				c-16.6-5.9-32.9-12.5-48.7-20.4C207.5,604.1,206.8,603.5,205.9,603.9z"/>
			<path class="st0" d="M243.8,345.1c-17.2-2.3-34.4-4.1-51.6-5.5c-29.6-2.5-59.3-3.9-89-3.8c-2.1,0-2.9-0.4-3-2.2
				c0.1,1.5,0.9,2,3,2c29.7-0.2,59.4,1.2,89,3.8c17.3,1.5,34.5,3.3,51.6,5.5c20.8,2.8,41.5,6.1,62.1,10.4
				c29.1,6,58.1,12.7,86.3,22.5c31,10.7,61.7,22.3,90.2,38.8c22.9,13.3,44.4,28.5,60.4,50.1c9.7,13.2,17.1,27.4,19.2,44
				c0.3,2.5,0.5,5.1,0.6,7.6c-0.1-2.4-0.3-4.8-0.6-7.3c-2.2-16.5-9.5-30.8-19.2-44c-16-21.6-37.5-36.8-60.4-50.1
				c-28.5-16.5-59.2-28-90.2-38.8c-28.2-9.8-57.2-16.5-86.3-22.5C285.4,351.2,264.6,347.9,243.8,345.1z"/>
			<path class="st0" d="M688.5,418.3c0-1.2-1-1.4-2.6-1.4c-17.6,0.1-35.2-0.6-52.7-1.1c-25-0.7-49.8-2.9-74.6-5.2
				c-20.4-1.9-40.4-5.6-60.6-8.7c-21.2-3.3-42.1-8.5-62.9-14c-34.7-9.3-69.3-18.8-101.8-34.5c-18-8.7-35.6-17.9-52.8-27.9
				c-14.1-8.2-26.4-18.8-37.3-31.2c-12.3-14-20.6-29.8-24.9-47.9c-1.2-5.2-1.8-10.4-1.9-15.7c0.1,5.2,0.7,10.3,1.9,15.4
				c4.3,18.1,12.6,33.9,24.9,47.9c10.9,12.4,23.2,22.9,37.3,31.2c17.2,10.1,34.8,19.3,52.8,27.9c32.5,15.7,67.1,25.1,101.8,34.4
				c20.8,5.6,41.7,10.7,62.9,14c20.2,3.1,40.2,6.8,60.6,8.7c24.8,2.3,49.7,4.5,74.6,5.3c17.6,0.5,35.1,1.2,52.7,1.1
				C687.6,416.6,688.6,416.8,688.5,418.3z"/>
			<path class="st0" d="M688.5,418.3c0,0.3,0,0.7-0.1,1.2c-5.2,22.3-9.3,45-17.9,66.4c-26,64.3-69,113.7-129.1,148.4
				c-29.2,16.9-60.6,27.3-93.6,33.2c-21.2,3.8-42.5,5.7-64,5.1c-31-0.8-60.9-7.3-90.1-17.5c-31.4-10.9-59.6-27.6-85.1-48.8
				c-0.9-0.8-1.9-1.5-2.9-2.3c0.1,0,0.1-0.1,0.2-0.1c0.9,0.7,1.8,1.4,2.7,2.2c25.5,21.2,53.7,37.9,85.1,48.8
				c29.2,10.1,59.1,16.7,90.1,17.5c21.5,0.5,42.8-1.3,64-5.2c33-5.9,64.4-16.4,93.6-33.2c60.1-34.7,103.2-84.1,129.1-148.4
				c8.6-21.4,12.7-44.1,17.9-66.4C688.5,418.8,688.5,418.5,688.5,418.3z"/>
			<path class="st0" d="M765.6,385.1c-5,200.7-169.4,362.3-372.1,361.9C193.4,746.6,28.3,586.8,23.4,384.8
				c5.1,201.8,170.1,361.5,370.2,361.9C596.2,747.2,760.5,585.7,765.6,385.1z"/>
			<path class="st0" d="M217,216.6c-0.4,3.5-0.6,7-0.7,10.5c0.1-3.6,0.3-7.2,0.7-10.8c2.4-21.9,12.2-40.9,26.8-57.2
				c19.9-22.3,44.6-37.4,72.5-47.3c15.8-5.6,32.1-9.7,48.9-11.6c7.6-0.9,15.2-2.1,22.9-2.8c9.3-0.8,18.4-2.5,27.7-2.4
				c17.3,0,34.5-0.5,51.7,2.1c8.7,1.3,17.4,2.4,26,4.6c9.2,2.3,18.4,4.6,27.5,6.9c0.5-0.3,1-0.5,1.5-0.7c0.1,0,0.1,0.1,0.2,0.1
				c-0.3,0.7-0.8,1.2-1.7,0.8c-9.2-2.3-18.3-4.6-27.5-6.9c-8.6-2.1-17.3-3.2-26-4.6c-17.2-2.6-34.4-2.1-51.7-2.2
				c-9.3,0-18.5,1.7-27.7,2.5c-7.7,0.6-15.3,1.9-22.9,2.8c-16.8,1.9-33,6-48.9,11.6c-27.9,10-52.7,25.1-72.5,47.3
				C229.2,175.8,219.4,194.7,217,216.6z"/>
			<path class="st0" d="M243.8,345.1c-17.2-2.3-34.4-4.1-51.6-5.5c-29.6-2.5-59.3-3.9-89-3.8c-2.1,0-2.9-0.4-3-2.2
				c0.1,1.5,0.9,2,3,2c29.7-0.2,59.4,1.2,89,3.8c17.3,1.5,34.5,3.3,51.6,5.5c20.8,2.8,41.5,6.1,62.1,10.4
				c29.1,6,58.1,12.7,86.3,22.5c31,10.7,61.7,22.3,90.2,38.8c22.9,13.3,44.4,28.5,60.4,50.1c9.7,13.2,17.1,27.4,19.2,44
				c0.3,2.5,0.5,5.1,0.6,7.6c-0.1-2.4-0.3-4.8-0.6-7.3c-2.2-16.5-9.5-30.8-19.2-44c-16-21.6-37.5-36.8-60.4-50.1
				c-28.5-16.5-59.2-28-90.2-38.8c-28.2-9.8-57.2-16.5-86.3-22.5C285.4,351.2,264.6,347.9,243.8,345.1z"/>
			<path class="st0" d="M688.5,418.3c0,0.3,0,0.7-0.1,1.2c-5.2,22.3-9.3,45-17.9,66.4c-26,64.3-69,113.7-129.1,148.4
				c-29.2,16.9-60.6,27.3-93.6,33.2c-21.2,3.8-42.5,5.7-64,5.1c-31-0.8-60.9-7.3-90.1-17.5c-31.4-10.9-59.6-27.6-85.1-48.8
				c-0.9-0.8-1.9-1.5-2.9-2.3c0.1,0,0.1-0.1,0.2-0.1c0.9,0.7,1.8,1.4,2.7,2.2c25.5,21.2,53.7,37.9,85.1,48.8
				c29.2,10.1,59.1,16.7,90.1,17.5c21.5,0.5,42.8-1.3,64-5.2c33-5.9,64.4-16.4,93.6-33.2c60.1-34.7,103.2-84.1,129.1-148.4
				c8.6-21.4,12.7-44.1,17.9-66.4C688.5,418.8,688.5,418.5,688.5,418.3z"/>
			<path class="st0" d="M521,108.9c0.6-0.3,1.1-0.6,1.7-0.8c0.5,0,1.2,0.2,1,0.6C523,109.7,522,109.8,521,108.9z"/>
		</g>
	</g>
	<g>
	</g>
	<g>
		<path class="st0" d="M81,825.2H63.8c-0.7,0-1.2-0.2-1.6-0.6c-0.4-0.4-0.6-0.9-0.6-1.6s0.2-1.2,0.6-1.6c0.4-0.4,1-0.6,1.6-0.6h19.7
			c0.5,0.1,1,0.3,1.4,0.7c0.4,0.4,0.6,0.9,0.6,1.5v22c-0.1,0.7-0.4,1.3-0.8,1.6c-5.8,4.6-12.6,6.9-20.3,6.9
			c-9.1-0.1-16.8-3.2-23.2-9.4c-6.4-6.2-9.6-13.7-9.6-22.5c0-8.8,3.2-16.3,9.6-22.6c6.4-6.2,14.1-9.4,23.2-9.4
			c7.5,0,14.3,2.4,20.4,7.1c0.4,0.3,0.7,0.8,0.7,1.4c0.1,0.6-0.1,1.2-0.5,1.7c-0.8,1.1-1.9,1.2-3.1,0.4c-5-4.1-10.8-6.1-17.5-6.1
			c-7.9,0-14.6,2.7-20.1,8.1c-5.5,5.4-8.3,11.9-8.3,19.5c0,7.6,2.8,14.1,8.3,19.5c5.5,5.4,12.2,8.1,20.1,8.1
			c6.2,0,11.7-1.8,16.6-5.4V825.2z"/>
		<path class="st0" d="M151.5,852.6c-3.8,0-5.8-4.4-5.8-13.2c0-3.8-1.7-7-5.1-9.5c-2.5-1.7-5-2.8-7.6-3.2c-0.1-0.1-0.1-0.1-0.2-0.1
			h-15.3v24.9c0,0.6-0.2,1.1-0.7,1.5c-0.5,0.4-1,0.6-1.6,0.6c-0.6,0-1.1-0.2-1.5-0.6c-0.4-0.4-0.6-0.9-0.6-1.5v-58.7
			c0-0.5,0.2-1,0.6-1.4c0.4-0.4,0.9-0.7,1.4-0.7h18c5,0,9.2,1.8,12.7,5.3c3.5,3.5,5.2,7.8,5.2,12.7c0,3.5-0.9,6.8-2.8,9.7
			c-1.9,2.9-4.4,5.1-7.5,6.6l0.9,0.5c2.4,1.4,4.4,3.2,6,5.6c1.6,2.3,2.4,5.5,2.4,9.5c0,4,0.6,6.6,1.7,7.7c1.3-0.1,2.1,0.4,2.4,1.4
			c0.3,1.4-0.2,2.4-1.4,2.9h-0.2l-0.9,0.1H151.5z M142.8,818c2.6-2.6,3.9-5.8,3.9-9.5c0-3.7-1.3-6.9-4-9.5c-2.7-2.6-5.9-4-9.6-4
			h-15.6v27.2h15.9C137.1,822,140.3,820.7,142.8,818z"/>
		<path class="st0" d="M177.5,828.1v-35.4c0-0.6,0.2-1.1,0.6-1.5c0.4-0.4,0.9-0.6,1.5-0.6c0.6,0,1.1,0.2,1.6,0.6
			c0.4,0.4,0.7,0.9,0.7,1.5v35.4c0,5.8,2.1,10.8,6.2,14.8c4.1,4.1,9,6.2,14.8,6.2c5.9-0.1,10.9-2.1,15-6.2c4.1-4.1,6.2-9,6.2-14.8
			v-35.4c0-0.6,0.2-1.1,0.6-1.5c0.4-0.4,0.9-0.6,1.5-0.6c0.6,0,1.1,0.2,1.6,0.6c0.5,0.4,0.7,0.9,0.7,1.5v35.4c0,7-2.5,13-7.5,18
			c-5,5-11,7.5-18,7.5s-13-2.5-18-7.5C180,841.1,177.5,835.1,177.5,828.1z"/>
		<path class="st0" d="M257.4,851.4v-58.7c0-0.6,0.2-1.1,0.6-1.5c0.4-0.4,0.9-0.6,1.5-0.6h17.8c4.9,0,9.1,1.8,12.6,5.3
			c3.5,3.5,5.3,7.7,5.3,12.7s-1.8,9.2-5.3,12.7c-3.5,3.5-7.7,5.3-12.6,5.3l-15.6,0.2v24.8c0,0.6-0.2,1.1-0.7,1.5
			c-0.5,0.4-1,0.6-1.6,0.6c-0.6,0-1.1-0.2-1.5-0.6C257.6,852.5,257.4,852,257.4,851.4z M261.8,822.3h15.6c3.7-0.1,6.9-1.4,9.6-4.1
			c2.7-2.7,4-5.9,4-9.6c0-3.7-1.3-6.9-4-9.6c-2.7-2.7-5.9-4-9.6-4h-15.6V822.3z"/>
		<path class="st0" d="M313.8,821.6c0.1-8.9,3-16.4,8.9-22.6c5.9-6.2,13-9.3,21.5-9.3c8.4,0,15.6,3.1,21.4,9.3
			c5.8,6.2,8.8,13.8,8.8,22.6c-0.1,8.9-3,16.4-8.8,22.6c-5.8,6.2-12.9,9.3-21.4,9.3c-8.4,0-15.6-3.1-21.5-9.3
			C316.9,838.1,313.9,830.5,313.8,821.6z M344.1,794.2c-7.1,0-13.2,2.6-18.3,7.9c-5.1,5.3-7.6,11.8-7.6,19.5
			c0,7.7,2.5,14.2,7.6,19.6c5.1,5.3,11.1,8,18.2,8c7.1,0,13.1-2.7,18.2-8.1c5-5.4,7.6-11.9,7.6-19.5c-0.1-7.7-2.6-14.2-7.6-19.5
			C357.3,796.8,351.2,794.2,344.1,794.2z"/>
		<path class="st0" d="M436.2,806.1c0.1,6,6.2,10.1,18.2,12.4h0.2c6.9,1.3,12.2,3.2,16,5.8c4.6,3,6.9,7,6.9,11.9s-2.3,9.1-7,12.5
			c-4.7,3.4-10.1,5-16.3,5c-7.9-0.1-15.7-3.1-23.2-9.1c-1-0.8-1-1.8-0.3-2.8c0.4-0.4,0.8-0.7,1.3-0.7c0.5-0.1,1,0.1,1.4,0.5
			c6.8,5.5,13.7,8.2,20.7,8.1c5.5,0,10.1-1.4,13.9-4.1c3.6-2.6,5.4-5.7,5.4-9.4c0-6.7-6.6-11.3-19.7-13.8h-0.2
			c-14.2-2.6-21.3-8.1-21.3-16.3c0-4.7,2.1-8.6,6.4-11.7c4.3-3.1,9.4-4.7,15.3-4.7c2.6,0,5.2,0.4,7.8,1.3c2.6,0.9,4.6,1.7,6.1,2.5
			c1.4,0.8,3.3,2,5.6,3.5c1.1,0.7,1.3,1.7,0.5,2.8c-0.7,1.1-1.6,1.3-2.7,0.5c-2.2-1.4-3.9-2.5-5.3-3.2c-1.4-0.8-3.2-1.5-5.4-2.3
			c-2.3-0.7-4.5-1.1-6.6-1.1c-5,0-9.3,1.3-12.9,3.8C437.9,799.9,436.2,802.8,436.2,806.1z"/>
		<path class="st0" d="M501,851.4v-58.7c0-0.6,0.2-1.1,0.6-1.5c0.4-0.4,0.9-0.6,1.5-0.6c0.6,0,1.1,0.2,1.6,0.6
			c0.4,0.4,0.7,0.9,0.7,1.5v58.7c0,0.6-0.2,1.1-0.7,1.5c-0.5,0.4-1,0.6-1.6,0.6c-0.6,0-1.1-0.2-1.5-0.6
			C501.2,852.5,501,852,501,851.4z"/>
		<path class="st0" d="M571.7,852.6c-3.8,0-5.8-4.4-5.8-13.2c0-3.8-1.7-7-5.1-9.5c-2.5-1.7-5-2.8-7.6-3.2c-0.1-0.1-0.1-0.1-0.2-0.1
			h-15.3v24.9c0,0.6-0.2,1.1-0.7,1.5c-0.5,0.4-1,0.6-1.6,0.6c-0.6,0-1.1-0.2-1.5-0.6c-0.4-0.4-0.6-0.9-0.6-1.5v-58.7
			c0-0.5,0.2-1,0.6-1.4c0.4-0.4,0.9-0.7,1.4-0.7h18c5,0,9.2,1.8,12.7,5.3c3.5,3.5,5.2,7.8,5.2,12.7c0,3.5-0.9,6.8-2.8,9.7
			c-1.9,2.9-4.4,5.1-7.5,6.6l0.9,0.5c2.4,1.4,4.4,3.2,6,5.6c1.6,2.3,2.4,5.5,2.4,9.5c0,4,0.6,6.6,1.7,7.7c1.3-0.1,2.1,0.4,2.4,1.4
			c0.3,1.4-0.2,2.4-1.4,2.9h-0.2l-0.9,0.1H571.7z M563,818c2.6-2.6,3.9-5.8,3.9-9.5c0-3.7-1.3-6.9-4-9.5c-2.7-2.6-5.9-4-9.6-4h-15.6
			v27.2h15.9C557.3,822,560.5,820.7,563,818z"/>
		<path class="st0" d="M598.2,851.4v-58.7c0-0.6,0.2-1.1,0.6-1.5c0.4-0.4,0.9-0.6,1.5-0.6c0.6,0,1.1,0.2,1.6,0.6
			c0.5,0.4,0.7,0.9,0.7,1.5v58.7c0,0.6-0.2,1.1-0.7,1.5c-0.4,0.4-1,0.6-1.6,0.6c-0.6,0-1.1-0.2-1.5-0.6
			C598.4,852.5,598.2,852,598.2,851.4z"/>
		<path class="st0" d="M631.9,828.1v-35.4c0-0.6,0.2-1.1,0.6-1.5c0.4-0.4,0.9-0.6,1.5-0.6c0.6,0,1.1,0.2,1.6,0.6
			c0.5,0.4,0.7,0.9,0.7,1.5v35.4c0,5.8,2.1,10.8,6.2,14.8c4.1,4.1,9,6.2,14.8,6.2c5.9-0.1,10.9-2.1,15-6.2c4.1-4.1,6.2-9,6.2-14.8
			v-35.4c0-0.6,0.2-1.1,0.6-1.5c0.4-0.4,0.9-0.6,1.5-0.6c0.6,0,1.1,0.2,1.6,0.6c0.5,0.4,0.7,0.9,0.7,1.5v35.4c0,7-2.5,13-7.5,18
			c-5,5-11,7.5-18,7.5c-7,0-13-2.5-18-7.5C634.4,841.1,631.9,835.1,631.9,828.1z"/>
		<path class="st0" d="M714.4,806.1c0.1,6,6.2,10.1,18.2,12.4h0.2c6.9,1.3,12.2,3.2,16,5.8c4.6,3,6.9,7,6.9,11.9s-2.3,9.1-7,12.5
			c-4.7,3.4-10.1,5-16.3,5c-7.9-0.1-15.7-3.1-23.2-9.1c-1-0.8-1.1-1.8-0.3-2.8c0.4-0.4,0.8-0.7,1.3-0.7c0.5-0.1,1,0.1,1.4,0.5
			c6.8,5.5,13.7,8.2,20.7,8.1c5.5,0,10.1-1.4,13.9-4.1c3.6-2.6,5.4-5.7,5.4-9.4c0-6.7-6.6-11.3-19.7-13.8h-0.2
			c-14.2-2.6-21.3-8.1-21.3-16.3c0-4.7,2.1-8.6,6.4-11.7c4.3-3.1,9.4-4.7,15.3-4.7c2.6,0,5.2,0.4,7.8,1.3c2.6,0.9,4.6,1.7,6.1,2.5
			c1.4,0.8,3.3,2,5.6,3.5c1.1,0.7,1.3,1.7,0.5,2.8c-0.7,1.1-1.6,1.3-2.7,0.5c-2.2-1.4-3.9-2.5-5.3-3.2c-1.3-0.8-3.1-1.5-5.4-2.3
			c-2.3-0.7-4.5-1.1-6.6-1.1c-5,0-9.3,1.3-12.9,3.8C716.1,799.9,714.4,802.8,714.4,806.1z"/>
	</g>
</g>
<g id="Capa_2" class="st1">
	<g class="st2">
		<g>
			<path class="st3" d="M765.8,375.7c0,205-166.4,371.7-372.2,371.2C189.6,746.6,22,580.6,23.3,373.1C24.5,170.7,189.5,3,397.7,4.5
				C600,6.1,765.5,170.4,765.8,375.7z"/>
			<path class="st4" d="M521,108.9c-9.2-2.3-18.3-4.6-27.5-6.9c-8.6-2.1-17.3-3.2-26-4.6c-17.2-2.6-34.4-2.1-51.7-2.1
				c-9.3,0-18.5,1.7-27.7,2.4c-7.7,0.6-15.3,1.9-22.9,2.8c-16.8,1.9-33,6-48.9,11.6c-27.9,10-52.7,25-72.5,47.3
				c-14.6,16.3-24.3,35.3-26.8,57.2c-1.1,9.7-1.1,19.8,1.3,29.7c4.3,18.1,12.6,33.9,24.9,47.9c10.8,12.4,23.2,22.9,37.3,31.2
				c17.2,10.1,34.8,19.3,52.8,27.9c32.5,15.7,67.1,25.1,101.8,34.4c20.8,5.6,41.7,10.7,62.9,14c20.2,3.1,40.2,6.8,60.6,8.7
				c24.8,2.3,49.7,4.5,74.6,5.2c17.6,0.5,35.1,1.2,52.7,1.1c2.1,0,3,0.3,2.5,2.6c-5.2,22.3-9.3,45-17.9,66.4
				c-26,64.3-69,113.7-129.1,148.4c-29.2,16.9-60.6,27.3-93.6,33.2c-21.2,3.8-42.5,5.7-64,5.2c-31-0.7-60.9-7.3-90.1-17.5
				c-31.4-10.9-59.6-27.6-85.1-48.8c-0.9-0.8-1.9-1.5-2.9-2.3c1-0.6,1.7,0.1,2.5,0.4c15.8,7.8,32.1,14.4,48.7,20.4
				c22.6,8.1,45.6,14.7,69.1,19.6c10.4,2.2,20.9,3.3,31.5,4.4c12.5,1.4,25.1,0.9,37.6,0.5c10.8-0.3,21.5-2,32.2-3.9
				c13.4-2.4,26.4-6.1,39.1-10.7c18.4-6.7,35.5-16.1,50.8-28.5c12.3-9.9,22.9-21.3,31-34.9c11.2-18.7,16.8-38.5,13.9-60.4
				c-2.1-16.5-9.5-30.8-19.2-44c-16-21.6-37.4-36.8-60.4-50.1c-28.5-16.5-59.2-28-90.2-38.8c-28.2-9.8-57.2-16.5-86.3-22.5
				c-20.6-4.3-41.3-7.6-62.1-10.4c-17.2-2.3-34.4-4.1-51.6-5.5c-29.6-2.6-59.3-3.9-89-3.7c-2.5,0-3.1-0.6-2.9-3.2
				c2.1-27.2,10.9-52.5,22.8-76.7c18-36.7,41-69.9,71.1-97.8c13.1-12.1,27.4-22.6,42.5-32.2c15.3-9.7,31.1-18.3,47.8-25.2
				c12.9-5.3,26.1-10,39.7-13.3c7.3-1.8,14.6-3.7,22.1-5c18.8-3.2,37.7-4.1,56.8-3.1c12.3,0.7,24.5,1.5,36.7,3.3
				c27.6,4.1,54.2,11.6,79.5,23.4c1.2,0.6,2.3,1.4,3.5,2.1C522.4,108.8,521.9,109.2,521,108.9z"/>
			<path class="st5" d="M521,108.9c0.6-0.3,1.1-0.6,1.7-0.8c0.5,0,1.2,0.2,1,0.6C523,109.7,522,109.8,521,108.9z"/>
		</g>
	</g>
	<g class="st2">
	</g>
	<g class="st2">
		<path class="st0" d="M81,825.2H63.8c-0.7,0-1.2-0.2-1.6-0.6c-0.4-0.4-0.6-0.9-0.6-1.6s0.2-1.2,0.6-1.6c0.4-0.4,1-0.6,1.6-0.6h19.7
			c0.5,0.1,1,0.3,1.4,0.7c0.4,0.4,0.6,0.9,0.6,1.5v22c-0.1,0.7-0.4,1.3-0.8,1.6c-5.8,4.6-12.6,6.9-20.3,6.9
			c-9.1-0.1-16.8-3.2-23.2-9.4c-6.4-6.2-9.6-13.7-9.6-22.5c0-8.8,3.2-16.3,9.6-22.6c6.4-6.2,14.1-9.4,23.2-9.4
			c7.5,0,14.3,2.4,20.4,7.1c0.4,0.3,0.7,0.8,0.7,1.4c0.1,0.6-0.1,1.2-0.5,1.7c-0.8,1.1-1.9,1.2-3.1,0.4c-5-4.1-10.8-6.1-17.5-6.1
			c-7.9,0-14.6,2.7-20.1,8.1c-5.5,5.4-8.3,11.9-8.3,19.5c0,7.6,2.8,14.1,8.3,19.5c5.5,5.4,12.2,8.1,20.1,8.1
			c6.2,0,11.7-1.8,16.6-5.4V825.2z"/>
		<path class="st0" d="M151.5,852.6c-3.8,0-5.8-4.4-5.8-13.2c0-3.8-1.7-7-5.1-9.5c-2.5-1.7-5-2.8-7.6-3.2c-0.1-0.1-0.1-0.1-0.2-0.1
			h-15.3v24.9c0,0.6-0.2,1.1-0.7,1.5c-0.5,0.4-1,0.6-1.6,0.6c-0.6,0-1.1-0.2-1.5-0.6c-0.4-0.4-0.6-0.9-0.6-1.5v-58.7
			c0-0.5,0.2-1,0.6-1.4c0.4-0.4,0.9-0.7,1.4-0.7h18c5,0,9.2,1.8,12.7,5.3c3.5,3.5,5.2,7.8,5.2,12.7c0,3.5-0.9,6.8-2.8,9.7
			c-1.9,2.9-4.4,5.1-7.5,6.6l0.9,0.5c2.4,1.4,4.4,3.2,6,5.6c1.6,2.3,2.4,5.5,2.4,9.5c0,4,0.6,6.6,1.7,7.7c1.3-0.1,2.1,0.4,2.4,1.4
			c0.3,1.4-0.2,2.4-1.4,2.9h-0.2l-0.9,0.1H151.5z M142.8,818c2.6-2.6,3.9-5.8,3.9-9.5c0-3.7-1.3-6.9-4-9.5c-2.7-2.6-5.9-4-9.6-4
			h-15.6v27.2h15.9C137.1,822,140.3,820.7,142.8,818z"/>
		<path class="st0" d="M177.5,828.1v-35.4c0-0.6,0.2-1.1,0.6-1.5c0.4-0.4,0.9-0.6,1.5-0.6c0.6,0,1.1,0.2,1.6,0.6
			c0.4,0.4,0.7,0.9,0.7,1.5v35.4c0,5.8,2.1,10.8,6.2,14.8c4.1,4.1,9,6.2,14.8,6.2c5.9-0.1,10.9-2.1,15-6.2c4.1-4.1,6.2-9,6.2-14.8
			v-35.4c0-0.6,0.2-1.1,0.6-1.5c0.4-0.4,0.9-0.6,1.5-0.6c0.6,0,1.1,0.2,1.6,0.6c0.5,0.4,0.7,0.9,0.7,1.5v35.4c0,7-2.5,13-7.5,18
			c-5,5-11,7.5-18,7.5s-13-2.5-18-7.5C180,841.1,177.5,835.1,177.5,828.1z"/>
		<path class="st0" d="M257.4,851.4v-58.7c0-0.6,0.2-1.1,0.6-1.5c0.4-0.4,0.9-0.6,1.5-0.6h17.8c4.9,0,9.1,1.8,12.6,5.3
			c3.5,3.5,5.3,7.7,5.3,12.7s-1.8,9.2-5.3,12.7c-3.5,3.5-7.7,5.3-12.6,5.3l-15.6,0.2v24.8c0,0.6-0.2,1.1-0.7,1.5
			c-0.5,0.4-1,0.6-1.6,0.6c-0.6,0-1.1-0.2-1.5-0.6C257.6,852.5,257.4,852,257.4,851.4z M261.8,822.3h15.6c3.7-0.1,6.9-1.4,9.6-4.1
			c2.7-2.7,4-5.9,4-9.6c0-3.7-1.3-6.9-4-9.6c-2.7-2.7-5.9-4-9.6-4h-15.6V822.3z"/>
		<path class="st0" d="M313.8,821.6c0.1-8.9,3-16.4,8.9-22.6c5.9-6.2,13-9.3,21.5-9.3c8.4,0,15.6,3.1,21.4,9.3
			c5.8,6.2,8.8,13.8,8.8,22.6c-0.1,8.9-3,16.4-8.8,22.6c-5.8,6.2-12.9,9.3-21.4,9.3c-8.4,0-15.6-3.1-21.5-9.3
			C316.9,838,313.9,830.5,313.8,821.6z M344.1,794.2c-7.1,0-13.2,2.6-18.3,7.9c-5.1,5.3-7.6,11.8-7.6,19.5c0,7.7,2.5,14.2,7.6,19.6
			c5.1,5.3,11.1,8,18.2,8c7.1,0,13.1-2.7,18.2-8.1c5-5.4,7.6-11.9,7.6-19.5c-0.1-7.7-2.6-14.2-7.6-19.5
			C357.3,796.8,351.2,794.2,344.1,794.2z"/>
		<path class="st0" d="M436.2,806.1c0.1,6,6.2,10.1,18.2,12.4h0.2c6.9,1.3,12.2,3.2,16,5.8c4.6,3,6.9,7,6.9,11.9s-2.3,9.1-7,12.5
			c-4.7,3.4-10.1,5-16.3,5c-7.9-0.1-15.7-3.1-23.2-9.1c-1-0.8-1.1-1.8-0.3-2.8c0.4-0.4,0.8-0.7,1.4-0.7c0.5-0.1,1,0.1,1.4,0.5
			c6.8,5.5,13.7,8.2,20.7,8.1c5.5,0,10.1-1.4,13.9-4.1c3.6-2.6,5.4-5.7,5.4-9.4c0-6.7-6.6-11.3-19.7-13.8h-0.2
			c-14.2-2.6-21.3-8.1-21.3-16.3c0-4.7,2.1-8.6,6.4-11.7c4.3-3.1,9.4-4.7,15.3-4.7c2.6,0,5.2,0.4,7.8,1.3c2.6,0.9,4.6,1.7,6.1,2.5
			c1.4,0.8,3.3,2,5.6,3.5c1.1,0.7,1.3,1.7,0.5,2.8c-0.7,1.1-1.6,1.3-2.7,0.5c-2.2-1.4-3.9-2.5-5.3-3.2c-1.3-0.8-3.2-1.5-5.4-2.3
			c-2.3-0.7-4.5-1.1-6.6-1.1c-5,0-9.3,1.3-12.9,3.8C437.9,799.9,436.2,802.8,436.2,806.1z"/>
		<path class="st0" d="M501,851.4v-58.7c0-0.6,0.2-1.1,0.6-1.5c0.4-0.4,0.9-0.6,1.5-0.6c0.6,0,1.1,0.2,1.6,0.6
			c0.5,0.4,0.7,0.9,0.7,1.5v58.7c0,0.6-0.2,1.1-0.7,1.5c-0.5,0.4-1,0.6-1.6,0.6c-0.6,0-1.1-0.2-1.5-0.6
			C501.2,852.5,501,852,501,851.4z"/>
		<path class="st0" d="M571.7,852.6c-3.8,0-5.8-4.4-5.8-13.2c0-3.8-1.7-7-5.1-9.5c-2.5-1.7-5-2.8-7.6-3.2c-0.1-0.1-0.1-0.1-0.2-0.1
			h-15.3v24.9c0,0.6-0.2,1.1-0.7,1.5c-0.5,0.4-1,0.6-1.6,0.6c-0.6,0-1.1-0.2-1.5-0.6c-0.4-0.4-0.6-0.9-0.6-1.5v-58.7
			c0-0.5,0.2-1,0.6-1.4c0.4-0.4,0.9-0.7,1.4-0.7h18c5,0,9.2,1.8,12.7,5.3c3.5,3.5,5.2,7.8,5.2,12.7c0,3.5-0.9,6.8-2.8,9.7
			c-1.9,2.9-4.4,5.1-7.5,6.6l0.9,0.5c2.4,1.4,4.4,3.2,6,5.6c1.6,2.3,2.4,5.5,2.4,9.5c0,4,0.6,6.6,1.7,7.7c1.3-0.1,2.1,0.4,2.4,1.4
			c0.3,1.4-0.2,2.4-1.4,2.9h-0.2l-0.9,0.1H571.7z M563,818c2.6-2.6,3.9-5.8,3.9-9.5c0-3.7-1.3-6.9-4-9.5c-2.7-2.6-5.9-4-9.6-4h-15.6
			v27.2h15.9C557.3,822,560.5,820.7,563,818z"/>
		<path class="st0" d="M598.2,851.4v-58.7c0-0.6,0.2-1.1,0.6-1.5c0.4-0.4,0.9-0.6,1.5-0.6c0.6,0,1.1,0.2,1.6,0.6
			c0.5,0.4,0.7,0.9,0.7,1.5v58.7c0,0.6-0.2,1.1-0.7,1.5c-0.4,0.4-1,0.6-1.6,0.6c-0.6,0-1.1-0.2-1.5-0.6
			C598.4,852.5,598.2,852,598.2,851.4z"/>
		<path class="st0" d="M631.9,828.1v-35.4c0-0.6,0.2-1.1,0.6-1.5c0.4-0.4,0.9-0.6,1.5-0.6c0.6,0,1.1,0.2,1.6,0.6
			c0.5,0.4,0.7,0.9,0.7,1.5v35.4c0,5.8,2.1,10.8,6.2,14.8c4.1,4.1,9,6.2,14.8,6.2c5.9-0.1,10.9-2.1,15-6.2c4.1-4.1,6.2-9,6.2-14.8
			v-35.4c0-0.6,0.2-1.1,0.6-1.5c0.4-0.4,0.9-0.6,1.5-0.6c0.6,0,1.1,0.2,1.6,0.6c0.5,0.4,0.7,0.9,0.7,1.5v35.4c0,7-2.5,13-7.5,18
			c-5,5-11,7.5-18,7.5c-7,0-13-2.5-18-7.5C634.4,841.1,631.9,835.1,631.9,828.1z"/>
		<path class="st0" d="M714.4,806.1c0.1,6,6.2,10.1,18.2,12.4h0.2c6.9,1.3,12.2,3.2,16,5.8c4.6,3,6.9,7,6.9,11.9s-2.3,9.1-7,12.5
			c-4.7,3.4-10.1,5-16.3,5c-7.9-0.1-15.7-3.1-23.2-9.1c-1-0.8-1.1-1.8-0.3-2.8c0.4-0.4,0.8-0.7,1.3-0.7c0.5-0.1,1,0.1,1.4,0.5
			c6.8,5.5,13.7,8.2,20.7,8.1c5.5,0,10.1-1.4,13.9-4.1c3.6-2.6,5.4-5.7,5.4-9.4c0-6.7-6.6-11.3-19.7-13.8h-0.2
			c-14.2-2.6-21.3-8.1-21.3-16.3c0-4.7,2.1-8.6,6.4-11.7c4.3-3.1,9.4-4.7,15.3-4.7c2.6,0,5.2,0.4,7.8,1.3c2.6,0.9,4.6,1.7,6.1,2.5
			c1.4,0.8,3.3,2,5.6,3.5c1.1,0.7,1.3,1.7,0.5,2.8c-0.7,1.1-1.6,1.3-2.7,0.5c-2.2-1.4-3.9-2.5-5.3-3.2c-1.3-0.8-3.1-1.5-5.4-2.3
			c-2.3-0.7-4.5-1.1-6.6-1.1c-5,0-9.3,1.3-12.9,3.8C716.1,799.9,714.4,802.8,714.4,806.1z"/>
	</g>
</g>
<g id="Capa_3">
	<g>
		<path class="st0" d="M81,825H63.8c-0.7,0-1.2-0.2-1.6-0.6c-0.4-0.4-0.6-0.9-0.6-1.6s0.2-1.2,0.6-1.6c0.4-0.4,1-0.6,1.6-0.6h19.7
			c0.5,0.1,1,0.3,1.4,0.7c0.4,0.4,0.6,0.9,0.6,1.5v22c-0.1,0.7-0.4,1.3-0.8,1.6c-5.8,4.6-12.6,6.9-20.3,6.9
			c-9.1-0.1-16.8-3.2-23.2-9.4c-6.4-6.2-9.6-13.7-9.6-22.5c0-8.8,3.2-16.3,9.6-22.6c6.4-6.2,14.1-9.4,23.2-9.4
			c7.5,0,14.3,2.4,20.4,7.1c0.4,0.3,0.7,0.8,0.7,1.4c0.1,0.6-0.1,1.2-0.5,1.7c-0.8,1.1-1.9,1.2-3.1,0.4c-5-4.1-10.8-6.1-17.5-6.1
			c-7.9,0-14.6,2.7-20.1,8.1c-5.5,5.4-8.3,11.9-8.3,19.5c0,7.6,2.8,14.1,8.3,19.5c5.5,5.4,12.2,8.1,20.1,8.1
			c6.2,0,11.7-1.8,16.6-5.4V825z"/>
		<path class="st0" d="M151.5,852.3c-3.8,0-5.8-4.4-5.8-13.2c0-3.8-1.7-7-5.1-9.5c-2.5-1.7-5-2.8-7.6-3.2c-0.1-0.1-0.1-0.1-0.2-0.1
			h-15.3v24.9c0,0.6-0.2,1.1-0.7,1.5c-0.5,0.4-1,0.6-1.6,0.6c-0.6,0-1.1-0.2-1.5-0.6c-0.4-0.4-0.6-0.9-0.6-1.5v-58.7
			c0-0.5,0.2-1,0.6-1.4c0.4-0.4,0.9-0.7,1.4-0.7h18c5,0,9.2,1.8,12.7,5.3c3.5,3.5,5.2,7.8,5.2,12.7c0,3.5-0.9,6.8-2.8,9.7
			c-1.9,2.9-4.4,5.1-7.5,6.6l0.9,0.5c2.4,1.4,4.4,3.2,6,5.6c1.6,2.3,2.4,5.5,2.4,9.5c0,4,0.6,6.6,1.7,7.7c1.3-0.1,2.1,0.4,2.4,1.4
			c0.3,1.4-0.2,2.4-1.4,2.9h-0.2l-0.9,0.1H151.5z M142.8,817.8c2.6-2.6,3.9-5.8,3.9-9.5c0-3.7-1.3-6.9-4-9.5c-2.7-2.6-5.9-4-9.6-4
			h-15.6v27.2h15.9C137.1,821.8,140.3,820.4,142.8,817.8z"/>
		<path class="st0" d="M177.5,827.9v-35.4c0-0.6,0.2-1.1,0.6-1.5c0.4-0.4,0.9-0.6,1.5-0.6c0.6,0,1.1,0.2,1.6,0.6
			c0.4,0.4,0.7,0.9,0.7,1.5v35.4c0,5.8,2.1,10.8,6.2,14.8c4.1,4.1,9,6.2,14.8,6.2c5.9-0.1,10.9-2.1,15-6.2c4.1-4.1,6.2-9,6.2-14.8
			v-35.4c0-0.6,0.2-1.1,0.6-1.5c0.4-0.4,0.9-0.6,1.5-0.6c0.6,0,1.1,0.2,1.6,0.6c0.5,0.4,0.7,0.9,0.7,1.5v35.4c0,7-2.5,13-7.5,18
			c-5,5-11,7.5-18,7.5s-13-2.5-18-7.5C180,840.9,177.5,834.9,177.5,827.9z"/>
		<path class="st0" d="M257.4,851.2v-58.7c0-0.6,0.2-1.1,0.6-1.5c0.4-0.4,0.9-0.6,1.5-0.6h17.8c4.9,0,9.1,1.8,12.6,5.3
			c3.5,3.5,5.3,7.7,5.3,12.7s-1.8,9.2-5.3,12.7c-3.5,3.5-7.7,5.3-12.6,5.3l-15.6,0.2v24.8c0,0.6-0.2,1.1-0.7,1.5
			c-0.5,0.4-1,0.6-1.6,0.6c-0.6,0-1.1-0.2-1.5-0.6C257.6,852.3,257.4,851.8,257.4,851.2z M261.8,822h15.6c3.7-0.1,6.9-1.4,9.6-4.1
			c2.7-2.7,4-5.9,4-9.6c0-3.7-1.3-6.9-4-9.6c-2.7-2.7-5.9-4-9.6-4h-15.6V822z"/>
		<path class="st0" d="M313.8,821.4c0.1-8.9,3-16.4,8.9-22.6c5.9-6.2,13-9.3,21.5-9.3c8.4,0,15.6,3.1,21.4,9.3
			c5.8,6.2,8.8,13.8,8.8,22.6c-0.1,8.9-3,16.4-8.8,22.6c-5.8,6.2-12.9,9.3-21.4,9.3c-8.4,0-15.6-3.1-21.5-9.3
			C316.9,837.8,313.9,830.3,313.8,821.4z M344.1,793.9c-7.1,0-13.2,2.6-18.3,7.9c-5.1,5.3-7.6,11.8-7.6,19.5
			c0,7.7,2.5,14.2,7.6,19.6c5.1,5.3,11.1,8,18.2,8c7.1,0,13.1-2.7,18.2-8.1c5-5.4,7.6-11.9,7.6-19.5c-0.1-7.7-2.6-14.2-7.6-19.5
			C357.3,796.6,351.2,793.9,344.1,793.9z"/>
		<path class="st0" d="M436.2,805.8c0.1,6,6.2,10.1,18.2,12.4h0.2c6.9,1.3,12.2,3.2,16,5.8c4.6,3,6.9,7,6.9,11.9s-2.3,9.1-7,12.5
			c-4.7,3.4-10.1,5-16.3,5c-7.9-0.1-15.7-3.1-23.2-9.1c-1-0.8-1-1.8-0.3-2.8c0.4-0.4,0.8-0.7,1.3-0.7c0.5-0.1,1,0.1,1.4,0.5
			c6.8,5.5,13.7,8.2,20.7,8.1c5.5,0,10.1-1.4,13.9-4.1c3.6-2.6,5.4-5.7,5.4-9.4c0-6.7-6.6-11.3-19.7-13.8h-0.2
			c-14.2-2.6-21.3-8.1-21.3-16.3c0-4.7,2.1-8.6,6.4-11.7c4.3-3.1,9.4-4.7,15.3-4.7c2.6,0,5.2,0.4,7.8,1.3c2.6,0.9,4.6,1.7,6.1,2.5
			c1.4,0.8,3.3,2,5.6,3.5c1.1,0.7,1.3,1.7,0.5,2.8c-0.7,1.1-1.6,1.3-2.7,0.5c-2.2-1.4-3.9-2.5-5.3-3.2c-1.4-0.8-3.2-1.5-5.4-2.3
			c-2.3-0.7-4.5-1.1-6.6-1.1c-5,0-9.3,1.3-12.9,3.8C437.9,799.6,436.2,802.5,436.2,805.8z"/>
		<path class="st0" d="M501,851.2v-58.7c0-0.6,0.2-1.1,0.6-1.5c0.4-0.4,0.9-0.6,1.5-0.6c0.6,0,1.1,0.2,1.6,0.6
			c0.4,0.4,0.7,0.9,0.7,1.5v58.7c0,0.6-0.2,1.1-0.7,1.5c-0.5,0.4-1,0.6-1.6,0.6c-0.6,0-1.1-0.2-1.5-0.6
			C501.2,852.3,501,851.8,501,851.2z"/>
		<path class="st0" d="M571.7,852.3c-3.8,0-5.8-4.4-5.8-13.2c0-3.8-1.7-7-5.1-9.5c-2.5-1.7-5-2.8-7.6-3.2c-0.1-0.1-0.1-0.1-0.2-0.1
			h-15.3v24.9c0,0.6-0.2,1.1-0.7,1.5c-0.5,0.4-1,0.6-1.6,0.6c-0.6,0-1.1-0.2-1.5-0.6c-0.4-0.4-0.6-0.9-0.6-1.5v-58.7
			c0-0.5,0.2-1,0.6-1.4c0.4-0.4,0.9-0.7,1.4-0.7h18c5,0,9.2,1.8,12.7,5.3c3.5,3.5,5.2,7.8,5.2,12.7c0,3.5-0.9,6.8-2.8,9.7
			c-1.9,2.9-4.4,5.1-7.5,6.6l0.9,0.5c2.4,1.4,4.4,3.2,6,5.6c1.6,2.3,2.4,5.5,2.4,9.5c0,4,0.6,6.6,1.7,7.7c1.3-0.1,2.1,0.4,2.4,1.4
			c0.3,1.4-0.2,2.4-1.4,2.9h-0.2l-0.9,0.1H571.7z M563,817.8c2.6-2.6,3.9-5.8,3.9-9.5c0-3.7-1.3-6.9-4-9.5c-2.7-2.6-5.9-4-9.6-4
			h-15.6v27.2h15.9C557.3,821.8,560.5,820.4,563,817.8z"/>
		<path class="st0" d="M598.2,851.2v-58.7c0-0.6,0.2-1.1,0.6-1.5c0.4-0.4,0.9-0.6,1.5-0.6c0.6,0,1.1,0.2,1.6,0.6
			c0.5,0.4,0.7,0.9,0.7,1.5v58.7c0,0.6-0.2,1.1-0.7,1.5c-0.4,0.4-1,0.6-1.6,0.6c-0.6,0-1.1-0.2-1.5-0.6
			C598.4,852.3,598.2,851.8,598.2,851.2z"/>
		<path class="st0" d="M631.9,827.9v-35.4c0-0.6,0.2-1.1,0.6-1.5c0.4-0.4,0.9-0.6,1.5-0.6c0.6,0,1.1,0.2,1.6,0.6
			c0.5,0.4,0.7,0.9,0.7,1.5v35.4c0,5.8,2.1,10.8,6.2,14.8c4.1,4.1,9,6.2,14.8,6.2c5.9-0.1,10.9-2.1,15-6.2c4.1-4.1,6.2-9,6.2-14.8
			v-35.4c0-0.6,0.2-1.1,0.6-1.5c0.4-0.4,0.9-0.6,1.5-0.6c0.6,0,1.1,0.2,1.6,0.6c0.5,0.4,0.7,0.9,0.7,1.5v35.4c0,7-2.5,13-7.5,18
			c-5,5-11,7.5-18,7.5c-7,0-13-2.5-18-7.5C634.4,840.9,631.9,834.9,631.9,827.9z"/>
		<path class="st0" d="M714.4,805.8c0.1,6,6.2,10.1,18.2,12.4h0.2c6.9,1.3,12.2,3.2,16,5.8c4.6,3,6.9,7,6.9,11.9s-2.3,9.1-7,12.5
			c-4.7,3.4-10.1,5-16.3,5c-7.9-0.1-15.7-3.1-23.2-9.1c-1-0.8-1.1-1.8-0.3-2.8c0.4-0.4,0.8-0.7,1.3-0.7c0.5-0.1,1,0.1,1.4,0.5
			c6.8,5.5,13.7,8.2,20.7,8.1c5.5,0,10.1-1.4,13.9-4.1c3.6-2.6,5.4-5.7,5.4-9.4c0-6.7-6.6-11.3-19.7-13.8h-0.2
			c-14.2-2.6-21.3-8.1-21.3-16.3c0-4.7,2.1-8.6,6.4-11.7c4.3-3.1,9.4-4.7,15.3-4.7c2.6,0,5.2,0.4,7.8,1.3c2.6,0.9,4.6,1.7,6.1,2.5
			c1.4,0.8,3.3,2,5.6,3.5c1.1,0.7,1.3,1.7,0.5,2.8c-0.7,1.1-1.6,1.3-2.7,0.5c-2.2-1.4-3.9-2.5-5.3-3.2c-1.3-0.8-3.1-1.5-5.4-2.3
			c-2.3-0.7-4.5-1.1-6.6-1.1c-5,0-9.3,1.3-12.9,3.8C716.1,799.6,714.4,802.5,714.4,805.8z"/>
	</g>
	<g>
	</g>
	<g>
		<g>
			<path class="st0" d="M522.5,107.9c-0.5,0.2-1,0.5-1.5,0.7c-9.2-2.3-18.3-4.6-27.5-6.9c-8.6-2.1-17.3-3.2-26-4.6
				C450.3,94.5,433,95,415.8,95c-9.3,0-18.5,1.7-27.7,2.4c-7.7,0.6-15.3,1.9-22.9,2.8c-16.8,1.9-33,6-48.9,11.6
				c-27.9,10-52.7,25-72.5,47.3c-14.6,16.3-24.3,35.3-26.8,57.2c-0.4,3.6-0.6,7.2-0.7,10.8c0.1-3.5,0.3-7.1,0.7-10.5
				c2.4-21.9,12.2-40.9,26.8-57.2c19.9-22.3,44.6-37.4,72.5-47.3c15.8-5.6,32.1-9.7,48.9-11.6c7.6-0.9,15.2-2.1,22.9-2.8
				c9.3-0.8,18.4-2.5,27.7-2.5c17.3,0,34.5-0.5,51.7,2.2c8.7,1.3,17.4,2.4,26,4.6c9.2,2.3,18.4,4.6,27.5,6.9
				c0.9,0.3,1.3-0.1,1.7-0.8C522.6,108,522.5,107.9,522.5,107.9z M562.1,510.6c-2.2-16.5-9.5-30.8-19.2-44
				c-16-21.6-37.5-36.8-60.4-50.1c-28.5-16.5-59.2-28-90.2-38.8c-28.2-9.8-57.2-16.5-86.3-22.5c-20.6-4.3-41.3-7.6-62.1-10.4
				c-17.2-2.3-34.4-4-51.6-5.5c-29.6-2.6-59.3-4-89-3.8c-2,0-2.8-0.4-3-2c0,1.8,0.8,2.2,3,2.2c29.7-0.2,59.4,1.2,89,3.8
				c17.3,1.5,34.5,3.3,51.6,5.5c20.8,2.8,41.5,6.1,62.1,10.4c29.1,6,58.1,12.7,86.3,22.5c31,10.8,61.7,22.3,90.2,38.8
				c22.9,13.3,44.4,28.5,60.4,50.1c9.7,13.2,17.1,27.4,19.2,44c0.3,2.5,0.5,4.9,0.6,7.3C562.6,515.7,562.4,513.2,562.1,510.6z
				 M397.7,4.3C191,2.8,26.9,168,23.3,368.4C27.1,168.1,191.1,3,397.7,4.5c196,1.5,357.5,155.8,367.6,352.2
				C755.4,160.2,593.8,5.8,397.7,4.3z M688.4,419.2c-5.2,22.3-9.3,45-17.9,66.4c-26,64.3-69,113.7-129.1,148.4
				c-29.2,16.9-60.6,27.3-93.6,33.2c-21.2,3.8-42.5,5.7-64,5.2c-31-0.8-60.9-7.3-90.1-17.5c-31.4-10.9-59.6-27.6-85.1-48.8
				c-0.9-0.7-1.8-1.5-2.7-2.2c-0.1,0-0.1,0-0.2,0.1c1,0.8,1.9,1.5,2.9,2.3c25.5,21.2,53.7,37.9,85.1,48.8
				c29.2,10.1,59.1,16.7,90.1,17.5c21.5,0.5,42.8-1.3,64-5.1c33-5.9,64.4-16.4,93.6-33.2c60.1-34.7,103.2-84.1,129.1-148.4
				c8.6-21.4,12.7-44.1,17.9-66.4c0.1-0.5,0.2-0.9,0.1-1.2C688.5,418.5,688.5,418.8,688.4,419.2z"/>
			<path class="st0" d="M765.6,366.1c-0.1-3.1-0.2-6.3-0.4-9.4C755.2,160.3,593.7,6,397.7,4.5C191.1,3,27.1,168.1,23.3,368.4
				c0,1.5,0,3-0.1,4.5c0,4,0,8,0.1,12c0,1.6,0.1,3.2,0.2,4.7c7.5,199.6,171.5,356.8,370,357.2c199.5,0.4,361.8-156.1,371.7-352.3
				c0.2-3.1,0.3-6.2,0.4-9.4c0.1-3.2,0.1-6.4,0.1-9.6C765.8,372.4,765.7,369.3,765.6,366.1z M688.4,419.5
				c-5.2,22.3-9.3,45-17.9,66.4c-26,64.3-69,113.7-129.1,148.4c-29.2,16.9-60.6,27.3-93.6,33.2c-21.2,3.8-42.5,5.7-64,5.1
				c-31-0.8-60.9-7.3-90.1-17.5c-31.4-10.9-59.6-27.6-85.1-48.8c-0.9-0.8-1.9-1.5-2.9-2.3c0.1,0,0.1-0.1,0.2-0.1
				c-0.1,0-0.1-0.1-0.2-0.2c1-0.6,1.7,0.1,2.5,0.4c15.8,7.8,32.1,14.4,48.7,20.4c22.6,8.1,45.6,14.7,69.1,19.5
				c10.4,2.2,20.9,3.3,31.5,4.4c12.5,1.4,25.1,0.9,37.6,0.5c10.8-0.3,21.5-2,32.1-3.9c13.4-2.4,26.4-6.1,39.1-10.7
				c18.4-6.7,35.5-16.1,50.8-28.5c12.3-9.9,22.9-21.3,31-34.9c8.7-14.5,14-29.7,14.6-46c0-0.5,0-1.1,0-1.6c0-0.9,0-1.8,0-2.8
				c0-0.8,0-1.7-0.1-2.5c-0.1-2.4-0.3-4.8-0.6-7.3c-2.2-16.5-9.5-30.8-19.2-44c-16-21.6-37.5-36.8-60.4-50.1
				c-28.5-16.5-59.2-28-90.2-38.8c-28.2-9.8-57.2-16.5-86.3-22.5c-20.6-4.3-41.3-7.6-62.1-10.4c-17.2-2.3-34.4-4.1-51.6-5.5
				c-29.6-2.5-59.3-3.9-89-3.8c-2.1,0-2.9-0.4-3-2.2c0-0.1,0-0.2,0-0.3c0-0.3,0-0.6,0-0.9c2.1-27.2,10.9-52.5,22.8-76.8
				c18-36.7,41-69.9,71.1-97.9c13.1-12.1,27.4-22.6,42.5-32.1c15.3-9.7,31.1-18.3,47.8-25.2c12.9-5.3,26-10,39.7-13.3
				c7.3-1.8,14.6-3.7,22.1-5C365,79,383.9,78,403,79.1c12.3,0.7,24.5,1.5,36.7,3.3c27.6,4.1,54.2,11.6,79.5,23.4
				c1.2,0.6,2.3,1.4,3.5,2.1c-0.1,0-0.1,0.1-0.2,0.1c0.1,0,0.1,0.1,0.2,0.1c-0.3,0.7-0.8,1.2-1.7,0.8c-9.2-2.3-18.3-4.6-27.5-6.9
				c-8.6-2.1-17.3-3.2-26-4.6c-17.2-2.6-34.4-2.1-51.7-2.2c-9.3,0-18.5,1.7-27.7,2.5c-7.7,0.6-15.3,1.9-22.9,2.8
				c-16.8,1.9-33,6-48.9,11.6c-27.9,10-52.7,25.1-72.5,47.3c-14.6,16.3-24.3,35.3-26.8,57.2c-0.4,3.5-0.6,7-0.7,10.5
				c0,1.1,0,2.3,0,3.5c0.1,5.2,0.7,10.3,1.9,15.4c4.3,18.1,12.6,33.9,24.9,47.9c10.9,12.4,23.2,22.9,37.3,31.2
				c17.2,10.1,34.8,19.3,52.8,27.9c32.5,15.7,67.1,25.1,101.8,34.4c20.8,5.6,41.7,10.7,62.9,14c20.2,3.1,40.2,6.8,60.6,8.7
				c24.8,2.3,49.7,4.5,74.6,5.3c17.6,0.5,35.1,1.2,52.7,1.1c1.8,0,2.7,0.2,2.6,1.7C688.5,418.6,688.5,419,688.4,419.5z"/>
			<path class="st0" d="M522.7,107.8c-0.3,0.7-0.8,1.2-1.7,0.8C521.6,108.3,522.1,108.1,522.7,107.8z"/>
			<path class="st0" d="M523.6,108.4c-0.7,1.1-1.7,1.2-2.6,0.3c0.6-0.3,1.1-0.6,1.7-0.8C523.1,107.8,523.9,107.9,523.6,108.4z"/>
		</g>
	</g>
</g>
</svg>
