<?xml version="1.0" encoding="utf-8"?>
<!-- Generator: Adobe Illustrator 21.0.0, SVG Export Plug-In . SVG Version: 6.00 Build 0)  -->
<svg version="1.1" id="Capa_1" xmlns="http://www.w3.org/2000/svg" xmlns:xlink="http://www.w3.org/1999/xlink" x="0px" y="0px"
	 viewBox="0 0 400 400" style="enable-background:new 0 0 400 400;" xml:space="preserve">
<style type="text/css">
	.st0{fill:#FCFCFC;}
	.st1{fill:#F2F2F2;}
</style>
<g>
	<g>
		<path class="st0" d="M45.5,68.8c0,8.4-0.1,16.8-0.1,25.2c0,45.4,0,90.7,0,136.1c0,1.3,0,2.6,0,4c-1.6,0.2-2.1-1.1-2.9-1.9
			c-10.6-10.5-21.1-21.1-31.8-31.6c-0.8-0.8-1.1-2.6-2.9-1.9c0-31.3,0-62.6,0-93.8c1.2,1,1.6-0.3,2.1-0.8
			C21,92.9,32.1,81.8,43.2,70.6c0.4-0.4,1.5-0.8,0.7-1.8C44.4,68.8,45,68.8,45.5,68.8z"/>
		<path class="st0" d="M360.7,68.8c-1,1.9,1,2.4,1.8,3.2c10,10.2,20.1,20.2,30.3,30.3c0.9,0.9,2.1,1.6,3.1,2.4
			c-0.2,0.3-0.4,0.5-0.5,0.8c-43.9,0-87.8,0-131.8,0c-0.1-1.4,1.2-1.8,2-2.6c10.3-10.3,20.6-20.6,30.8-30.9c0.8-0.8,2.8-1.3,1.8-3.2
			C319,68.8,339.9,68.8,360.7,68.8z"/>
		<path class="st0" d="M292.5,68.8c-11.8,11.8-23.6,23.7-35.3,35.5c-1,1-2,1.5-3.5,1.5c-23.8,0-47.6,0-71.4,0c0-1.6,1.2-2.1,2-2.9
			c10.3-10.3,20.6-20.6,30.8-31c0.8-0.9,2.6-1.3,2-3.2C242.3,68.8,267.4,68.8,292.5,68.8z"/>
		<path class="st0" d="M210.7,68.8c-3,4.6-7.3,8-11.1,11.9c-7.5,7.8-15.3,15.4-22.9,23c-1.3,1.3-2.4,2.2-4.4,2.2
			c-23.6-0.1-47.3-0.1-71-0.1c-0.4-1.5,0.9-1.9,1.6-2.5c10.4-10.5,20.9-21,31.3-31.6c0.8-0.8,2.6-1.1,1.9-2.9
			C161,68.8,185.9,68.8,210.7,68.8z"/>
		<path class="st0" d="M396.8,143.4c-1.9-1-2.4,1-3.2,1.8c-10.5,10.3-20.8,20.7-31.2,31.2c-0.9,0.9-1.7,1.9-2.7,3
			c-1.1-1.6-0.7-2.8-0.7-3.9c0-20.7,0.1-41.4-0.1-62.1c0-3.5,1-4.2,4.3-4.1c11.1,0.3,22.1,0.3,33.2,0.3c0.1,0,0.3-0.4,0.5-0.6
			C396.8,120.4,396.8,131.9,396.8,143.4z"/>
		<path class="st1" d="M7.8,253.3c5.5,0,5.5,0,5.5,5.4c0,5.5,0,10.9,0,16.4c0,1.5,0.1,3,0.4,4.4c0.4,1.6,1.3,3,3.3,3
			c2,0,3-1.3,3.2-3c0.4-2.1,0.5-4.2,0.5-6.4c0.1-5.7,0.1-11.5,0-17.2c-0.1-2.1,0.6-2.8,2.7-2.7c1.6,0.1,3-0.2,2.9,2.4
			c-0.2,7.1,0.1,14.2-0.1,21.2c-0.2,7.2-4,11-10.2,10.6c-2.7-0.2-4.8-1.3-6.4-3.5c-0.4-0.6-0.5-2-1.8-0.9
			C7.8,273.1,7.8,263.2,7.8,253.3z"/>
		<path class="st1" d="M124.1,327.1c-2.8-4.8-4-10-3.3-15.6c0.4-2.7,1.1-5.2,3-7.2c2.2-2.3,3.7-2.6,8.7-1.2c0-2.9,0.1-5.6,0-8.4
			c-0.2-2.4,1.1-2.5,3-2.5c2-0.1,2.8,0.5,2.8,2.7c-0.1,8.9-0.1,17.8,0,26.8c0,1.9,0.2,3.7,0.3,5.6
			C133.7,327.1,128.9,327.1,124.1,327.1z M132.6,315.1c-0.2-2-0.2-4-0.5-6c-0.2-1.2-1.1-2.1-2.5-2.1c-1.2,0-1.9,0.8-2.3,1.8
			c-1.4,4-1.5,8,0,12c0.4,1.1,1.2,1.9,2.3,1.9c1.3,0,2.3-0.9,2.5-2.2C132.4,318.7,132.5,316.9,132.6,315.1z"/>
		<path class="st1" d="M170.6,327.1c0-9.7,0.3-19.5,0-29.2c-0.1-3.8,1.2-4.9,4.6-4.8c1.5,0.1,2.9,0,4.4,0.1c5.8,0.7,8.5,3.5,8.8,8.9
			c0.3,6.2-2.6,10.6-8.2,11.4c-3.2,0.5-4.3,1.5-3.9,4.7c0.3,2.9,0,5.9-0.1,8.8C174.4,327.1,172.5,327.1,170.6,327.1z M176.4,303.5
			c0,0.9-0.1,1.9,0,2.8c0.2,1-0.8,2.6,0.9,3c1.4,0.4,2.6-0.3,3.7-1.2c2-1.7,2.5-6.3,1-8.5c-1.1-1.6-2.6-2.4-4.5-1.9
			c-1.8,0.5-1,2.2-1.1,3.4C176.3,301.9,176.4,302.7,176.4,303.5z"/>
		<path class="st1" d="M396.8,287c-3.4,0.3-6.8-1.2-10.4,0.3c-2.5,1-4.8-0.9-5.9-3.6c-1.3-3.5-1-6.8,1.7-9.6
			c1.5-1.6,3.6-2.2,5.7-2.7c1-0.2,2.7,0.3,2.5-1.7c-0.1-1.7-1.1-2.7-2.6-3.1c-0.7-0.2-1.6,0-2.3,0.1c-1.5,0.2-3.2,1.8-3.8-1.2
			c-0.5-2.6,1.5-2.4,2.9-2.9c5.1-1.5,7.7-0.5,11,4.2c0.4,0.5,0.8,0.7,1.2,0.1C396.8,273.6,396.8,280.3,396.8,287z M390.8,277.9
			c-0.5-1,0.9-3.1-1.5-2.8c-2.5,0.3-4.1,1.9-4,4.6c0,1.6,0.3,3.5,2.5,3.4C391,282.8,390.4,280,390.8,277.9z"/>
		<path class="st1" d="M267.7,327.1c0.7-0.4,0.3-0.8,0-1.3c-4.2-6.6-1.9-12.4,5.5-14.4c1.1-0.3,3.8,0.8,3.1-2.2
			c-0.7-2.6-2.6-3.2-5-2.6c-1.5,0.3-3.3,1.9-3.7-1.3c-0.1-1.2,0.2-1.7,1.1-2.2c6.4-3.6,13.1,0.1,13.3,7.5c0.1,5.5,0.1,11,0.1,16.4
			C277.3,327.1,272.5,327.1,267.7,327.1z M276.5,318.1c-0.8-0.7,1.3-3.1-1.3-3c-2.6,0.1-4.2,1.7-4.2,4.4c0,1.6,0.4,3.5,2.4,3.5
			C276.2,322.9,276.5,320.6,276.5,318.1z"/>
		<path class="st1" d="M145.8,327.1c0.6-0.3,0.8-0.8,0.3-1.2c-5.1-4.6-4.9-10.3-3.5-16.2c1.3-5.6,5.8-8.6,10.5-7.4
			c3.9,1,7.1,8.4,5.7,12.8c-0.4,1.3-1.2,1.2-2.2,1.2c-1.7,0-3.5-0.2-5.2,0.1c-1.4,0.2-3.6-1.3-3.9,1.2c-0.3,2.2,0.9,4.2,3.1,5.1
			c0.8,0.3,2,0.7,2.7,0.4c4.4-1.8,4.4,1.3,4.5,4.1C153.8,327.1,149.8,327.1,145.8,327.1z M147.3,311.1c0.8,2.1,2.6,0.8,3.9,1.1
			c1.4,0.3,2.8,0.1,2.3-1.9c-0.4-1.7-0.9-3.8-2.9-3.7C148.1,306.6,148,309.1,147.3,311.1z"/>
		<path class="st1" d="M226.8,327.1c0.6-0.4,0.5-0.8,0.1-1.2c-5.6-5.3-5-11.6-2.8-18.1c1.4-4.1,4.8-6,8.6-5.6c4,0.4,5.6,3.2,6.4,6.6
			c0.3,1.3,0.3,2.6,0.5,3.9c0.4,2.7-0.5,4-3.4,3.6c-1.4-0.2-2.9-0.2-4.4,0c-1.2,0.1-3-0.9-3.5,0.8c-0.5,1.7,0.2,3.4,1.7,4.6
			c1,0.9,2.4,1.7,3.7,1.2c4.3-1.7,4.7,1.1,5.1,4.1C234.8,327.1,230.8,327.1,226.8,327.1z M231.3,312.2c1.2-0.3,3.3,0.8,2.9-1.9
			c-0.2-1.7-0.6-3.8-2.7-3.8c-2.3-0.1-2.8,2.1-3.1,3.9C228,313.2,230.2,311.8,231.3,312.2z"/>
		<path class="st1" d="M193.9,327.1c0.6-0.3,0.6-0.8,0.2-1.2c-5.5-5-4.9-11.2-3.1-17.4c1.3-4.5,5-6.8,9.1-6.3
			c4.4,0.5,5.7,3.9,6.6,7.5c0.3,1.2,0.1,2.4,0.2,3.6c0.3,2.2-0.4,3.2-2.8,3c-1.6-0.2-3.2-0.2-4.8,0c-1.3,0.2-3.2-1-3.7,1.1
			c-0.3,1.8,0.5,3.4,2,4.6c1,0.8,2.2,1.4,3.4,1c4.3-1.7,4.8,1,5.1,4.1C201.9,327.1,197.9,327.1,193.9,327.1z M198.3,312.2
			c1.1-0.4,3.3,1,3.1-1.7c-0.1-1.9-0.6-4.1-2.9-4c-2.2,0.1-2.7,2.3-2.9,4.1C195.2,313.1,197.3,311.8,198.3,312.2z"/>
		<path class="st1" d="M209.9,327.1c0.8-7.3,0.1-14.6,0.4-21.9c0-0.9-1-2.3,0.6-2.7c1.2-0.3,3.4-0.7,3.7,0.3c1.1,3.3,2,0.8,3.1,0.2
			c1.3-0.7,3.1-1.8,3.6,0.1c0.4,1.3,1.9,4-1.4,4.8c-2.6,0.6-3.7,2.5-3.8,5c-0.1,4.8-0.5,9.5,0.2,14.3
			C214.2,327.1,212.1,327.1,209.9,327.1z"/>
		<path class="st1" d="M253.2,327.1c0-7.3,0.1-14.7,0.1-22c0-1.2-0.7-2.9,1.6-2.7c1.7,0.1,3.9-0.6,3.2,2.4c1.3,0.2,1.5-1,2.2-1.5
			c1.1-0.8,2.4-1.6,3.7-0.9c1.2,0.7,0.4,2.2,0.6,3.3c0.2,1.5-0.4,1.9-1.9,2.3c-3.2,0.8-3.6,3.6-3.7,6.3c-0.1,4.3-0.1,8.5-0.2,12.8
			C257,327.1,255.1,327.1,253.2,327.1z"/>
		<path class="st1" d="M242.8,327.1c0.8-7.1,0.2-14.3,0.3-21.5c0-2.1,0.1-3.4,2.9-3.4s2.8,1.3,2.9,3.4c0.1,7.2-0.5,14.3,0.3,21.5
			C247.1,327.1,244.9,327.1,242.8,327.1z"/>
		<path class="st0" d="M182.1,234.2c-0.7-1.1-0.3-2.3-0.3-3.4c0-39.1,0-78.3-0.1-117.4c0-3.4,0.9-4.2,4.2-4.1
			c9.9,0.2,19.8,0.2,29.7,0c2.6,0,3.3,0.6,3.3,3.3c-0.1,27.6-0.1,55.3-0.1,82.9c0,1.5-0.1,2.8-1.3,4c-11.6,11.5-23.1,23-34.6,34.5
			C182.7,234.1,182.4,234.1,182.1,234.2z"/>
		<path class="st0" d="M100.7,151.4c0-12.8,0.1-25.6-0.1-38.5c0-3.1,0.9-3.8,3.8-3.7c10,0.2,20,0.1,30.1,0c2.4,0,3.2,0.5,3.2,3.1
			c-0.1,26.3-0.1,52.6,0,78.9c0,2.6-0.9,3.1-3.2,3.1c-10.2-0.1-20.3-0.1-30.5,0c-2.6,0-3.4-0.6-3.4-3.3
			C100.8,177.9,100.7,164.6,100.7,151.4z"/>
		<path class="st0" d="M138.1,197.9c-12.6,12.5-24.3,24.2-36,35.9c-1.1,1.1-2.3,1.2-3.6,1.2c-15.5,0-31-0.1-46.5,0
			c-2.4,0-3.2-0.6-3.2-3.1c0.1-10.4,0.1-20.8,0-31.3c0-1.6-0.1-2.8,2.2-2.8C79.6,198,108.2,197.9,138.1,197.9z"/>
		<path class="st0" d="M266.7,234.6c0-18.3,0-35.9,0-53.6c0-1.1,0.2-2,1-2.9c11.8-11.8,23.5-23.6,36-36.2c0,4.7,0,8.3,0,12
			c0,13.6,0,27.3,0,40.9c0,1.7-0.1,3.2-1.5,4.7c-11.4,11.3-22.7,22.6-34.1,34C267.9,233.9,267.6,234.1,266.7,234.6z"/>
		<path class="st0" d="M331,142.6c7.2,0,14.4,0.1,21.6,0c2.1,0,2.7,0.6,2.7,2.7c-0.1,10.5-0.1,21.1,0,31.6c0,2.3-0.7,2.9-2.9,2.8
			c-14.1-0.1-28.3-0.1-42.4,0c-2.3,0-2.9-0.6-2.9-2.9c0.1-10.4,0.1-20.8,0-31.2c0-2.6,0.8-3.1,3.2-3
			C317.1,142.7,324.1,142.6,331,142.6z"/>
		<path class="st1" d="M344.4,285.6c-5.4,2.6-9.4,1-10.9-4.8c-1.3-4.8-1.2-9.5,0.9-14.1c2-4.4,5.7-5.6,9.7-3.2
			c1.4,0.9,1.2-0.1,1.7-0.6c1.1-0.9,2.6-0.6,3.8-0.3c1.5,0.4,0.7,1.8,0.7,2.7c0,7.2,0.2,14.4-0.1,21.6c-0.3,8-6.1,11.8-13.8,9.7
			c-1.7-0.5-2.2-1-1.6-2.8c0.5-1.4,0.6-2.2,2.6-1.8C342.9,293.3,344.8,291.4,344.4,285.6z M344.8,274.8c-0.1,0-0.1,0-0.2,0
			c0-1.6,0.2-3.2,0-4.8c-0.2-1.4-0.8-3-2.6-3c-1.6,0-2.4,1.2-2.8,2.5c-1.2,3.7-1.3,7.3,0.2,11c0.5,1.2,1.4,2.1,2.7,2
			c1.4-0.1,2.2-1.2,2.4-2.4C344.6,278.3,344.6,276.5,344.8,274.8z"/>
		<path class="st1" d="M151.2,263.2c0-2.8,0.2-5.6,0-8.4c-0.2-2.3,0.8-2.6,2.8-2.6c2.1,0,2.7,0.7,2.7,2.7c0,9.7,0.1,19.5,0.2,29.2
			c0,2.5-2.9,4.3-4.3,2.4c-1.5-2-1.9-0.6-2.9-0.1c-3.3,1.7-6.8,0.8-8.5-2.6c-2.9-6-2.9-12.2,0-18.1
			C143.1,262.1,145.9,261.5,151.2,263.2z M151.2,274.5c-0.2-1.6,0.3-3.6-0.6-5.5c-0.5-1-1.1-1.9-2.2-2c-1.2-0.1-2.1,0.7-2.4,1.7
			c-1.6,4.1-1.6,8.3,0,12.4c0.4,1,1.2,1.8,2.4,1.7c1.1-0.2,1.8-0.9,2.2-2C151.4,278.8,151.2,276.8,151.2,274.5z"/>
		<path class="st1" d="M192.1,263.4c0-2.8,0.1-5.3,0-7.9c-0.1-2.1,0.1-3.4,2.9-3.3c2.8,0,2.9,1.3,2.9,3.4
			c-0.1,9.5-0.3,18.9,0.1,28.4c0.2,4.1-3,3.7-4,2.7c-1.8-1.7-2.4-0.5-3.7,0.1c-3.3,1.6-6.8,0.1-8.5-3.6c-2.2-5.1-2.2-10.4-0.4-15.6
			C183.1,262.5,186.7,261.1,192.1,263.4z M192.2,274.7c-0.3-1.8,0.3-3.8-0.6-5.8c-0.5-1.1-1.1-1.8-2.3-2c-1.3-0.1-2.1,0.8-2.4,1.7
			c-1.6,4.1-1.6,8.3,0,12.4c0.4,1,1.3,1.8,2.5,1.7c1.2-0.1,1.7-1,2.2-2C192.5,278.8,191.9,276.8,192.2,274.7z"/>
		<path class="st1" d="M31.2,274.6c0-3.1,0-6.1,0-9.2c0-2.8,2.1-4.3,4.2-2.6c1.5,1.2,2,0.7,3.2,0.1c4.5-2.2,8.5-0.4,9.3,4.5
			c1,5.9,0.3,12,0.4,18c0,2.5-2.1,1.3-3.3,1.5c-1.5,0.3-2.1-0.3-2.1-1.9c0.1-4.5,0.2-9.1-0.1-13.6c-0.1-1.8,0.1-4.5-2.8-4.4
			c-2.6,0.1-3,2.6-3.1,4.5c-0.2,4.4-0.2,8.8,0,13.2c0.1,2.1-0.8,2.4-2.6,2.4c-1.7-0.1-3.1,0-3-2.4c0.2-3.3,0-6.7,0-10
			C31.3,274.6,31.3,274.6,31.2,274.6z"/>
		<path class="st1" d="M260.4,274.7c0-3.2,0-6.4,0-9.6c0-0.9-0.6-2.4,1-2.6c1.2-0.1,3.1-0.9,3.6,0.6c0.7,2,1.2,0.8,2.1,0.3
			c5.4-3,10-0.7,10.3,5.5c0.2,5.2,0,10.4,0.1,15.6c0,1.9-0.5,2.6-2.5,2.4c-1.6-0.1-3.2,0.2-3-2.3c0.2-3.9,0.2-7.7,0-11.6
			c-0.1-2.3,0.9-6-2.8-5.9c-3.3,0-3.1,3.4-3.1,5.9c-0.1,3.9-0.1,7.7,0,11.6c0.1,2.1-0.7,2.5-2.5,2.3c-1.6-0.1-3.2,0.4-3.1-2.3
			c0.2-3.3,0-6.7,0-10C260.5,274.7,260.5,274.7,260.4,274.7z"/>
		<path class="st1" d="M329.9,274.5c-0.1,3.1-0.3,6-1.8,8.6c-1.6,2.8-3.9,4.3-7.1,4.3c-3.3,0-5.6-1.5-7-4.4
			c-2.4-5.2-2.4-10.6-0.2-15.8c1.4-3.3,4.1-5.3,7.8-5.1c3.8,0.2,6,2.5,7.3,5.9C329.7,270.2,329.8,272.4,329.9,274.5z M317.8,273.9
			c0.2,3,0.1,5.3,1.2,7.4c0.5,1,1.2,1.8,2.4,1.7c1.1-0.1,1.6-0.9,2-1.8c1.5-4.1,1.5-8.3,0.1-12.5c-0.3-1-0.9-2-2.2-2.1
			c-1.4-0.1-2.2,1-2.6,2.1C318.2,270.7,318,272.7,317.8,273.9z"/>
		<path class="st1" d="M281.3,274.9c-0.1-3.1,0.4-5.8,1.8-8.3c1.7-3,4.3-4.7,7.8-4.5c3.4,0.3,5.6,2.3,6.8,5.4
			c1.8,4.6,1.8,9.4,0.2,14.1c-1.3,3.7-3.9,6-8.1,5.8c-4-0.1-6.3-2.6-7.5-6.1C281.4,279.2,281.1,277,281.3,274.9z M286.9,274.2
			c0,2.4-0.1,4.3,0.6,6.1c0.5,1.3,0.9,2.6,2.6,2.7c1.7,0.1,2.2-1.2,2.6-2.6c1-3.8,1-7.6-0.1-11.4c-0.4-1.2-1-2.3-2.4-2.3
			c-1.4,0-2.1,0.9-2.5,2.2C287,270.7,286.9,272.7,286.9,274.2z"/>
		<path class="st1" d="M176.4,277.5c0,2.5-0.2,5.1,0.1,7.6c0.1,1.5-0.3,2.2-1.6,1.9c-3-0.8-5.8-0.2-8.8,0.4
			c-2.8,0.5-4.7-1.5-5.7-4.1c-1.3-3.4-0.1-7.7,2.6-9.8c1.5-1.2,3.3-1.6,5.1-2.1c0.9-0.2,2.7,0.4,2.5-1.7c-0.1-1.7-1-2.6-2.6-3.1
			c-1.3-0.4-2.4,0.1-3.5,0.5c-1.4,0.5-2.1,0.6-2.6-1c-0.4-1.4-0.2-2.2,1.1-2.9c6.5-3.4,12.9,0.3,13.2,7.7
			C176.5,273,176.4,275.2,176.4,277.5C176.4,277.5,176.4,277.5,176.4,277.5z M171,277.9c-0.5-1,0.9-3.1-1.6-2.8
			c-2.5,0.3-4.1,1.8-4,4.6c0.1,1.6,0.3,3.5,2.5,3.3C171.3,282.8,170.6,279.9,171,277.9z"/>
		<path class="st1" d="M80.3,275c0-3.3,0.5-6.4,2.3-9.1c1.9-2.7,4.5-4.2,7.9-3.7c3.3,0.5,5,2.8,6,5.7c0.2,0.5,0.2,1,0.3,1.6
			c1.2,6.7,1,7-5.7,7c-0.4,0-0.9-0.1-1.2,0c-1.4,0.6-4-1.5-4.1,1.3c-0.1,2.6,1.3,4.9,4.5,5.2c0.9,0.1,1.9,0.1,2.8-0.1
			c1.5-0.4,2.4-0.7,2.8,1.4c0.3,2-0.5,2.5-2.2,2.9C85.1,288.8,80.3,284.5,80.3,275z M88.8,272.4c1.1-0.6,3.2,1,3.2-1.6
			c0-2-0.6-4.4-3-4.4c-2.4,0-2.8,2.6-3.1,4.5C85.6,273.3,87.8,271.9,88.8,272.4z"/>
		<path class="st1" d="M241.3,273c0.4,2.4-0.3,4-3.6,3.5c-1.3-0.2-2.7-0.3-4,0c-1.3,0.3-3.6-1.4-3.8,1.3c-0.2,2.1,0.9,3.9,2.9,4.8
			c1.4,0.6,3,0.6,4.3,0.2c1.9-0.7,2.4-0.3,2.8,1.6c0.4,2-0.7,2.2-2.1,2.6c-7.8,1.9-13.2-2.1-13.6-10.1c-0.1-2.8,0-5.6,0.9-8.3
			c1.5-4.3,5.1-6.9,9-6.5c3.7,0.4,6.3,3.5,6.9,8.1C241.2,271,241.2,271.8,241.3,273z M233.1,272.4c1-0.5,3.3,1,3-1.7
			c-0.2-1.8-0.6-4.2-2.8-4.2c-2.4-0.1-3,2.3-3.2,4.2C229.7,273.4,232,271.9,233.1,272.4z"/>
		<path class="st0" d="M213.3,272.2c0-3.6-0.1-7.2,0-10.8c0.1-2.4-0.5-3.6-3-3.1c-2.2,0.4-2.9-0.4-3-2.8c0-2.7,1.6-2.2,3.1-2.2
			c4.1,0,8.3,0.1,12.4,0c1.8,0,2.3,0.6,2.3,2.3c-0.1,1.6-0.1,3.1-2.3,2.7c-3.5-0.6-4.1,1.1-4,4.2c0.2,7.2,0,14.4,0.1,21.6
			c0,2.1-0.4,3-2.8,3c-2.2,0-3-0.5-2.9-2.9C213.4,280.2,213.3,276.2,213.3,272.2z"/>
		<path class="st1" d="M70.8,277.2c0.9-4.2,1.9-8.4,2.5-12.6c0.5-3.4,3-2.2,4.6-2c2.5,0.2,0.8,2,0.5,3c-1.5,6.3-3.3,12.6-4.9,18.9
			c-0.5,1.8-1.1,2.7-3.2,2.6c-1.8-0.1-2.8-0.4-3.3-2.4c-1.5-6.5-3.4-12.8-5.1-19.2c-0.3-1-1.4-2.7,0.6-2.8c1.6-0.1,4.2-1.6,4.8,1.6
			c0.7,3.6,1.5,7.3,2.2,10.9c0.1,0.7,0.3,1.4,0.5,2.1C70.3,277.3,70.6,277.2,70.8,277.2z"/>
		<path class="st1" d="M302.8,269.4c0-4.9,0.1-9.9-0.1-14.8c-0.1-2.1,0.8-2.4,2.6-2.3c1.7,0,3,0,2.9,2.4c-0.1,10-0.1,20,0,30
			c0,2.6-1.4,2.2-3,2.3c-1.9,0.2-2.5-0.5-2.5-2.4C302.9,279.5,302.8,274.5,302.8,269.4z"/>
		<path class="st1" d="M122.7,266.7c-1.8-0.2-3.2-0.1-3.8,1.4c-0.6,1.5,0.4,2.5,1.4,3.4c1.3,1.1,2.9,1.9,4.1,3.2
			c2.7,2.8,2.9,7.4,0.5,10.2c-2.1,2.5-7.9,3.4-10.8,1.8c-1.7-0.9-0.5-2-0.5-3.1c0.1-1.6,1-1.4,2.2-1c1.9,0.7,4.1,1.4,5.1-1.2
			c0.9-2.4-0.9-3.6-2.6-4.7c-2-1.3-4-2.8-4.6-5.3c-1.5-5.3,3.1-10.1,8.8-9.1c1.3,0.2,3.5,0,3,2.6
			C125.3,266.3,124.5,266.8,122.7,266.7z"/>
		<path class="st1" d="M244,275.2c0-7.9,4.5-13.4,10.9-13.1c1.3,0.1,3.3-0.4,3.2,2c-0.1,1.8-0.5,3.4-3.1,2.8
			c-1.7-0.4-3.1,0.7-3.9,2.2c-1.9,3.7-1.9,7.4-0.2,11.2c0.8,1.7,2.5,2.9,4.2,2.4c2.6-0.8,2.5,0.8,2.8,2.4c0.3,2.1-1.3,2-2.5,2.2
			C248.6,288.3,244,283.4,244,275.2z"/>
		<path class="st1" d="M364,276c-0.1-8.5,4.6-14.1,10.9-13.8c1.3,0.1,3.3-0.4,3.2,1.9c-0.1,1.7-0.3,3.2-3,2.9
			c-3.3-0.4-4.4,2.2-5.1,5c-1.5,6.3,0.5,9.6,6.5,10.4c1.7,0.2,0.9,1.6,1.2,2.4c0.5,1.1,0.3,1.9-1.2,2.3c-4.1,1.3-8.9-0.6-10.9-4.5
			C364.5,280.3,364.3,277.7,364,276z"/>
		<path class="st0" d="M105.5,265.5c1.4-1.3,2-1.9,2.8-2.5c1-0.8,2.3-1.4,3.3-0.7c1,0.7,0.3,2.2,0.4,3.4c0.1,1.2,0,1.8-1.6,2.1
			c-3.1,0.5-3.9,2.9-4,5.6c-0.1,3.5-0.2,6.9,0,10.4c0.1,2.3-0.3,3.3-3,3.2c-2.4-0.1-2.8-0.9-2.7-3c0.1-6.3,0-12.5,0.1-18.8
			c0-1.2-0.7-2.9,1.7-2.7C104.2,262.6,106.4,261.9,105.5,265.5z"/>
		<path class="st1" d="M58.5,275c0,2.9-0.1,5.9,0,8.8c0.1,2,0.1,3.4-2.8,3.3c-2.6-0.1-2.7-1.2-2.7-3.2c0.1-6.1,0.1-12.2,0-18.4
			c0-2,0.1-3.2,2.7-3.2c2.4,0,2.9,0.9,2.8,3C58.4,268.6,58.5,271.8,58.5,275z"/>
		<path class="st1" d="M135.5,275.3c0,2.9-0.1,5.9,0,8.8c0.1,2.2-0.5,3-2.8,2.9c-2.2,0-3-0.5-3-2.9c0.2-6.4,0.2-12.8,0-19.2
			c-0.1-2.3,1-2.6,2.9-2.6c1.8,0,3,0.2,2.9,2.5C135.3,268.4,135.5,271.9,135.5,275.3z"/>
		<path class="st1" d="M360.6,274.9c0,2.9-0.1,5.9,0,8.8c0.1,2.1,0,3.4-2.8,3.4c-2.7,0-2.9-1.1-2.9-3.3c0.1-6.3,0.1-12.5,0-18.8
			c0-2.2,0.8-2.7,2.8-2.6c1.8,0.1,3.1,0.1,3,2.5C360.5,268.2,360.6,271.6,360.6,274.9z"/>
		<path class="st1" d="M249.1,296.2c-0.3,1.8-1.1,3.1-3,3.1c-1.9,0-3-1.1-3.1-3c0-1.9,0.9-3.3,3.1-3.3
			C248.1,293.2,248.7,294.6,249.1,296.2z"/>
		<path class="st1" d="M327.7,253c-3,2.5-3.2,7.5-8.8,6.5C321.2,256.5,320.9,251.2,327.7,253z"/>
		<path class="st1" d="M360.6,255.9c0.1,2.1-0.9,3.4-2.7,3.6c-2.1,0.2-3.2-1.2-3.2-3.2c0-1.8,0.9-3,2.9-3.1
			C359.6,253.1,360.4,254.3,360.6,255.9z"/>
		<path class="st1" d="M55.6,259.5c-1.6-0.4-2.9-1.3-2.8-3.2c0.1-1.8,0.8-3.1,2.8-3.2c2.2-0.1,3.1,1.3,3.1,3.3
			C58.7,258.4,57.5,259.3,55.6,259.5z"/>
		<path class="st1" d="M135.5,256.4c0.1,2-1.2,3.1-2.9,3c-2-0.1-3-1.4-2.8-3.5c0.2-1.9,1.3-2.8,3.2-2.8
			C135,253.2,135.5,254.6,135.5,256.4z"/>
	</g>
</g>
<g>
</g>
<g>
</g>
<g>
</g>
<g>
</g>
<g>
</g>
<g>
</g>
<g>
</g>
<g>
</g>
<g>
</g>
<g>
</g>
<g>
</g>
<g>
</g>
<g>
</g>
<g>
</g>
<g>
</g>
</svg>
